<svg width="128" height="128" viewBox="0 0 128 128" fill="none" xmlns="http://www.w3.org/2000/svg">
<g clip-path="url(#clip0_240_7110)">
<path d="M74.2302 13.7912C73.1656 12.0243 71.6623 10.5626 69.8663 9.54791C68.0702 8.53321 66.0424 8 63.9795 8C61.9167 8 59.8889 8.53321 58.0928 9.54791C56.2968 10.5626 54.7935 12.0243 53.7289 13.7912L36.8665 42.6725C49.7487 49.104 60.7244 58.7933 68.7039 70.7783C76.6835 82.7634 81.3892 96.6272 82.3539 110.993H70.5144C69.5514 98.6788 65.3897 86.8294 58.4408 76.6174C51.492 66.4054 41.997 58.1849 30.8955 52.7694L15.2888 79.7543C21.5298 82.5533 26.9669 86.8764 31.1001 92.3262C35.2333 97.7759 37.93 104.177 38.9423 110.942H11.7524C11.4299 110.919 11.1182 110.816 10.8453 110.643C10.5725 110.47 10.3471 110.231 10.1894 109.949C10.0318 109.667 9.94687 109.35 9.94235 109.026C9.93782 108.703 10.0138 108.384 10.1635 108.097L17.6978 95.2841C15.1452 93.1544 12.2279 91.5047 9.08718 90.415L1.62982 103.228C0.85347 104.56 0.34947 106.033 0.147096 107.561C-0.055277 109.089 0.0480115 110.642 0.450962 112.13C0.853912 113.617 1.54849 115.01 2.49435 116.227C3.4402 117.445 4.61848 118.462 5.96073 119.219C7.72922 120.216 9.72251 120.745 11.7524 120.757H48.9879C49.6795 112.223 48.1556 103.656 44.5638 95.8843C40.9721 88.1126 35.4342 81.4002 28.4866 76.3972L34.4064 66.1465C43.1744 72.1686 50.2205 80.3729 54.8494 89.9498C59.4783 99.5267 61.5299 110.145 60.8018 120.757H92.3483C93.0829 104.681 89.5857 88.6944 82.206 74.3938C74.8264 60.0932 63.8228 47.9798 50.2949 39.2641L62.2626 18.7628C62.5292 18.316 62.9616 17.9926 63.4655 17.863C63.9695 17.7334 64.5042 17.8081 64.9534 18.0709C66.3116 18.814 116.95 107.175 117.898 108.2C118.065 108.499 118.15 108.838 118.144 109.181C118.139 109.524 118.043 109.859 117.866 110.153C117.689 110.447 117.438 110.689 117.137 110.854C116.837 111.02 116.498 111.103 116.155 111.096H103.957C104.111 114.359 104.111 117.613 103.957 120.86H116.207C117.762 120.87 119.304 120.571 120.744 119.981C122.183 119.392 123.491 118.522 124.592 117.424C125.693 116.325 126.566 115.019 127.158 113.581C127.751 112.142 128.053 110.601 128.046 109.046C128.048 106.991 127.499 104.974 126.457 103.203L74.2302 13.7912Z" fill="#362D59"/>
</g>
<defs>
<clipPath id="clip0_240_7110">
<rect width="128" height="128" fill="white"/>
</clipPath>
</defs>
</svg>
