<svg width="128" height="128" viewBox="0 0 128 128" fill="none" xmlns="http://www.w3.org/2000/svg">
<g clip-path="url(#clip0_58_7704)">
<path fill-rule="evenodd" clip-rule="evenodd" d="M117.899 55.7094L103.495 64.009L117.899 72.2385C118.76 72.7364 119.515 73.3991 120.12 74.1887C120.726 74.9782 121.169 75.8793 121.427 76.8405C121.684 77.8016 121.749 78.8039 121.618 79.7902C121.488 80.7766 121.165 81.7275 120.667 82.5889C120.169 83.4503 119.506 84.2051 118.717 84.8104C117.927 85.4157 117.026 85.8595 116.065 86.1165C115.104 86.3736 114.101 86.4388 113.115 86.3084C112.129 86.1781 111.178 85.8547 110.316 85.3569L84.5083 70.4894C83.3255 69.8051 82.3494 68.8142 81.6829 67.6213C81.0164 66.4283 80.6842 65.0776 80.7215 63.7116C80.7417 63.1198 80.8328 62.5326 80.9926 61.9625C81.5209 60.0506 82.7766 58.4214 84.4909 57.4236L110.299 42.6086C111.164 42.1086 112.119 41.7842 113.11 41.6539C114.101 41.5235 115.107 41.5898 116.072 41.8489C117.037 42.108 117.942 42.5549 118.734 43.164C119.526 43.7731 120.19 44.5323 120.689 45.3984C121.189 46.257 121.514 47.2063 121.645 48.1915C121.775 49.1766 121.709 50.1779 121.449 51.1371C121.19 52.0964 120.742 52.9945 120.133 53.7794C119.523 54.5643 118.764 55.2204 117.899 55.7094ZM104.265 95.939L78.4652 81.0978C77.3109 80.4354 76.0034 80.0865 74.6726 80.086C73.3417 80.0854 72.0339 80.4331 70.8791 81.0945C69.7243 81.7559 68.7626 82.708 68.0897 83.8562C67.4168 85.0044 67.0561 86.3087 67.0435 87.6395V117.287C67.1103 119.257 67.9398 121.124 69.357 122.493C70.7741 123.863 72.668 124.629 74.639 124.629C76.61 124.629 78.5039 123.863 79.921 122.493C81.3381 121.124 82.1676 119.257 82.2345 117.287V100.67L96.6734 108.97C97.5348 109.468 98.4859 109.792 99.4724 109.923C100.459 110.054 101.462 109.989 102.423 109.733C103.385 109.476 104.286 109.033 105.076 108.427C105.866 107.822 106.53 107.068 107.028 106.206C107.527 105.345 107.851 104.394 107.981 103.407C108.112 102.421 108.048 101.418 107.791 100.457C107.534 99.495 107.091 98.5935 106.486 97.8033C105.881 97.0132 105.126 96.35 104.265 95.8515V95.939ZM74.5297 66.9387L63.7726 77.5646C63.4046 77.9067 62.9277 78.108 62.4258 78.133H59.2687C58.768 78.103 58.2927 77.9024 57.9218 77.5646L47.226 66.9037C46.8914 66.5386 46.6937 66.0689 46.6663 65.5744V62.426C46.6952 61.9293 46.8926 61.4573 47.226 61.0879L57.9218 50.4271C58.2935 50.0919 58.7689 49.8943 59.2687 49.8674H62.4258C62.9264 49.8907 63.403 50.0888 63.7726 50.4271L74.4947 61.0879C74.8255 61.4581 75.0199 61.9302 75.0456 62.426V65.5744C75.0214 66.068 74.8267 66.5378 74.4947 66.9037L74.5297 66.9387ZM65.959 63.9827C65.9177 63.4729 65.705 62.992 65.3556 62.6184L62.2509 59.5487C61.8789 59.2141 61.4037 59.0166 60.9041 58.989H60.7904C60.293 59.0151 59.8201 59.2129 59.4523 59.5487L56.3476 62.6184C56.0144 62.994 55.8199 63.4724 55.7967 63.974V64.0877C55.8187 64.5817 56.0137 65.0522 56.3476 65.417L59.4698 68.4779C59.8384 68.8125 60.3108 69.0102 60.8079 69.0377H60.9216C61.4212 69.01 61.8964 68.8126 62.2684 68.4779L65.3731 65.3908C65.7084 65.0253 65.909 64.5564 65.9415 64.0614L65.959 63.9827ZM17.4299 32.0789L43.2381 46.8764C44.3936 47.5386 45.7023 47.8869 47.0341 47.8869C48.3659 47.8869 49.6746 47.5385 50.8301 46.8763C51.9857 46.2141 52.9479 45.2611 53.6212 44.1121C54.2946 42.963 54.6556 41.6578 54.6685 40.326V10.7048C54.6017 8.73493 53.7721 6.8681 52.355 5.49824C50.9379 4.12839 49.044 3.36266 47.073 3.36266C45.102 3.36266 43.2081 4.12839 41.791 5.49824C40.3738 6.8681 39.5443 8.73493 39.4775 10.7048V27.3213L25.0211 19.0131C24.1597 18.5146 23.2086 18.1907 22.222 18.0598C21.2355 17.929 20.2329 17.9937 19.2713 18.2503C18.3098 18.5069 17.4082 18.9504 16.6181 19.5555C15.828 20.1605 15.1648 20.9153 14.6663 21.7767C14.1679 22.638 13.844 23.5891 13.7131 24.5757C13.5822 25.5622 13.647 26.5649 13.9036 27.5264C14.1602 28.4879 14.6037 29.3895 15.2087 30.1796C15.8138 30.9697 16.5685 31.633 17.4299 32.1314V32.0789ZM74.0661 47.8909C75.5902 48.0114 77.1149 47.6668 78.4389 46.9026L104.238 32.0352C105.1 31.5368 105.854 30.8735 106.459 30.0834C107.065 29.2933 107.508 28.3917 107.765 27.4302C108.021 26.4687 108.086 25.466 107.955 24.4795C107.824 23.4929 107.5 22.5418 107.002 21.6805C106.503 20.8191 105.84 20.0643 105.05 19.4593C104.26 18.8542 103.358 18.4107 102.397 18.1541C100.455 17.6358 98.3868 17.9102 96.6472 18.9169L82.2083 27.2951V10.6785C82.1414 8.7087 81.3119 6.84186 79.8948 5.47201C78.4776 4.10215 76.5837 3.33643 74.6127 3.33643C72.6418 3.33643 70.7479 4.10215 69.3307 5.47201C67.9136 6.84186 67.0841 8.7087 67.0172 10.6785V40.326C67.0148 42.2454 67.7413 44.0942 69.0499 45.4985C70.3584 46.9028 72.1513 47.7579 74.0661 47.8909ZM47.6458 80.1095C46.1216 79.9857 44.5959 80.3305 43.273 81.0978L17.4299 95.904C15.6903 96.9107 14.4219 98.5671 13.9036 100.509C13.3853 102.451 13.6597 104.519 14.6663 106.259C15.673 107.998 17.3294 109.267 19.2713 109.785C21.2132 110.303 23.2815 110.029 25.0211 109.022L39.4775 100.723V117.339C39.5443 119.309 40.3738 121.176 41.791 122.546C43.2081 123.916 45.102 124.681 47.073 124.681C49.044 124.681 50.9379 123.916 52.355 122.546C53.7721 121.176 54.6017 119.309 54.6685 117.339V87.6395C54.6646 85.7297 53.9385 83.892 52.6359 82.4954C51.3333 81.0987 49.5507 80.2464 47.6458 80.1095ZM40.6494 66.2303C41.1476 64.5921 41.0725 62.8329 40.4365 61.243C39.8006 59.6532 38.6417 58.3275 37.1511 57.4848L11.3692 42.6261C9.62803 41.6287 7.56307 41.3605 5.62485 41.8799C3.68663 42.3993 2.03247 43.6641 1.02324 45.3984C0.523605 46.2567 0.199114 47.2056 0.0685393 48.1901C-0.0620352 49.1746 0.00389896 50.1753 0.262528 51.1342C0.521157 52.093 0.967347 52.9911 1.57529 53.7764C2.18323 54.5618 2.94085 55.2188 3.80433 55.7094L18.2083 64.009L3.80433 72.2385C2.94297 72.7353 2.18788 73.3968 1.58217 74.1853C0.976458 74.9738 0.531994 75.874 0.274153 76.8343C0.0163107 77.7946 -0.0498595 78.7963 0.0794199 79.7822C0.208699 80.768 0.530896 81.7188 1.02762 82.5802C1.52433 83.4415 2.18585 84.1966 2.97439 84.8023C3.76292 85.408 4.66304 85.8525 5.62335 86.1103C6.58366 86.3682 7.58535 86.4343 8.57123 86.3051C9.55711 86.1758 10.5079 85.8536 11.3692 85.3569L37.1511 70.4894C38.8114 69.5625 40.0584 68.0405 40.6406 66.2303H40.6494ZM122.114 17.0628H120.951V18.4883H122.106C122.639 18.4883 122.98 18.2435 122.98 17.7887C122.98 17.3339 122.665 17.0628 122.106 17.0628H122.114ZM119.543 15.751H122.167C123.584 15.751 124.528 16.5293 124.528 17.7362C124.533 18.0722 124.447 18.4032 124.281 18.6953C124.115 18.9874 123.874 19.2299 123.584 19.3979L124.607 20.8671V21.1645H123.129L122.106 19.7652H120.951V21.1645H119.534L119.543 15.751ZM126.802 18.567C126.844 17.905 126.749 17.2413 126.522 16.618C126.294 15.9947 125.94 15.4254 125.481 14.9461C125.023 14.4669 124.469 14.088 123.857 13.8337C123.244 13.5793 122.585 13.4549 121.922 13.4684C119.027 13.4684 117.103 15.5586 117.103 18.567C117.103 21.4356 119.027 23.657 121.922 23.657C122.585 23.6729 123.245 23.5505 123.859 23.2977C124.473 23.0449 125.027 22.6671 125.487 22.1883C125.947 21.7096 126.302 21.1404 126.53 20.517C126.758 19.8935 126.853 19.2295 126.811 18.567H126.802ZM128.009 18.567C128.009 21.9691 125.735 24.8114 121.887 24.8114C118.039 24.8114 115.861 21.9428 115.861 18.567C115.861 15.1913 118.109 12.3227 121.887 12.3227C125.665 12.3227 128 15.1563 128 18.567H128.009Z" fill="#29B5E8"/>
</g>
<defs>
<clipPath id="clip0_58_7704">
<rect width="128" height="121.703" fill="white" transform="translate(0 3.14844)"/>
</clipPath>
</defs>
</svg>
