<svg width="128" height="128" viewBox="0 0 128 128" fill="none" xmlns="http://www.w3.org/2000/svg">
<g clip-path="url(#clip0_240_6702)">
<path d="M126.775 90.8476C128.334 93.0757 128 95.9721 126.106 97.5317C123.878 99.0913 120.648 98.7571 119.088 96.8633L107.948 82.4925L97.0305 96.5291C95.4708 98.7571 92.2402 98.7571 90.0122 97.1975C87.7842 95.6379 87.45 92.7415 89.0096 90.5134L101.821 73.9147L89.121 57.2045C87.5614 54.9765 88.1184 51.7458 90.1236 50.1862C92.3516 48.6266 95.5822 49.1836 97.1419 51.1888L108.059 65.5596L119.199 51.8572C120.759 49.6292 123.655 49.295 126.218 50.8546C128.446 52.4142 128.446 55.6449 126.886 57.8729L114.409 74.1375L126.775 90.8476ZM68.7346 88.8424C60.3795 88.8424 53.6954 82.4925 53.6954 74.1375C53.6954 66.1166 60.3795 59.4325 68.7346 59.4325C77.0896 59.4325 83.7737 66.1166 83.7737 74.1375C83.3281 82.4925 76.644 88.8424 68.7346 88.8424ZM24.6197 88.8424C16.2646 88.8424 9.58051 82.4925 9.58051 74.1375C9.58051 66.1166 16.2646 59.4325 24.6197 59.4325C32.9748 59.4325 39.6588 66.1166 39.6588 74.1375C39.6588 82.4925 32.8634 88.8424 24.6197 88.8424ZM68.7346 49.9634C59.4883 49.9634 51.1332 55.0879 47.0113 62.7745C42.7781 54.9765 34.5344 49.9634 24.9539 49.9634C19.161 49.9634 14.0366 51.8572 9.91471 54.7537V34.2558C9.91471 31.6936 7.68668 29.4656 5.12446 29.4656C2.22802 29.4656 0 31.6936 0 34.2558V74.4717C0.334204 87.8398 11.1401 98.4229 24.6197 98.4229C34.2002 98.4229 42.5553 92.9643 46.6771 85.2776C50.799 92.9643 59.1541 98.4229 68.4004 98.4229C82.1027 98.4229 93.3542 87.5056 93.3542 73.8033C93.577 60.7693 82.4369 49.9634 68.7346 49.9634Z" fill="#0061D5"/>
</g>
<defs>
<clipPath id="clip0_240_6702">
<rect width="128" height="69.0688" fill="white" transform="translate(0 29.4656)"/>
</clipPath>
</defs>
</svg>
