<svg width="128" height="128" viewBox="0 0 128 128" fill="none" xmlns="http://www.w3.org/2000/svg">
<g clip-path="url(#clip0_240_6515)">
<path d="M109.694 70.3245C109.694 71.4461 109.252 72.5214 108.466 73.3143C107.679 74.1071 106.612 74.5529 105.5 74.5529C104.387 74.5529 103.32 74.1071 102.534 73.3143C101.747 72.5214 101.305 71.4461 101.305 70.3245V32.552C101.305 31.4306 101.747 30.3552 102.534 29.5623C103.32 28.7694 104.387 28.3239 105.5 28.3239C106.612 28.3239 107.679 28.7694 108.466 29.5623C109.252 30.3552 109.694 31.4306 109.694 32.552V70.3245ZM108.238 96.4966C107.684 97.0555 92.0839 110.159 63.4836 110.159C34.8839 110.159 19.3879 97.1256 18.7292 96.5661C18.3142 96.2136 17.9723 95.7816 17.7231 95.2955C17.474 94.8089 17.3226 94.2781 17.2774 93.7325C17.2323 93.1874 17.2945 92.6384 17.4604 92.117C17.6262 91.5962 17.8925 91.1129 18.2439 90.6958C18.9679 89.8517 19.9937 89.3303 21.0977 89.2448C22.2017 89.1598 23.2943 89.5184 24.1372 90.2417C24.3799 90.4166 38.3159 101.808 63.4494 101.808C88.5826 101.808 102.622 90.3465 102.761 90.2417C103.613 89.5245 104.71 89.1708 105.816 89.2558C106.924 89.3408 107.954 89.8572 108.689 90.6958C109.396 91.5278 109.75 92.6075 109.671 93.6999C109.593 94.7923 109.091 95.8103 108.273 96.5314L108.238 96.4966ZM17.2386 32.552C17.3013 31.4271 17.8032 30.3729 18.6347 29.62C19.4662 28.867 20.5596 28.4764 21.6759 28.5336C22.7108 28.5928 23.6873 29.0362 24.4171 29.7782C25.1468 30.5202 25.5782 31.5084 25.6279 32.552V70.255C25.6279 71.3761 25.1859 72.4514 24.3993 73.2442C23.6127 74.0376 22.5457 74.4828 21.4332 74.4828C20.3207 74.4828 19.2538 74.0376 18.4672 73.2442C17.6805 72.4514 17.2386 71.3761 17.2386 70.255V32.552ZM38.2812 24.1658C38.3439 23.0409 38.8459 21.9868 39.6773 21.2338C40.5088 20.4808 41.6022 20.0903 42.7185 20.1474C43.7535 20.2067 44.7299 20.6501 45.4597 21.3921C46.1894 22.1341 46.6208 23.1222 46.6705 24.1658V80.0734C46.6705 81.1951 46.2286 82.2704 45.4419 83.0632C44.6553 83.8561 43.5884 84.3013 42.4759 84.3013C41.3634 84.3013 40.2965 83.8561 39.5098 83.0632C38.7232 82.2704 38.2812 81.1951 38.2812 80.0734V24.1658ZM59.4279 22.0693C59.4279 20.9479 59.8698 19.8725 60.6566 19.0796C61.4433 18.2867 62.5098 17.8412 63.6226 17.8412C64.7349 17.8412 65.8019 18.2867 66.5887 19.0796C67.3755 19.8725 67.8174 20.9479 67.8174 22.0693V82.869C67.8174 83.9901 67.3755 85.0654 66.5887 85.8588C65.8019 86.6517 64.7349 87.0969 63.6226 87.0969C62.5098 87.0969 61.4433 86.6517 60.6566 85.8588C59.8698 85.0654 59.4279 83.9901 59.4279 82.869V22.0693ZM80.2279 24.1658C80.2279 23.0445 80.6698 21.9691 81.4566 21.1761C82.2428 20.3832 83.3098 19.9378 84.4226 19.9378C85.5349 19.9378 86.6019 20.3832 87.3887 21.1761C88.1749 21.9691 88.6168 23.0445 88.6168 24.1658V80.0734C88.6168 81.1951 88.1749 82.2704 87.3887 83.0632C86.6019 83.8561 85.5349 84.3013 84.4226 84.3013C83.3098 84.3013 82.2428 83.8561 81.4566 83.0632C80.6698 82.2704 80.2279 81.1951 80.2279 80.0734V24.1658ZM110.839 1.10386H16.2679C14.2073 1.09006 12.1642 1.48608 10.2556 2.26924C8.347 3.05241 6.61044 4.20735 5.14529 5.66792C3.68014 7.12851 2.5152 8.866 1.71718 10.781C0.919145 12.696 0.503701 14.7509 0.494629 16.8279V111.172C0.503701 113.249 0.919145 115.304 1.71718 117.219C2.5152 119.134 3.68014 120.872 5.14529 122.332C6.61044 123.793 8.347 124.948 10.2556 125.731C12.1642 126.514 14.2073 126.91 16.2679 126.896H110.839C112.896 126.91 114.936 126.515 116.842 125.734C118.749 124.953 120.484 123.801 121.949 122.344C123.414 120.888 124.579 119.154 125.379 117.243C126.179 115.332 126.598 113.281 126.612 111.207V16.8279C126.602 14.7538 126.188 12.7019 125.393 10.7891C124.596 8.87643 123.435 7.14048 121.973 5.68034C120.512 4.22022 118.779 3.06455 116.875 2.27932C114.97 1.49409 112.931 1.09467 110.873 1.10386" fill="#081D34"/>
</g>
<defs>
<clipPath id="clip0_240_6515">
<rect width="128" height="125.793" fill="white" transform="translate(0 1.10352)"/>
</clipPath>
</defs>
</svg>
