<svg xmlns="http://www.w3.org/2000/svg" viewBox="0 0 128 128">
  <rect width="128" height="128" rx="24" fill="#343434"/>
  <g fill="#fff">
    <path d="M64 24c18.6 0 34.2 12.7 38.7 29.9.1.3.1.6.1.8 0 1.7-1.4 3.1-3.1 3.1H86.5c-1.2 0-2.3-.7-2.8-1.8C80.1 48.6 72.6 44 64 44c-11 0-20 9-20 20s9 20 20 20c8.6 0 16.1-4.6 19.7-12 .5-1.1 1.6-1.8 2.8-1.8h13.2c1.7 0 3.1 1.4 3.1 3.1 0 .3 0 .6-.1.8C98.2 91.3 82.6 104 64 104c-22.1 0-40-17.9-40-40s17.9-40 40-40z"/>
    <circle cx="64" cy="64" r="9.5"/>
  </g>
</svg>
