<svg width="128" height="128" viewBox="0 0 128 128" fill="none" xmlns="http://www.w3.org/2000/svg">
<path d="M4.15271 6.00034C3.55438 5.99262 2.96162 6.11597 2.41604 6.36173C1.87046 6.60748 1.38528 6.96967 0.994579 7.42289C0.603876 7.8761 0.317116 8.40935 0.154432 8.98519C-0.00825225 9.56102 -0.0429162 10.1655 0.0528736 10.7561L17.4567 116.409C17.6735 117.702 18.339 118.877 19.3362 119.728C20.3334 120.579 21.5985 121.051 22.9094 121.062H106.403C107.385 121.075 108.34 120.734 109.092 120.102C109.845 119.47 110.345 118.588 110.502 117.618L127.947 10.7971C128.043 10.2065 128.008 9.60202 127.846 9.02618C127.683 8.45035 127.396 7.9171 127.005 7.46389C126.615 7.01067 126.13 6.64848 125.584 6.40272C125.038 6.15697 124.446 6.03362 123.847 6.04134L4.15271 6.00034ZM77.4372 82.3597H50.7883L43.5726 44.6822H83.8944L77.4372 82.3597Z" fill="#2684FF"/>
<path d="M122.371 44.6822H83.8944L77.4371 82.3597H50.7882L19.322 119.73C20.3194 120.592 21.5909 121.072 22.9094 121.083H106.423C107.406 121.095 108.36 120.754 109.113 120.122C109.865 119.49 110.366 118.609 110.523 117.639L122.371 44.6822Z" fill="url(#paint0_linear_0_425)"/>
<defs>
<linearGradient id="paint0_linear_0_425" x1="131.268" y1="55.2188" x2="67.6795" y2="104.868" gradientUnits="userSpaceOnUse">
<stop offset="0.18" stop-color="#0052CC"/>
<stop offset="1" stop-color="#2684FF"/>
</linearGradient>
</defs>
</svg>
