<svg width="128" height="128" viewBox="0 0 128 128" fill="none" xmlns="http://www.w3.org/2000/svg">
<path d="M27.8824 69.6467C26.939 71.5336 24.2464 71.5336 23.3029 69.6467L21.0466 65.1342C20.6863 64.4135 20.6863 63.5651 21.0466 62.8445L23.3029 58.332C24.2464 56.445 26.939 56.445 27.8824 58.332L30.1387 62.8445C30.4989 63.5651 30.4989 64.4135 30.1387 65.1342L27.8824 69.6467ZM27.8824 95.2392C26.939 97.126 24.2464 97.126 23.3029 95.2392L21.0466 90.7265C20.6863 90.0058 20.6863 89.1575 21.0466 88.4368L23.3029 83.9243C24.2464 82.0373 26.939 82.0373 27.8824 83.9243L30.1387 88.4368C30.4989 89.1575 30.4989 90.0058 30.1387 90.7265L27.8824 95.2392Z" fill="#1D4AFF"/>
<path d="M0 85.5251C0 83.2444 2.75748 82.1021 4.3702 83.7149L16.1037 95.4484C17.7164 97.0612 16.5742 99.8186 14.2935 99.8186H2.56C1.14615 99.8186 0 98.6725 0 97.2586V85.5251ZM0 73.1659C0 73.8448 0.269714 74.4961 0.749806 74.9761L24.8425 99.0687C25.3226 99.5488 25.9738 99.8186 26.6527 99.8186H39.8858C42.1665 99.8186 43.3088 97.0612 41.696 95.4484L4.3702 58.1226C2.75748 56.5098 0 57.6521 0 59.9328V73.1659ZM0 47.5736C0 48.2525 0.269714 48.9037 0.749806 49.3837L50.4348 99.0687C50.9148 99.5488 51.5661 99.8186 52.245 99.8186H65.4781C67.7589 99.8186 68.9011 97.0612 67.2883 95.4484L4.3702 32.5303C2.7575 30.9176 0 32.0598 0 34.3405V47.5736ZM25.5923 47.5736C25.5923 48.2525 25.8621 48.9037 26.3421 49.3837L72.4068 95.4484C74.0196 97.0612 76.777 95.9189 76.777 93.6382V80.4051C76.777 79.7262 76.5071 79.0749 76.0271 78.5949L29.9625 32.5303C28.3497 30.9176 25.5923 32.0598 25.5923 34.3405V47.5736ZM55.5548 32.5303C53.942 30.9176 51.1846 32.0598 51.1846 34.3405V47.5736C51.1846 48.2525 51.4545 48.9037 51.9345 49.3837L72.4068 69.8561C74.0196 71.4689 76.777 70.3266 76.777 68.0459V54.8128C76.777 54.1338 76.5071 53.4826 76.0271 53.0026L55.5548 32.5303Z" fill="#F9BD2B"/>
<path d="M108.863 85.8389L84.7667 61.7423C83.1539 60.1295 80.3965 61.2718 80.3965 63.5525V97.2585C80.3965 98.6724 81.5426 99.8185 82.9565 99.8185H120.283C121.697 99.8185 122.843 98.6724 122.843 97.2585V94.1891C122.843 92.7752 121.692 91.646 120.29 91.4634C115.987 90.9033 111.963 88.9382 108.863 85.8389ZM92.6806 91.6291C90.4204 91.6291 88.5859 89.7946 88.5859 87.5341C88.5859 85.2739 90.4204 83.4394 92.6806 83.4394C94.9411 83.4394 96.7756 85.2739 96.7756 87.5341C96.7756 89.7946 94.9411 91.6291 92.6806 91.6291Z" fill="black"/>
<path d="M0 97.2586C0 98.6725 1.14615 99.8186 2.56 99.8186H14.2935C16.5742 99.8186 17.7164 97.0612 16.1037 95.4484L4.3702 83.7149C2.75748 82.1021 0 83.2444 0 85.5251V97.2586ZM25.5923 53.7524L4.3702 32.5303C2.75748 30.9176 0 32.0597 0 34.3405V47.5736C0 48.2525 0.269714 48.9037 0.749806 49.3837L25.5923 74.2262V53.7524ZM4.3702 58.1226C2.75748 56.5098 0 57.652 0 59.9327V73.1659C0 73.8448 0.269714 74.4961 0.749806 74.9761L25.5923 99.8186V79.3447L4.3702 58.1226Z" fill="#1D4AFF"/>
<path d="M51.1846 54.8127C51.1846 54.1338 50.915 53.4826 50.4348 53.0026L29.9624 32.5303C28.3499 30.9176 25.5923 32.0597 25.5923 34.3405V47.5736C25.5923 48.2525 25.8621 48.9037 26.3421 49.3837L51.1846 74.2262V54.8127ZM25.5923 99.8186H39.8858C42.1665 99.8186 43.3087 97.0612 41.6959 95.4484L25.5923 79.3447V99.8186ZM25.5923 53.7524V73.1659C25.5923 73.8448 25.8621 74.4961 26.3421 74.9761L51.1846 99.8186V80.4051C51.1846 79.7262 50.915 79.0749 50.4348 78.5949L25.5923 53.7524Z" fill="#F54E00"/>
</svg>
