<svg width="128" height="128" viewBox="0 0 128 128" fill="none" xmlns="http://www.w3.org/2000/svg">
<g clip-path="url(#clip0_240_6282)">
<path d="M64 128C99.3461 128 128 99.3461 128 64C128 28.6537 99.3461 0 64 0C28.6537 0 0 28.6537 0 64C0 99.3461 28.6537 128 64 128Z" fill="#2CA01C"/>
<path d="M42.6666 38.4003C28.9138 38.4003 17.7778 49.5506 17.7778 63.2892C17.7778 77.0421 28.9138 88.1781 42.6666 88.1781H46.2225V78.9337H42.6666C34.0338 78.9337 27.0223 71.9221 27.0223 63.2892C27.0223 54.6563 34.0338 47.6448 42.6666 47.6448H51.2145V96.0003C51.2145 101.106 55.3528 105.245 60.4586 105.245V38.4003H42.6666ZM85.346 88.1781C99.0989 88.1781 110.235 77.0275 110.235 63.2892C110.235 49.5363 99.0989 38.4003 85.346 38.4003H81.7901V47.6444H85.346C93.9789 47.6444 100.99 54.6563 100.99 63.2892C100.99 71.9221 93.9789 78.9333 85.346 78.9333H76.7981V30.578C76.7981 25.4722 72.6598 21.3335 67.554 21.3335V88.1781H85.346Z" fill="white"/>
</g>
<defs>
<clipPath id="clip0_240_6282">
<rect width="128" height="128" fill="white"/>
</clipPath>
</defs>
</svg>
