<svg width="128" height="128" viewBox="0 0 128 128" fill="none" xmlns="http://www.w3.org/2000/svg">
<g clip-path="url(#clip0_240_7001)">
<g clip-path="url(#clip1_240_7001)">
<path d="M63.9328 0.873047C28.6086 0.873047 0 29.0787 0 64C0 98.9213 28.6086 127.127 63.9328 127.127C99.2571 127.127 127.866 98.9213 127.866 64C128 29.0787 99.2571 0.873047 63.9328 0.873047Z" fill="#13B5EA"/>
<path d="M46.8752 61.3136C48.084 56.8813 52.1134 53.6578 56.68 53.6578C61.381 53.6578 65.4103 56.747 66.4848 61.3136H46.8752ZM70.1113 64.1342C70.7828 63.3283 71.0515 62.2538 70.7828 61.1793C69.977 57.1499 67.6937 53.9264 64.4702 51.7774C62.1868 50.3 59.5006 49.6284 56.8143 49.6284C53.7251 49.6284 50.9046 50.5686 48.4869 52.3147C44.7262 55.0009 42.4429 59.4332 42.4429 64.1342C42.4429 65.343 42.5772 66.4175 42.8458 67.6263C44.3232 73.2675 49.1585 77.5655 55.0683 78.3713C55.6055 78.5056 56.1428 78.5056 56.8143 78.5056C58.0231 78.5056 59.0976 78.3713 60.3065 78.1027C61.7839 77.4311 63.127 76.7596 64.4702 75.9537C65.679 75.1478 66.8878 74.0733 68.0966 72.4616L68.2309 72.3273C68.6338 71.79 68.7682 71.1185 68.7682 70.5812C68.6338 70.0439 68.3652 69.5067 67.9623 69.2381C67.5593 68.9694 67.0221 68.7008 66.6192 68.7008C66.2162 68.7008 65.5447 68.8351 64.8731 69.641C64.7388 69.9096 64.4701 70.1783 64.2015 70.4469C63.3956 71.3871 62.4555 72.0586 61.381 72.7302C59.9035 73.5361 58.2918 73.939 56.68 73.939C51.4418 73.939 48.3526 70.4469 47.0095 67.2234C46.8752 66.6861 46.7409 66.1489 46.6066 65.6116V65.4773H66.7535C68.2309 65.4773 69.4397 64.9401 70.1113 64.1342Z" fill="white"/>
<path d="M99.5259 59.9705C97.5112 59.9705 95.8994 61.5822 95.8994 63.5969C95.8994 65.6116 97.5112 67.2233 99.5259 67.2233C101.541 67.2233 103.152 65.6116 103.152 63.5969C103.152 61.7165 101.541 59.9705 99.5259 59.9705Z" fill="white"/>
<path d="M86.0943 51.7774C86.0943 50.5686 85.1542 49.7627 83.9453 49.7627H83.4081C81.662 49.7627 79.916 50.2999 78.5728 51.3744C78.3042 50.5686 77.4983 49.897 76.5581 49.897C75.3493 49.897 74.5435 50.8372 74.5435 51.9117V75.8194C74.5435 76.8939 75.4836 77.834 76.5581 77.834C77.767 77.834 78.5728 76.8939 78.5728 75.8194V61.1793C78.5728 56.4783 78.9758 54.4636 83.1395 53.9264C83.5424 53.9264 83.811 53.9264 83.9453 53.9264C85.2885 53.7921 86.0943 52.9862 86.0943 51.7774Z" fill="white"/>
<path d="M31.5636 63.8656L42.3086 53.1206C42.7116 52.7176 42.9802 52.1804 42.9802 51.6431C42.9802 50.4343 42.04 49.6284 40.8312 49.6284C40.2939 49.6284 39.7567 49.897 39.3537 50.3L28.6087 61.045L17.8637 50.3C17.4608 49.897 16.9235 49.7627 16.3863 49.7627C15.1775 49.7627 14.3716 50.7029 14.3716 51.7774C14.3716 52.3147 14.6402 52.8519 15.0431 53.2549L25.7882 63.9999L15.0431 74.7449C14.6402 75.1478 14.3716 75.6851 14.3716 76.2223C14.3716 77.2968 15.3118 78.237 16.3863 78.237C16.9235 78.237 17.4608 77.9684 17.8637 77.6998L28.6087 66.9548L39.3537 77.5655C39.7567 77.9684 40.2939 78.237 40.8312 78.237C42.04 78.237 42.9802 77.2968 42.9802 76.2223C42.9802 75.6851 42.7116 75.1478 42.3086 74.7449L31.5636 63.8656Z" fill="white"/>
<path d="M99.5258 73.6705C94.0189 73.6705 89.4523 69.2381 89.4523 63.597C89.4523 58.0902 94.0189 53.5236 99.5258 53.5236C105.033 53.5236 109.599 57.9559 109.599 63.597C109.599 69.2381 105.033 73.6705 99.5258 73.6705ZM99.5258 49.3599C91.6013 49.3599 85.1543 55.8069 85.1543 63.597C85.1543 71.5215 91.6013 77.8342 99.5258 77.8342C107.45 77.8342 113.897 71.3871 113.897 63.597C113.897 55.8069 107.45 49.3599 99.5258 49.3599Z" fill="white"/>
</g>
</g>
<defs>
<clipPath id="clip0_240_7001">
<rect width="128" height="128" fill="white"/>
</clipPath>
<clipPath id="clip1_240_7001">
<rect width="128" height="126.254" fill="white" transform="translate(0 0.873047)"/>
</clipPath>
</defs>
</svg>
