<svg width="128" height="128" viewBox="0 0 128 128" fill="none" xmlns="http://www.w3.org/2000/svg">
<g clip-path="url(#clip0_240_7106)">
<g clip-path="url(#clip1_240_7106)">
<path d="M117.053 46.8259C117.053 74.499 99.1978 93.4255 73.6671 93.4255C61.5299 93.4255 51.527 88.4241 47.782 82.1743L47.9592 88.6013V128.234H21.8969V25.757C21.8969 24.3315 21.5425 23.969 19.9317 23.969H11V2.19141H32.7857C42.7805 2.19141 45.2853 10.7607 45.994 14.5138C49.9243 7.90965 60.2735 0.234317 74.9154 0.234317C100.092 0.226263 117.053 18.9676 117.053 46.8259ZM90.4513 47.0031C90.4513 32.184 80.8109 22.012 68.6656 22.012C58.6708 22.012 47.4196 28.6161 47.4196 47.1883C47.4196 59.3255 54.2009 72.0023 68.3113 72.0023C78.6685 71.9942 90.4513 64.4961 90.4513 47.0031Z" fill="#017737"/>
</g>
</g>
<defs>
<clipPath id="clip0_240_7106">
<rect width="128" height="128" fill="white"/>
</clipPath>
<clipPath id="clip1_240_7106">
<rect width="128" height="128" fill="white"/>
</clipPath>
</defs>
</svg>
