<svg width="128" height="128" viewBox="0 0 128 128" fill="none" xmlns="http://www.w3.org/2000/svg">
<g clip-path="url(#clip0_0_760)">
<path fill-rule="evenodd" clip-rule="evenodd" d="M0 23.231C0 11.3138 9.71034 1.60345 21.8483 1.60345H105.048C116.966 1.60345 126.897 11.3138 126.897 23.231V93.4103C126.897 105.769 111.007 111.066 103.283 101.355L79.4483 70.6793V107.976C79.4483 118.569 70.6207 127.397 59.5862 127.397H21.8483C9.71034 127.397 0 117.686 0 105.769L0 23.231ZM21.8483 18.8172C19.4207 18.8172 17.4345 20.8035 17.4345 23.231V105.548C17.4345 107.976 19.4207 109.962 21.8483 109.962H60.2483C61.5724 109.962 61.7931 108.859 61.7931 107.755V58.1C61.7931 45.5207 77.6828 40.2241 85.4069 49.9345L109.241 80.6104V23.231C109.241 20.8035 109.462 18.8172 107.034 18.8172H21.8483Z" fill="#32C0ED"/>
<path fill-rule="evenodd" clip-rule="evenodd" d="M0 23.231C0 11.3138 9.71034 1.60345 21.8483 1.60345H105.048C116.966 1.60345 126.897 11.3138 126.897 23.231V93.4103C126.897 105.769 111.007 111.066 103.283 101.355L79.4483 70.6793V107.976C79.4483 118.569 70.6207 127.397 59.5862 127.397H21.8483C9.71034 127.397 0 117.686 0 105.769L0 23.231ZM21.8483 18.8172C19.4207 18.8172 17.4345 20.8035 17.4345 23.231V105.548C17.4345 107.976 19.4207 109.962 21.8483 109.962H60.2483C61.5724 109.962 61.7931 108.859 61.7931 107.755V58.1C61.7931 45.5207 77.6828 40.2241 85.4069 49.9345L109.241 80.6104V23.231C109.241 20.8035 109.462 18.8172 107.034 18.8172H21.8483Z" fill="url(#paint0_linear_0_760)"/>
<path opacity="0.3" fill-rule="evenodd" clip-rule="evenodd" d="M0 23.231C0 11.3138 9.71034 1.60345 21.8483 1.60345H105.048C116.966 1.60345 126.897 11.3138 126.897 23.231V93.4103C126.897 105.769 111.007 111.066 103.283 101.355L79.4483 70.6793V107.976C79.4483 118.569 70.6207 127.397 59.5862 127.397H21.8483C9.71034 127.397 0 117.686 0 105.769L0 23.231ZM21.8483 18.8172C19.4207 18.8172 17.4345 20.8035 17.4345 23.231V105.548C17.4345 107.976 19.4207 109.962 21.8483 109.962H60.2483C61.5724 109.962 61.7931 108.859 61.7931 107.755V58.1C61.7931 45.5207 77.6828 40.2241 85.4069 49.9345L109.241 80.6104V23.231C109.241 20.8035 109.462 18.8172 107.034 18.8172H21.8483Z" fill="url(#paint1_linear_0_760)"/>
<path d="M105.048 1.60345C116.965 1.60345 126.897 11.3138 126.897 23.231V93.4103C126.897 105.769 111.007 111.066 103.283 101.355L79.4483 70.6793V107.976C79.4483 118.569 70.6207 127.397 59.5862 127.397C60.9103 127.397 61.7931 126.514 61.7931 125.19V58.1C61.7931 45.7414 77.6827 40.4448 85.4069 50.1552L109.241 80.831V6.01725C109.241 3.58966 107.255 1.60345 105.048 1.60345Z" fill="#63F655"/>
</g>
<defs>
<linearGradient id="paint0_linear_0_760" x1="127.091" y1="127.397" x2="16.675" y2="0.164846" gradientUnits="userSpaceOnUse">
<stop stop-color="#2EF51C"/>
<stop offset="1" stop-color="#2EF51C" stop-opacity="0"/>
</linearGradient>
<linearGradient id="paint1_linear_0_760" x1="126.81" y1="127.322" x2="51.7518" y2="97.7401" gradientUnits="userSpaceOnUse">
<stop stop-opacity="0.9"/>
<stop offset="1" stop-color="#1A1A1A" stop-opacity="0"/>
</linearGradient>
<clipPath id="clip0_0_760">
<rect width="128" height="125.793" fill="white" transform="translate(0 1.60345)"/>
</clipPath>
</defs>
</svg>
