<svg width="1080" height="280" viewBox="0 0 1080 280" fill="none" xmlns="http://www.w3.org/2000/svg">
<g clip-path="url(#clip0_8631_80194)">
<rect width="1080" height="280" fill="#E8E6DB"/>
<g clip-path="url(#clip1_8631_80194)">
<path d="M686.43 410.688C702.718 410.689 715.924 423.894 715.924 440.183V574.073H1387.97C1404.26 574.074 1417.46 587.279 1417.46 603.567C1417.46 619.856 1404.26 633.061 1387.97 633.062H686.43C670.141 633.061 656.937 619.856 656.937 603.567V440.183C656.937 423.894 670.141 410.689 686.43 410.688ZM485.334 410.684C546.74 410.684 596.519 460.464 596.52 521.87C596.519 538.159 583.314 551.364 567.025 551.364C550.737 551.364 537.532 538.159 537.532 521.87C537.532 493.042 514.162 469.672 485.334 469.672H-103.853C-132.681 469.672 -156.051 493.042 -156.051 521.87C-156.051 538.159 -169.256 551.364 -185.545 551.364C-201.834 551.364 -215.039 538.159 -215.039 521.87C-215.039 460.464 -165.259 410.684 -103.853 410.684H485.334ZM476.254 300.613C492.543 300.613 505.748 313.819 505.748 330.107C505.748 346.396 492.543 359.601 476.254 359.602H-153.196C-169.485 359.602 -182.69 346.396 -182.69 330.107C-182.69 313.819 -169.485 300.613 -153.196 300.613H476.254ZM1218.37 300.613C1234.66 300.613 1247.86 313.819 1247.86 330.107C1247.86 346.396 1234.66 359.601 1218.37 359.602H588.916C572.627 359.602 559.422 346.396 559.422 330.107C559.422 313.819 572.627 300.613 588.916 300.613H1218.37ZM108.907 27.1328C125.196 27.133 138.401 40.338 138.401 56.627V220.012C138.401 236.3 125.196 249.506 108.907 249.506C92.6184 249.506 79.4133 236.301 79.4131 220.012V86.1211H-126.568C-142.857 86.1211 -156.062 72.9159 -156.062 56.627C-156.062 40.3379 -142.857 27.1328 -126.568 27.1328H108.907ZM1287 27.1934C1348.32 27.1934 1398.03 76.9031 1398.03 138.223C1398.03 199.542 1348.32 249.252 1287 249.252H307.645C246.325 249.252 196.615 199.542 196.615 138.223C196.615 76.9031 246.325 27.1934 307.645 27.1934H1287ZM307.645 86.1816C278.903 86.1817 255.604 109.481 255.604 138.223C255.604 166.964 278.903 190.264 307.645 190.264H1287C1315.75 190.264 1339.04 166.964 1339.04 138.223C1339.04 109.481 1315.75 86.1816 1287 86.1816H307.645Z" fill="#F0EFE9"/>
<rect x="298.631" y="190.344" width="57.9866" height="57.9866" rx="28.9933" fill="#FF9B9B"/>
<rect x="75" y="31" width="57.9866" height="57.9866" rx="28.9933" fill="#5BC1C3"/>
<ellipse cx="101.178" cy="47.2381" rx="3.15216" ry="3.12095" fill="white"/>
<ellipse cx="109.707" cy="47.2381" rx="3.15216" ry="3.12095" fill="white"/>
<ellipse cx="101.178" cy="55.6834" rx="3.15216" ry="3.12095" fill="white"/>
<ellipse cx="101.178" cy="64.1288" rx="3.15216" ry="3.12095" fill="white"/>
<ellipse cx="92.6483" cy="55.6834" rx="3.15216" ry="3.12095" fill="#282828"/>
<ellipse cx="92.6483" cy="64.1288" rx="3.15216" ry="3.12095" fill="white"/>
<ellipse cx="101.178" cy="72.5741" rx="3.15216" ry="3.12095" fill="white"/>
<ellipse cx="109.707" cy="55.6834" rx="3.15216" ry="3.12095" fill="white"/>
<ellipse cx="109.707" cy="64.1288" rx="3.15216" ry="3.12095" fill="white"/>
<ellipse cx="118.236" cy="64.1288" rx="3.15216" ry="3.12095" fill="white"/>
<ellipse cx="118.236" cy="55.6834" rx="3.15216" ry="3.12095" fill="#282828"/>
<ellipse cx="109.707" cy="72.5741" rx="3.15216" ry="3.12095" fill="white"/>
<ellipse cx="323.359" cy="209.41" rx="3.15216" ry="3.12095" fill="black"/>
<ellipse cx="331.888" cy="209.41" rx="3.15216" ry="3.12095" fill="black"/>
<ellipse cx="323.359" cy="217.855" rx="3.15216" ry="3.12095" fill="white"/>
<ellipse cx="314.83" cy="234.707" rx="3.15216" ry="3.12095" fill="white"/>
<ellipse cx="314.83" cy="217.855" rx="3.15216" ry="3.12095" fill="white"/>
<ellipse cx="314.83" cy="226.301" rx="3.15216" ry="3.12095" fill="white"/>
<ellipse cx="323.359" cy="234.746" rx="3.15216" ry="3.12095" fill="white"/>
<ellipse cx="331.888" cy="217.855" rx="3.15216" ry="3.12095" fill="white"/>
<ellipse cx="340.379" cy="234.707" rx="3.15216" ry="3.12095" fill="white"/>
<ellipse cx="340.418" cy="226.301" rx="3.15216" ry="3.12095" fill="white"/>
<ellipse cx="340.418" cy="217.855" rx="3.15216" ry="3.12095" fill="white"/>
<ellipse cx="331.888" cy="234.746" rx="3.15216" ry="3.12095" fill="white"/>
<rect x="882" y="27" width="57.9866" height="57.9866" rx="28.9933" fill="#DE84BC"/>
<ellipse cx="3.15216" cy="3.12095" rx="3.15216" ry="3.12095" transform="matrix(1 0 0 -1 904.512 71.8516)" fill="white"/>
<ellipse cx="3.15216" cy="3.12095" rx="3.15216" ry="3.12095" transform="matrix(1 0 0 -1 913.041 71.8516)" fill="white"/>
<ellipse cx="3.15216" cy="3.12095" rx="3.15216" ry="3.12095" transform="matrix(1 0 0 -1 904.512 63.4062)" fill="white"/>
<ellipse cx="3.15216" cy="3.12095" rx="3.15216" ry="3.12095" transform="matrix(1 0 0 -1 904.512 54.9609)" fill="black"/>
<ellipse cx="3.15216" cy="3.12095" rx="3.15216" ry="3.12095" transform="matrix(1 0 0 -1 895.982 71.8125)" fill="white"/>
<ellipse cx="3.15216" cy="3.12095" rx="3.15216" ry="3.12095" transform="matrix(1 0 0 -1 895.982 54.9609)" fill="white"/>
<ellipse cx="3.15216" cy="3.12095" rx="3.15216" ry="3.12095" transform="matrix(1 0 0 -1 904.512 46.5156)" fill="white"/>
<ellipse cx="3.15216" cy="3.12095" rx="3.15216" ry="3.12095" transform="matrix(1 0 0 -1 913.041 63.4062)" fill="white"/>
<ellipse cx="3.15216" cy="3.12095" rx="3.15216" ry="3.12095" transform="matrix(1 0 0 -1 913.041 54.9609)" fill="black"/>
<ellipse cx="3.15216" cy="3.12095" rx="3.15216" ry="3.12095" transform="matrix(1 0 0 -1 921.57 54.9609)" fill="white"/>
<ellipse cx="3.15216" cy="3.12095" rx="3.15216" ry="3.12095" transform="matrix(1 0 0 -1 921.57 71.8125)" fill="white"/>
<ellipse cx="3.15216" cy="3.12095" rx="3.15216" ry="3.12095" transform="matrix(1 0 0 -1 913.041 46.5156)" fill="white"/>
</g>
</g>
<defs>
<clipPath id="clip0_8631_80194">
<rect width="1080" height="280" fill="white"/>
</clipPath>
<clipPath id="clip1_8631_80194">
<rect width="1080" height="632.936" fill="white" transform="translate(0 15)"/>
</clipPath>
</defs>
</svg>
