<svg width="128" height="128" viewBox="0 0 128 128" fill="none" xmlns="http://www.w3.org/2000/svg">
<path d="M59.1236 40.6152V111.996H0L59.1236 40.6152ZM59.1236 15C59.1236 22.8403 56.0091 30.3594 50.4652 35.9034C44.9213 41.4473 37.4021 44.5618 29.5618 44.5618C21.7215 44.5618 14.2024 41.4473 8.65846 35.9034C3.11454 30.3594 0 22.8403 0 15L59.1236 15ZM68.8637 112.002C68.8637 104.162 71.9783 96.643 77.5222 91.0991C83.0661 85.5552 90.5853 82.4407 98.4255 82.4407C106.266 82.4407 113.785 85.5552 119.329 91.0991C124.873 96.643 127.987 104.162 127.987 112.002H68.8637ZM68.8637 86.3873V15H128L68.8637 86.381V86.3873Z" fill="#03363D"/>
</svg>
