<svg width="128" height="128" viewBox="0 0 128 128" fill="none" xmlns="http://www.w3.org/2000/svg">
<g clip-path="url(#clip0_0_1116)">
<path d="M15.808 102.332C10.3358 102.332 4.86356 99.2917 1.82344 94.4275C-1.21669 89.5633 -0.608661 83.4831 2.43146 78.6189L31.0086 33.625C34.0488 28.7608 39.521 25.7207 44.9932 25.7207C50.4654 25.7207 55.9377 29.3689 58.9778 34.2331C61.4099 39.0973 61.4099 45.1775 58.3698 50.0417L29.7926 95.0356C26.7525 99.2917 21.2802 102.332 15.808 102.332Z" fill="#F62B54"/>
<path d="M65.0581 102.332C58.9778 102.332 54.1136 99.2917 51.0735 94.4275C48.6414 88.9553 48.6414 82.8751 51.6815 78.0109L80.2587 33.017C83.2988 28.1528 88.7711 25.1127 94.2433 25.1127C100.324 25.1127 105.188 28.7608 108.228 33.625C110.66 38.4892 110.66 44.5695 107.012 49.4337L78.4346 94.4275C75.3945 99.2917 70.5303 102.332 65.0581 102.332Z" fill="#FFCC00"/>
<path d="M113.092 102.94C121.151 102.94 127.685 96.4065 127.685 88.3472C127.685 80.288 121.151 73.7546 113.092 73.7546C105.033 73.7546 98.4995 80.288 98.4995 88.3472C98.4995 96.4065 105.033 102.94 113.092 102.94Z" fill="#00CA72"/>
</g>
<defs>
<clipPath id="clip0_0_1116">
<rect width="128" height="77.162" fill="white" transform="translate(0 25.419)"/>
</clipPath>
</defs>
</svg>
