<svg width="128" height="128" viewBox="0 0 128 128" fill="none" xmlns="http://www.w3.org/2000/svg">
<g clip-path="url(#clip0_0_968)">
<g clip-path="url(#clip1_0_968)">
<path d="M0.801758 73.4864C2.67232 87.1148 9.08568 99.4071 18.7057 109.294L40.3508 87.6492C40.3508 64.668 52.3759 43.8246 72.1504 32.0668L0.801758 73.4864Z" fill="#9B65C3"/>
<path d="M40.618 87.3821C29.3947 87.3821 18.4385 84.4426 8.81846 78.8309C6.14622 77.2276 3.47399 75.357 0.801758 73.4865C2.67232 87.1148 9.08568 99.4071 18.7057 109.294L40.618 87.3821Z" fill="#9B65C3"/>
<path d="M40.6179 87.382L18.7056 109.294C28.5928 119.182 40.8851 125.328 54.2463 127.198L95.6659 55.5825C84.4425 75.0898 63.3319 87.382 40.6179 87.382Z" fill="#BE63C5"/>
<path d="M49.169 119.449C43.5573 109.562 40.6179 98.8727 40.6179 87.6493L18.7056 109.294C28.5928 119.182 40.8851 125.328 54.2463 127.198C52.6429 124.526 50.7724 122.121 49.169 119.449Z" fill="#BF63C6"/>
<path d="M122.121 3.47388L72.4175 31.7996C52.643 43.0229 28.5929 43.0229 8.55115 31.7996C2.93946 41.6868 0 52.9102 0 64.1336C0 67.073 0.267223 70.5469 0.80167 73.4864C3.4739 75.357 6.14614 77.2275 8.81837 78.8309C18.7056 84.4426 29.3946 87.382 40.618 87.382L123.19 4.80999C122.656 4.54277 122.388 4.00832 122.121 3.47388Z" fill="#3278B1"/>
<path d="M8.55124 78.8309C18.4385 84.4426 29.1274 87.382 40.3508 87.382C40.3508 64.4008 52.3759 43.5574 72.1504 31.7996L0.801758 73.2192C3.47399 75.357 5.879 77.2275 8.55124 78.8309Z" fill="#3278B2"/>
<path d="M8.55115 31.7996C2.93946 41.6868 0 52.9102 0 64.1336C0 67.073 0.267223 70.547 0.80167 73.4864L72.4175 31.7996C52.9102 43.5574 28.5929 43.5574 8.55115 31.7996Z" fill="#45A4EC"/>
<path d="M123.19 4.81002C122.121 3.74113 121.32 2.93946 120.251 2.13779C117.846 0.80167 114.906 0 112.234 0H63.8665C40.8853 0 19.7747 12.2923 8.55127 31.7996C28.3258 43.023 52.3759 43.023 72.4177 31.7996C52.6431 43.023 40.6181 64.4008 40.6181 87.382C63.5993 87.382 84.4427 75.357 96.2005 55.5825L124.526 5.87891C123.992 5.61169 123.457 5.34447 123.19 4.81002Z" fill="#19BB7D"/>
<path d="M72.4177 31.7996L122.121 3.47388C121.32 3.20666 121.052 2.40499 120.251 1.87054L8.55127 31.7996C28.593 43.5574 52.9103 43.5574 72.4177 31.7996Z" fill="#08C7FB"/>
<path d="M111.967 0H63.8665C40.8853 0 19.7747 12.2923 8.55127 31.7996L120.251 1.87056C117.578 0.80167 114.906 0 111.967 0Z" fill="#59F2F6"/>
<path d="M96.2005 55.5825L124.526 5.87891C124.259 5.61169 123.725 5.07724 123.457 4.27557L40.8853 87.1148C40.8853 98.3382 43.8247 109.294 49.4364 118.914C51.0397 121.587 52.9103 124.259 54.7809 126.931C57.7203 127.198 60.6598 127.733 63.8665 127.733C75.0898 127.733 86.046 124.793 95.666 119.182C84.4427 99.4071 84.4427 75.0898 96.2005 55.5825Z" fill="#DA3757"/>
<path d="M40.6182 87.382C40.6182 98.6054 43.5576 109.562 49.1693 119.182C50.7727 121.854 52.6432 124.526 54.5138 127.198L95.9334 55.5825C84.4428 75.0898 63.3321 87.382 40.6182 87.382Z" fill="#D33C4E"/>
<path d="M96.2004 55.5825L54.7808 127.198C57.7202 127.466 60.6597 128 64.1336 128C75.357 128 86.3131 125.061 95.9332 119.449C84.4426 99.4071 84.4426 75.0898 96.2004 55.5825Z" fill="#EE5A24"/>
<path d="M125.862 8.01667C124.794 6.14611 123.725 4.54277 122.121 3.47388L72.4177 31.7996C52.6432 43.0229 40.6182 64.4008 40.6182 87.382C63.5994 87.382 84.4428 75.357 96.2006 55.5824C84.9772 75.357 84.9772 99.4071 96.2006 119.449C115.708 108.225 128 87.1148 128 64.668V16.0334C128 13.0939 127.199 10.4217 125.862 8.01667Z" fill="#8BDF55"/>
<path d="M122.121 3.47388L72.4177 31.7996C52.6432 43.0229 40.6182 64.4008 40.6182 87.382L123.19 4.80999C122.656 4.54277 122.389 3.7411 122.121 3.47388Z" fill="#25C16F"/>
<path d="M40.6182 87.382C63.5994 87.382 84.4428 75.357 96.2006 55.5825L124.526 5.87891C124.259 5.61169 123.725 5.07724 123.457 4.27557L40.6182 87.382Z" fill="#8BDF55"/>
<path d="M124.526 5.87891L96.2003 55.5824C84.9769 75.357 84.9769 99.4071 96.2003 119.449L126.129 8.01669C125.328 7.21502 125.06 6.68058 124.526 5.87891Z" fill="#FFBB00"/>
<path d="M96.2002 119.449C115.975 108.225 128 87.1148 128 64.1336V16.0334C128 13.0939 127.198 10.4217 125.862 7.74945L96.2002 119.449Z" fill="#FFA800"/>
</g>
</g>
<defs>
<clipPath id="clip0_0_968">
<rect width="128" height="128" fill="white"/>
</clipPath>
<clipPath id="clip1_0_968">
<rect width="128" height="128" fill="white"/>
</clipPath>
</defs>
</svg>
