<svg width="128" height="128" viewBox="0 0 128 128" fill="none" xmlns="http://www.w3.org/2000/svg">
<path d="M112.152 115.656V122.68C112.152 126.088 110.254 128 106.828 128H20.3232C16.9128 128 15 126.103 15 122.68V115.656C15 112.248 16.898 110.336 20.3232 110.336H106.843C110.254 110.336 112.166 112.233 112.166 115.656H112.152ZM106.25 62.5179L83.6972 49.5077C82.9556 49.0779 82.9556 48.0258 83.6972 47.5962L106.25 34.5858C108.801 33.1187 109.66 29.8587 108.193 27.3248L104.679 21.2494C103.211 18.7006 99.9632 17.8412 97.4132 19.3082L74.8597 32.3185C74.1187 32.7483 73.1991 32.2148 73.1991 31.3702V5.31976C73.1991 2.38573 70.8119 0 67.8759 0H60.8476C57.9116 0 55.5244 2.38573 55.5244 5.31976V31.3554C55.5244 32.2 54.6051 32.7334 53.8637 32.3038L31.3106 19.2933C28.7602 17.8263 25.5129 18.7006 24.045 21.2345L20.5308 27.31C19.0628 29.8587 19.9377 33.1039 22.4732 34.5709L45.0263 47.5813C45.7677 48.0111 45.7677 49.0632 45.0263 49.4929L22.4732 62.5031C19.9228 63.9702 19.0628 67.2155 20.5308 69.7644L24.045 75.8395C25.5129 78.3884 28.7602 79.2481 31.3106 77.781L53.8637 64.7705C54.6051 64.3407 55.5244 64.8744 55.5244 65.7187V91.7545C55.5244 94.6887 57.9116 97.0743 60.8476 97.0743H67.8759C70.8119 97.0743 73.1991 94.6887 73.1991 91.7545V65.7187C73.1991 64.8744 74.1187 64.3407 74.8597 64.7705L97.4132 77.781C99.9632 79.2481 103.211 78.3735 104.679 75.8395L108.193 69.7644C109.66 67.2155 108.786 63.9702 106.25 62.5031V62.5179Z" fill="#7379FD"/>
</svg>
