<svg width="130" height="128" viewBox="0 0 130 128" fill="none" xmlns="http://www.w3.org/2000/svg">
<g clip-path="url(#clip0_8608_80109)">
<path fill-rule="evenodd" clip-rule="evenodd" d="M0 96H65.3845L129.374 32H0V96Z" fill="url(#paint0_linear_8608_80109)"/>
<path fill-rule="evenodd" clip-rule="evenodd" d="M76.7751 44.0305L64.04 44.0226V74.3028L52.9153 44.0226H41.8847L32.386 69.3453C31.3746 62.9603 24.7697 60.7555 19.5735 59.1025C16.1423 58.0007 12.5018 56.38 12.5354 54.5889C12.5639 53.1185 14.4883 51.7528 18.3007 51.9583C20.8638 52.0942 23.1236 52.3009 27.6215 54.47L32.0456 46.7658C27.9396 44.6771 22.2671 43.3566 17.619 43.3516H17.592C12.1718 43.3516 7.65412 45.1078 4.85412 48.0022C2.90243 50.0236 1.85114 52.5908 1.80722 55.4309C1.736 59.3381 3.1691 62.1108 6.17992 64.3213C8.72235 66.1861 11.9738 67.3939 14.8397 68.2824C18.3754 69.3779 21.2607 70.3298 21.2271 72.3614C21.2011 73.1003 20.9206 73.7895 20.3892 74.3495C19.5086 75.2584 18.1542 75.6 16.2844 75.6352C12.6775 75.7114 10.0017 75.1461 5.74008 72.6281L1.80722 80.4408C6.05694 82.8581 11.0891 84.2755 16.2235 84.2755L16.8842 84.268C21.3539 84.1876 24.9611 82.9139 27.8424 80.5936C28.0077 80.4631 28.1564 80.3285 28.3092 80.193L27.0314 83.6044H38.6L40.5416 77.6995C42.5736 78.3941 44.8858 78.7778 47.342 78.7778C49.7319 78.7778 51.9835 78.4107 53.9791 77.7575L55.8505 83.6044H74.717V71.3789H78.8309C88.7779 71.3789 94.6602 66.3131 94.6602 57.8253C94.6602 48.3699 88.9445 44.0311 76.7744 44.0311L76.7751 44.0305ZM47.3426 69.9401C45.8565 69.9401 44.4635 69.6803 43.2623 69.2264L47.2987 56.4913H47.3752L51.3417 69.2625C50.1492 69.6857 48.7886 69.9401 47.3429 69.9401H47.3426ZM77.5227 62.6228H74.7177V52.3605H77.5227C81.2645 52.3605 84.248 53.6032 84.248 57.4237C84.248 61.3773 81.2645 62.6228 77.5227 62.6228Z" fill="white"/>
</g>
<defs>
<linearGradient id="paint0_linear_8608_80109" x1="64.6871" y1="32" x2="64.6871" y2="96" gradientUnits="userSpaceOnUse">
<stop stop-color="#00B1EB"/>
<stop offset="0.212" stop-color="#009AD9"/>
<stop offset="0.519" stop-color="#007FC4"/>
<stop offset="0.792" stop-color="#006EB8"/>
<stop offset="1" stop-color="#0069B4"/>
</linearGradient>
<clipPath id="clip0_8608_80109">
<rect width="129.374" height="64" fill="white" transform="translate(0 32)"/>
</clipPath>
</defs>
</svg>
