<svg width="128" height="128" viewBox="0 0 128 128" fill="none" xmlns="http://www.w3.org/2000/svg">
  <rect width="128" height="128" rx="24" fill="#0A6ED1"/>
  <path d="M24 34H104L88 94H24V34Z" fill="#FFFFFF"/>
  <path d="M33 80L40 48H50C56 48 60 51 60 56C60 60 57 64 52 65C56 66 58 69 58 73C58 78 54 80 48 80H33ZM43 61H48C51 61 53 59 53 56C53 54 51 53 48 53H45L43 61ZM40 75H47C50 75 52 73 52 70C52 68 50 66 47 66H42L40 75Z" fill="#0A6ED1"/>
  <path d="M60 80L67 48H78C85 48 89 52 89 58C89 66 83 70 75 70H70L68 80H60ZM72 64H76C80 64 82 62 82 58C82 55 80 53 76 53H73L72 64Z" fill="#0A6ED1"/>
  <path d="M88 80L95 48H102L95 80H88Z" fill="#0A6ED1"/>
</svg>
