<svg width="128" height="128" viewBox="0 0 128 128" fill="none" xmlns="http://www.w3.org/2000/svg">
<g clip-path="url(#clip0_240_6563)">
<g clip-path="url(#clip1_240_6563)">
<path d="M38.0146 59.1266C36.0729 56.9907 33.1606 57.1849 31.8012 59.7093L0.344616 122.622C-0.820405 125.147 0.927179 128.059 3.64561 128.059H47.3352C48.6948 128.059 50.0538 127.283 50.6365 125.923C60.1508 106.506 54.5199 76.7967 38.0146 59.1266Z" fill="url(#paint0_linear_240_6563)"/>
<path d="M60.9302 2.03887C43.4544 29.8061 44.6197 60.6804 56.0757 83.7872C67.7264 106.894 76.4643 124.758 77.2412 125.924C77.8239 127.283 79.1829 128.059 80.542 128.059H124.232C126.95 128.059 128.892 125.147 127.533 122.622C127.533 122.622 68.6975 4.95152 67.1437 2.03887C65.9789 -0.679622 62.6777 -0.679622 60.9302 2.03887Z" fill="#2684FF"/>
</g>
</g>
<defs>
<linearGradient id="paint0_linear_240_6563" x1="55.1799" y1="68.8586" x2="22.028" y2="126.28" gradientUnits="userSpaceOnUse">
<stop stop-color="#0052CC"/>
<stop offset="0.9228" stop-color="#2684FF"/>
</linearGradient>
<clipPath id="clip0_240_6563">
<rect width="128" height="128" fill="white"/>
</clipPath>
<clipPath id="clip1_240_6563">
<rect width="128" height="128" fill="white"/>
</clipPath>
</defs>
</svg>
