<svg width="128" height="128" viewBox="0 0 128 128" fill="none" xmlns="http://www.w3.org/2000/svg">
<path fill-rule="evenodd" clip-rule="evenodd" d="M100.178 18.2916C110.719 25.5446 118.853 35.7754 123.536 47.6787C128.227 59.5739 129.247 72.6031 126.473 85.0856C123.699 97.5682 117.262 108.941 107.977 117.744C106.892 118.797 105.628 119.653 104.241 120.257C102.854 120.869 101.369 121.228 99.8596 121.31C98.3503 121.399 96.8328 121.22 95.3887 120.771C93.9447 120.331 92.5904 119.637 91.3829 118.715C87.4505 115.786 83.0775 113.51 78.4271 111.976C73.7686 110.434 68.9061 109.651 64.0028 109.651C59.0995 109.651 54.2289 110.434 49.5785 111.976C44.9282 113.51 40.547 115.786 36.6146 118.715C35.4234 119.629 34.0854 120.331 32.6495 120.779C31.2136 121.228 29.7125 121.416 28.2113 121.334C26.7101 121.261 25.2334 120.918 23.8546 120.322C22.4758 119.727 21.2113 118.895 20.118 117.859C10.7683 109.023 4.28229 97.5845 1.50838 85.0204C-1.26552 72.4562 -0.196754 59.3536 4.57599 47.4095C9.34874 35.4572 17.597 25.2182 28.2602 18.0142C38.9235 10.8102 51.5039 6.96757 64.3781 7.00021C77.1707 7.10627 89.637 11.0468 100.178 18.2916ZM76.3712 101.019C80.3036 99.4528 83.877 97.1032 86.8712 94.1171C89.8654 91.123 92.2151 87.5577 93.7815 83.6252C95.348 79.701 96.0985 75.4912 95.9843 71.2651C95.9843 62.7883 92.6148 54.6624 86.6183 48.6659C80.6218 42.6694 72.4877 39.2999 64.0028 39.2999C55.5179 39.2999 47.3839 42.6694 41.3873 48.6659C35.3908 54.6624 32.0213 62.7883 32.0213 71.2651C31.9071 75.4912 32.6577 79.701 34.2241 83.6252C35.7906 87.5577 38.1402 91.123 41.1344 94.1171C44.1286 97.1032 47.7021 99.4528 51.6263 101.019C55.5587 102.586 59.7685 103.336 64.0028 103.222C68.2289 103.336 72.4388 102.586 76.3712 101.019Z" fill="#62D84E"/>
</svg>
