<svg width="128" height="128" viewBox="0 0 128 128" fill="none" xmlns="http://www.w3.org/2000/svg">
<g clip-path="url(#clip0_240_7254)">
<path fill-rule="evenodd" clip-rule="evenodd" d="M64.8496 6.4716C51.9773 6.44474 39.3938 10.2854 28.7303 17.4956C18.0669 24.7058 9.81525 34.9531 5.04525 46.909C0.275257 58.865 -0.79315 71.9781 1.97853 84.5485C4.75021 97.1189 11.2341 108.567 20.5898 117.408C22.7842 119.498 25.6541 120.733 28.6802 120.89C31.7063 121.047 34.6886 120.116 37.0876 118.265C45.0028 112.374 54.6063 109.193 64.4727 109.193C74.3391 109.193 83.9426 112.374 91.8577 118.265C94.2798 120.12 97.288 121.043 100.334 120.865C103.379 120.688 106.26 119.421 108.45 117.297C117.732 108.488 124.173 97.1083 126.945 84.6157C129.718 72.1232 128.697 59.0872 124.013 47.1787C119.328 35.2703 111.195 25.0321 100.654 17.7764C90.113 10.5208 77.6456 6.57836 64.8496 6.45447M64.4727 102.76C60.242 102.875 56.0323 102.126 52.1006 100.56C48.1688 98.9933 44.5974 96.6422 41.6043 93.65C38.6113 90.6577 36.2593 87.087 34.6919 83.1556C33.1245 79.2243 32.3745 75.0148 32.4877 70.7841C32.4877 62.3012 35.8576 54.1657 41.8559 48.1673C47.8543 42.169 55.9898 38.7992 64.4727 38.7992C72.9556 38.7992 81.0911 42.169 87.0894 48.1673C93.0878 54.1657 96.4576 62.3012 96.4576 70.7841C96.5709 75.0148 95.8209 79.2243 94.2535 83.1556C92.6861 87.087 90.3341 90.6577 87.341 93.65C84.348 96.6422 80.7765 98.9933 76.8448 100.56C72.913 102.126 68.7034 102.875 64.4727 102.76Z" fill="#62D84E"/>
</g>
<defs>
<clipPath id="clip0_240_7254">
<rect width="128" height="128" fill="white"/>
</clipPath>
</defs>
</svg>
