<svg width="128" height="128" viewBox="0 0 128 128" fill="none" xmlns="http://www.w3.org/2000/svg">
<mask id="mask0_240_6737" style="mask-type:luminance" maskUnits="userSpaceOnUse" x="0" y="18" width="120" height="92">
<path d="M86.9695 18.001C82.5159 17.9608 78.1289 19.0834 74.2421 21.258C70.2316 23.2813 66.7447 26.2067 64.0554 29.8047L51.1431 64.4531C50.9171 65.7476 50.6163 67.0279 50.2422 68.2876C50.0574 69.0036 49.8726 69.558 49.6878 70.274C48.6113 73.8598 47.339 77.3839 45.8765 80.8303C44.7678 82.8168 43.1508 85.196 40.2404 84.6416L39.1316 84.0872C37.3114 82.7172 35.8722 80.9042 34.9507 78.8207C32.4857 74.2612 30.5335 69.4426 29.1298 64.4531C27.3152 58.2141 26.04 51.8307 25.3184 45.3733C25.3073 42.43 24.5098 39.5432 23.0085 37.0115C22.0202 35.6881 20.7799 34.5733 19.3589 33.7314C17.4915 32.609 15.3689 31.981 13.1914 31.9067C10.8592 31.8467 8.54655 32.3457 6.44654 33.3619C4.50185 34.4355 2.90032 36.037 1.82675 37.9817C0.596155 39.8686 -0.0395805 42.0816 0.00190871 44.3339C0.03898 45.1912 0.162815 46.0425 0.371501 46.8748C1.08757 54.1509 4.1828 76.7187 14.5542 93.8119C14.5542 93.8119 23.1009 110.351 41.4646 109.981C45.8788 109.865 50.2175 108.81 54.1921 106.886C58.1934 105.015 61.687 102.211 64.3787 98.7089L71.8397 82.17L77.2911 64.7072L77.8224 61.9815C78.8968 57.378 80.3572 52.8731 82.1881 48.5148C82.7681 46.716 83.8404 45.1156 85.2834 43.8951L85.4681 43.7102C86.112 43.3935 86.8355 43.2749 87.5468 43.3695C88.2582 43.464 88.9255 43.7675 89.4643 44.2415C90.1458 44.7135 90.7075 45.3385 91.1043 46.0664C91.6587 46.7824 92.0051 47.5216 92.5595 48.2377C93.4417 49.7189 94.2137 51.263 94.8694 52.8575C95.4294 54.1534 96.1018 55.3978 96.879 56.5764C96.928 56.5764 96.9751 56.5958 97.0097 56.6305C97.0444 56.6652 97.0638 56.7121 97.0638 56.7611C98.3079 58.1043 99.7876 59.2081 101.43 60.0181C103.045 60.8925 104.86 61.3305 106.696 61.2886C108.376 61.275 110.041 60.9701 111.616 60.3877C113.192 59.7947 114.619 58.8644 115.797 57.662C116.866 56.38 117.781 54.9768 118.523 53.4811C119.076 51.8977 119.38 50.2378 119.424 48.561C119.425 46.7498 119.056 44.9574 118.338 43.2945C118.338 43.2945 113.418 30.5669 104.871 24.1916C99.7638 20.185 93.461 18.0054 86.9695 18.001Z" fill="white"/>
</mask>
<g mask="url(#mask0_240_6737)">
<path d="M102.544 -23.5441L-32.2446 30.9415L16.6315 151.853L151.42 97.3677L102.544 -23.5441Z" fill="url(#paint0_linear_240_6737)"/>
</g>
<mask id="mask1_240_6737" style="mask-type:luminance" maskUnits="userSpaceOnUse" x="0" y="18" width="120" height="92">
<path d="M86.9695 18.001C82.5159 17.9608 78.1289 19.0834 74.2421 21.258C70.2316 23.2813 66.7447 26.2067 64.0554 29.8047L51.1431 64.4531C50.9171 65.7476 50.6163 67.0279 50.2422 68.2876C50.0574 69.0036 49.8726 69.558 49.6878 70.274C48.6113 73.8598 47.339 77.3839 45.8765 80.8303C44.7678 82.8168 43.1508 85.196 40.2404 84.6416L39.1316 84.0872C37.3114 82.7172 35.8722 80.9042 34.9507 78.8207C32.4857 74.2612 30.5335 69.4426 29.1298 64.4531C27.3152 58.2141 26.04 51.8307 25.3184 45.3733C25.3073 42.43 24.5098 39.5432 23.0085 37.0115C22.0202 35.6881 20.7799 34.5733 19.3589 33.7314C17.4915 32.609 15.3689 31.981 13.1914 31.9067C10.8592 31.8467 8.54655 32.3457 6.44654 33.3619C4.50185 34.4355 2.90032 36.037 1.82675 37.9817C0.596155 39.8686 -0.0395805 42.0816 0.00190871 44.3339C0.03898 45.1912 0.162815 46.0425 0.371501 46.8748C1.08757 54.1509 4.1828 76.7187 14.5542 93.8119C14.5542 93.8119 23.1009 110.351 41.4646 109.981C45.8788 109.865 50.2175 108.81 54.1921 106.886C58.1934 105.015 61.687 102.211 64.3787 98.7089L71.8397 82.17L77.2911 64.7072L77.8224 61.9815C78.8968 57.378 80.3572 52.8731 82.1881 48.5148C82.7681 46.716 83.8404 45.1156 85.2834 43.8951L85.4681 43.7102C86.112 43.3935 86.8355 43.2749 87.5468 43.3695C88.2582 43.464 88.9255 43.7675 89.4643 44.2415C90.1458 44.7135 90.7075 45.3385 91.1043 46.0664C91.6587 46.7824 92.0051 47.5216 92.5595 48.2377C93.4417 49.7189 94.2137 51.263 94.8694 52.8575C95.4294 54.1534 96.1018 55.3978 96.879 56.5764C96.928 56.5764 96.9751 56.5958 97.0097 56.6305C97.0444 56.6652 97.0638 56.7121 97.0638 56.7611C98.3079 58.1043 99.7876 59.2081 101.43 60.0181C103.045 60.8925 104.86 61.3305 106.696 61.2886C108.376 61.275 110.041 60.9701 111.616 60.3877C113.192 59.7947 114.619 58.8644 115.797 57.662C116.866 56.38 117.781 54.9768 118.523 53.4811C119.076 51.8977 119.38 50.2378 119.424 48.561C119.425 46.7498 119.056 44.9574 118.338 43.2945C118.338 43.2945 113.418 30.5669 104.871 24.1916C99.7638 20.185 93.461 18.0054 86.9695 18.001Z" fill="white"/>
</mask>
<g mask="url(#mask1_240_6737)">
<path d="M110.591 -13.1023L-24.1797 24.7292L8.5827 141.442L143.353 103.61L110.591 -13.1023Z" fill="url(#paint1_radial_240_6737)"/>
</g>
<mask id="mask2_240_6737" style="mask-type:luminance" maskUnits="userSpaceOnUse" x="0" y="18" width="120" height="92">
<path d="M86.9695 18.001C82.5159 17.9608 78.1289 19.0834 74.2421 21.258C70.2316 23.2813 66.7447 26.2067 64.0554 29.8047L51.1431 64.4531C50.9171 65.7476 50.6163 67.0279 50.2422 68.2876C50.0574 69.0036 49.8726 69.558 49.6878 70.274C48.6113 73.8598 47.339 77.3839 45.8765 80.8303C44.7678 82.8168 43.1508 85.196 40.2404 84.6416L39.1316 84.0872C37.3114 82.7172 35.8722 80.9042 34.9507 78.8207C32.4857 74.2612 30.5335 69.4426 29.1298 64.4531C27.3152 58.2141 26.04 51.8307 25.3184 45.3733C25.3073 42.43 24.5098 39.5432 23.0085 37.0115C22.0202 35.6881 20.7799 34.5733 19.3589 33.7314C17.4915 32.609 15.3689 31.981 13.1914 31.9067C10.8592 31.8467 8.54655 32.3457 6.44654 33.3619C4.50185 34.4355 2.90032 36.037 1.82675 37.9817C0.596155 39.8686 -0.0395805 42.0816 0.00190871 44.3339C0.03898 45.1912 0.162815 46.0425 0.371501 46.8748C1.08757 54.1509 4.1828 76.7187 14.5542 93.8119C14.5542 93.8119 23.1009 110.351 41.4646 109.981C45.8788 109.865 50.2175 108.81 54.1921 106.886C58.1934 105.015 61.687 102.211 64.3787 98.7089L71.8397 82.17L77.2911 64.7072L77.8224 61.9815C78.8968 57.378 80.3572 52.8731 82.1881 48.5148C82.7681 46.716 83.8404 45.1156 85.2834 43.8951L85.4681 43.7102C86.112 43.3935 86.8355 43.2749 87.5468 43.3695C88.2582 43.464 88.9255 43.7675 89.4643 44.2415C90.1458 44.7135 90.7075 45.3385 91.1043 46.0664C91.6587 46.7824 92.0051 47.5216 92.5595 48.2377C93.4417 49.7189 94.2137 51.263 94.8694 52.8575C95.4294 54.1534 96.1018 55.3978 96.879 56.5764C96.928 56.5764 96.9751 56.5958 97.0097 56.6305C97.0444 56.6652 97.0638 56.7121 97.0638 56.7611C98.3079 58.1043 99.7876 59.2081 101.43 60.0181C103.045 60.8925 104.86 61.3305 106.696 61.2886C108.376 61.275 110.041 60.9701 111.616 60.3877C113.192 59.7947 114.619 58.8644 115.797 57.662C116.866 56.38 117.781 54.9768 118.523 53.4811C119.076 51.8977 119.38 50.2378 119.424 48.561C119.425 46.7498 119.056 44.9574 118.338 43.2945C118.338 43.2945 113.418 30.5669 104.871 24.1916C99.7638 20.185 93.461 18.0054 86.9695 18.001Z" fill="white"/>
</mask>
<g mask="url(#mask2_240_6737)">
<path d="M-0.0451112 15.6437L-1.94678 110.377L119.321 112.811L121.223 18.078L-0.0451112 15.6437Z" fill="url(#paint2_radial_240_6737)"/>
</g>
<mask id="mask3_240_6737" style="mask-type:luminance" maskUnits="userSpaceOnUse" x="0" y="18" width="120" height="92">
<path d="M86.9695 18.001C82.5159 17.9608 78.1289 19.0834 74.2421 21.258C70.2316 23.2813 66.7447 26.2067 64.0554 29.8047L51.1431 64.4531C50.9171 65.7476 50.6163 67.0279 50.2422 68.2876C50.0574 69.0036 49.8726 69.558 49.6878 70.274C48.6113 73.8598 47.339 77.3839 45.8765 80.8303C44.7678 82.8168 43.1508 85.196 40.2404 84.6416L39.1316 84.0872C37.3114 82.7172 35.8722 80.9042 34.9507 78.8207C32.4857 74.2612 30.5335 69.4426 29.1298 64.4531C27.3152 58.2141 26.04 51.8307 25.3184 45.3733C25.3073 42.43 24.5098 39.5432 23.0085 37.0115C22.0202 35.6881 20.7799 34.5733 19.3589 33.7314C17.4915 32.609 15.3689 31.981 13.1914 31.9067C10.8592 31.8467 8.54655 32.3457 6.44654 33.3619C4.50185 34.4355 2.90032 36.037 1.82675 37.9817C0.596155 39.8686 -0.0395805 42.0816 0.00190871 44.3339C0.03898 45.1912 0.162815 46.0425 0.371501 46.8748C1.08757 54.1509 4.1828 76.7187 14.5542 93.8119C14.5542 93.8119 23.1009 110.351 41.4646 109.981C45.8788 109.865 50.2175 108.81 54.1921 106.886C58.1934 105.015 61.687 102.211 64.3787 98.7089L71.8397 82.17L77.2911 64.7072L77.8224 61.9815C78.8968 57.378 80.3572 52.8731 82.1881 48.5148C82.7681 46.716 83.8404 45.1156 85.2834 43.8951L85.4681 43.7102C86.112 43.3935 86.8355 43.2749 87.5468 43.3695C88.2582 43.464 88.9255 43.7675 89.4643 44.2415C90.1458 44.7135 90.7075 45.3385 91.1043 46.0664C91.6587 46.7824 92.0051 47.5216 92.5595 48.2377C93.4417 49.7189 94.2137 51.263 94.8694 52.8575C95.4294 54.1534 96.1018 55.3978 96.879 56.5764C96.928 56.5764 96.9751 56.5958 97.0097 56.6305C97.0444 56.6652 97.0638 56.7121 97.0638 56.7611C98.3079 58.1043 99.7876 59.2081 101.43 60.0181C103.045 60.8925 104.86 61.3305 106.696 61.2886C108.376 61.275 110.041 60.9701 111.616 60.3877C113.192 59.7947 114.619 58.8644 115.797 57.662C116.866 56.38 117.781 54.9768 118.523 53.4811C119.076 51.8977 119.38 50.2378 119.424 48.561C119.425 46.7498 119.056 44.9574 118.338 43.2945C118.338 43.2945 113.418 30.5669 104.871 24.1916C99.7638 20.185 93.461 18.0054 86.9695 18.001Z" fill="white"/>
</mask>
<g mask="url(#mask3_240_6737)">
<path d="M119.238 15.0659L-2.41113 18.0389L-0.0837197 113.271L121.565 110.298L119.238 15.0659Z" fill="url(#paint3_radial_240_6737)"/>
</g>
<mask id="mask4_240_6737" style="mask-type:luminance" maskUnits="userSpaceOnUse" x="0" y="18" width="120" height="92">
<path d="M86.9695 18.001C82.5159 17.9608 78.1289 19.0834 74.2421 21.258C70.2316 23.2813 66.7447 26.2067 64.0554 29.8047L51.1431 64.4531C50.9171 65.7476 50.6163 67.0279 50.2422 68.2876C50.0574 69.0036 49.8726 69.558 49.6878 70.274C48.6113 73.8598 47.339 77.3839 45.8765 80.8303C44.7678 82.8168 43.1508 85.196 40.2404 84.6416L39.1316 84.0872C37.3114 82.7172 35.8722 80.9042 34.9507 78.8207C32.4857 74.2612 30.5335 69.4426 29.1298 64.4531C27.3152 58.2141 26.04 51.8307 25.3184 45.3733C25.3073 42.43 24.5098 39.5432 23.0085 37.0115C22.0202 35.6881 20.7799 34.5733 19.3589 33.7314C17.4915 32.609 15.3689 31.981 13.1914 31.9067C10.8592 31.8467 8.54655 32.3457 6.44654 33.3619C4.50185 34.4355 2.90032 36.037 1.82675 37.9817C0.596155 39.8686 -0.0395805 42.0816 0.00190871 44.3339C0.03898 45.1912 0.162815 46.0425 0.371501 46.8748C1.08757 54.1509 4.1828 76.7187 14.5542 93.8119C14.5542 93.8119 23.1009 110.351 41.4646 109.981C45.8788 109.865 50.2175 108.81 54.1921 106.886C58.1934 105.015 61.687 102.211 64.3787 98.7089L71.8397 82.17L77.2911 64.7072L77.8224 61.9815C78.8968 57.378 80.3572 52.8731 82.1881 48.5148C82.7681 46.716 83.8404 45.1156 85.2834 43.8951L85.4681 43.7102C86.112 43.3935 86.8355 43.2749 87.5468 43.3695C88.2582 43.464 88.9255 43.7675 89.4643 44.2415C90.1458 44.7135 90.7075 45.3385 91.1043 46.0664C91.6587 46.7824 92.0051 47.5216 92.5595 48.2377C93.4417 49.7189 94.2137 51.263 94.8694 52.8575C95.4294 54.1534 96.1018 55.3978 96.879 56.5764C96.928 56.5764 96.9751 56.5958 97.0097 56.6305C97.0444 56.6652 97.0638 56.7121 97.0638 56.7611C98.3079 58.1043 99.7876 59.2081 101.43 60.0181C103.045 60.8925 104.86 61.3305 106.696 61.2886C108.376 61.275 110.041 60.9701 111.616 60.3877C113.192 59.7947 114.619 58.8644 115.797 57.662C116.866 56.38 117.781 54.9768 118.523 53.4811C119.076 51.8977 119.38 50.2378 119.424 48.561C119.425 46.7498 119.056 44.9574 118.338 43.2945C118.338 43.2945 113.418 30.5669 104.871 24.1916C99.7638 20.185 93.461 18.0054 86.9695 18.001Z" fill="white"/>
</mask>
<g mask="url(#mask4_240_6737)">
<path d="M119.238 15.0659L-2.41113 18.0389L-0.0837197 113.271L121.565 110.298L119.238 15.0659Z" fill="url(#paint4_radial_240_6737)"/>
</g>
<mask id="mask5_240_6737" style="mask-type:luminance" maskUnits="userSpaceOnUse" x="0" y="18" width="120" height="92">
<path d="M86.9695 18.001C82.5159 17.9608 78.1289 19.0834 74.2421 21.258C70.2316 23.2813 66.7447 26.2067 64.0554 29.8047L51.1431 64.4531C50.9171 65.7476 50.6163 67.0279 50.2422 68.2876C50.0574 69.0036 49.8726 69.558 49.6878 70.274C48.6113 73.8598 47.339 77.3839 45.8765 80.8303C44.7678 82.8168 43.1508 85.196 40.2404 84.6416L39.1316 84.0872C37.3114 82.7172 35.8722 80.9042 34.9507 78.8207C32.4857 74.2612 30.5335 69.4426 29.1298 64.4531C27.3152 58.2141 26.04 51.8307 25.3184 45.3733C25.3073 42.43 24.5098 39.5432 23.0085 37.0115C22.0202 35.6881 20.7799 34.5733 19.3589 33.7314C17.4915 32.609 15.3689 31.981 13.1914 31.9067C10.8592 31.8467 8.54655 32.3457 6.44654 33.3619C4.50185 34.4355 2.90032 36.037 1.82675 37.9817C0.596155 39.8686 -0.0395805 42.0816 0.00190871 44.3339C0.03898 45.1912 0.162815 46.0425 0.371501 46.8748C1.08757 54.1509 4.1828 76.7187 14.5542 93.8119C14.5542 93.8119 23.1009 110.351 41.4646 109.981C45.8788 109.865 50.2175 108.81 54.1921 106.886C58.1934 105.015 61.687 102.211 64.3787 98.7089L71.8397 82.17L77.2911 64.7072L77.8224 61.9815C78.8968 57.378 80.3572 52.8731 82.1881 48.5148C82.7681 46.716 83.8404 45.1156 85.2834 43.8951L85.4681 43.7102C86.112 43.3935 86.8355 43.2749 87.5468 43.3695C88.2582 43.464 88.9255 43.7675 89.4643 44.2415C90.1458 44.7135 90.7075 45.3385 91.1043 46.0664C91.6587 46.7824 92.0051 47.5216 92.5595 48.2377C93.4417 49.7189 94.2137 51.263 94.8694 52.8575C95.4294 54.1534 96.1018 55.3978 96.879 56.5764C96.928 56.5764 96.9751 56.5958 97.0097 56.6305C97.0444 56.6652 97.0638 56.7121 97.0638 56.7611C98.3079 58.1043 99.7876 59.2081 101.43 60.0181C103.045 60.8925 104.86 61.3305 106.696 61.2886C108.376 61.275 110.041 60.9701 111.616 60.3877C113.192 59.7947 114.619 58.8644 115.797 57.662C116.866 56.38 117.781 54.9768 118.523 53.4811C119.076 51.8977 119.38 50.2378 119.424 48.561C119.425 46.7498 119.056 44.9574 118.338 43.2945C118.338 43.2945 113.418 30.5669 104.871 24.1916C99.7638 20.185 93.461 18.0054 86.9695 18.001Z" fill="white"/>
</mask>
<g mask="url(#mask5_240_6737)">
<path d="M119.238 15.0659L-2.41113 18.0389L-0.0837197 113.271L121.565 110.298L119.238 15.0659Z" fill="url(#paint5_radial_240_6737)"/>
</g>
<mask id="mask6_240_6737" style="mask-type:luminance" maskUnits="userSpaceOnUse" x="0" y="18" width="120" height="92">
<path d="M86.9695 18.001C82.5159 17.9608 78.1289 19.0834 74.2421 21.258C70.2316 23.2813 66.7447 26.2067 64.0554 29.8047L51.1431 64.4531C50.9171 65.7476 50.6163 67.0279 50.2422 68.2876C50.0574 69.0036 49.8726 69.558 49.6878 70.274C48.6113 73.8598 47.339 77.3839 45.8765 80.8303C44.7678 82.8168 43.1508 85.196 40.2404 84.6416L39.1316 84.0872C37.3114 82.7172 35.8722 80.9042 34.9507 78.8207C32.4857 74.2612 30.5335 69.4426 29.1298 64.4531C27.3152 58.2141 26.04 51.8307 25.3184 45.3733C25.3073 42.43 24.5098 39.5432 23.0085 37.0115C22.0202 35.6881 20.7799 34.5733 19.3589 33.7314C17.4915 32.609 15.3689 31.981 13.1914 31.9067C10.8592 31.8467 8.54655 32.3457 6.44654 33.3619C4.50185 34.4355 2.90032 36.037 1.82675 37.9817C0.596155 39.8686 -0.0395805 42.0816 0.00190871 44.3339C0.03898 45.1912 0.162815 46.0425 0.371501 46.8748C1.08757 54.1509 4.1828 76.7187 14.5542 93.8119C14.5542 93.8119 23.1009 110.351 41.4646 109.981C45.8788 109.865 50.2175 108.81 54.1921 106.886C58.1934 105.015 61.687 102.211 64.3787 98.7089L71.8397 82.17L77.2911 64.7072L77.8224 61.9815C78.8968 57.378 80.3572 52.8731 82.1881 48.5148C82.7681 46.716 83.8404 45.1156 85.2834 43.8951L85.4681 43.7102C86.112 43.3935 86.8355 43.2749 87.5468 43.3695C88.2582 43.464 88.9255 43.7675 89.4643 44.2415C90.1458 44.7135 90.7075 45.3385 91.1043 46.0664C91.6587 46.7824 92.0051 47.5216 92.5595 48.2377C93.4417 49.7189 94.2137 51.263 94.8694 52.8575C95.4294 54.1534 96.1018 55.3978 96.879 56.5764C96.928 56.5764 96.9751 56.5958 97.0097 56.6305C97.0444 56.6652 97.0638 56.7121 97.0638 56.7611C98.3079 58.1043 99.7876 59.2081 101.43 60.0181C103.045 60.8925 104.86 61.3305 106.696 61.2886C108.376 61.275 110.041 60.9701 111.616 60.3877C113.192 59.7947 114.619 58.8644 115.797 57.662C116.866 56.38 117.781 54.9768 118.523 53.4811C119.076 51.8977 119.38 50.2378 119.424 48.561C119.425 46.7498 119.056 44.9574 118.338 43.2945C118.338 43.2945 113.418 30.5669 104.871 24.1916C99.7638 20.185 93.461 18.0054 86.9695 18.001Z" fill="white"/>
</mask>
<g mask="url(#mask6_240_6737)">
<path d="M19.2912 -26.1334L-34.27 95.3062L99.8503 154.46L153.412 33.0207L19.2912 -26.1334Z" fill="url(#paint6_radial_240_6737)"/>
</g>
<mask id="mask7_240_6737" style="mask-type:luminance" maskUnits="userSpaceOnUse" x="0" y="18" width="120" height="92">
<path d="M86.9695 18.001C82.5159 17.9608 78.1289 19.0834 74.2421 21.258C70.2316 23.2813 66.7447 26.2067 64.0554 29.8047L51.1431 64.4531C50.9171 65.7476 50.6163 67.0279 50.2422 68.2876C50.0574 69.0036 49.8726 69.558 49.6878 70.274C48.6113 73.8598 47.339 77.3839 45.8765 80.8303C44.7678 82.8168 43.1508 85.196 40.2404 84.6416L39.1316 84.0872C37.3114 82.7172 35.8722 80.9042 34.9507 78.8207C32.4857 74.2612 30.5335 69.4426 29.1298 64.4531C27.3152 58.2141 26.04 51.8307 25.3184 45.3733C25.3073 42.43 24.5098 39.5432 23.0085 37.0115C22.0202 35.6881 20.7799 34.5733 19.3589 33.7314C17.4915 32.609 15.3689 31.981 13.1914 31.9067C10.8592 31.8467 8.54655 32.3457 6.44654 33.3619C4.50185 34.4355 2.90032 36.037 1.82675 37.9817C0.596155 39.8686 -0.0395805 42.0816 0.00190871 44.3339C0.03898 45.1912 0.162815 46.0425 0.371501 46.8748C1.08757 54.1509 4.1828 76.7187 14.5542 93.8119C14.5542 93.8119 23.1009 110.351 41.4646 109.981C45.8788 109.865 50.2175 108.81 54.1921 106.886C58.1934 105.015 61.687 102.211 64.3787 98.7089L71.8397 82.17L77.2911 64.7072L77.8224 61.9815C78.8968 57.378 80.3572 52.8731 82.1881 48.5148C82.7681 46.716 83.8404 45.1156 85.2834 43.8951L85.4681 43.7102C86.112 43.3935 86.8355 43.2749 87.5468 43.3695C88.2582 43.464 88.9255 43.7675 89.4643 44.2415C90.1458 44.7135 90.7075 45.3385 91.1043 46.0664C91.6587 46.7824 92.0051 47.5216 92.5595 48.2377C93.4417 49.7189 94.2137 51.263 94.8694 52.8575C95.4294 54.1534 96.1018 55.3978 96.879 56.5764C96.928 56.5764 96.9751 56.5958 97.0097 56.6305C97.0444 56.6652 97.0638 56.7121 97.0638 56.7611C98.3079 58.1043 99.7876 59.2081 101.43 60.0181C103.045 60.8925 104.86 61.3305 106.696 61.2886C108.376 61.275 110.041 60.9701 111.616 60.3877C113.192 59.7947 114.619 58.8644 115.797 57.662C116.866 56.38 117.781 54.9768 118.523 53.4811C119.076 51.8977 119.38 50.2378 119.424 48.561C119.425 46.7498 119.056 44.9574 118.338 43.2945C118.338 43.2945 113.418 30.5669 104.871 24.1916C99.7638 20.185 93.461 18.0054 86.9695 18.001Z" fill="white"/>
</mask>
<g mask="url(#mask7_240_6737)">
<path d="M39.6751 -38.3904L-43.7144 79.5156L79.4722 166.64L162.862 48.7337L39.6751 -38.3904Z" fill="url(#paint7_radial_240_6737)"/>
</g>
<mask id="mask8_240_6737" style="mask-type:luminance" maskUnits="userSpaceOnUse" x="0" y="18" width="120" height="92">
<path d="M86.9695 18.001C82.5159 17.9608 78.1289 19.0834 74.2421 21.258C70.2316 23.2813 66.7447 26.2067 64.0554 29.8047L51.1431 64.4531C50.9171 65.7476 50.6163 67.0279 50.2422 68.2876C50.0574 69.0036 49.8726 69.558 49.6878 70.274C48.6113 73.8598 47.339 77.3839 45.8765 80.8303C44.7678 82.8168 43.1508 85.196 40.2404 84.6416L39.1316 84.0872C37.3114 82.7172 35.8722 80.9042 34.9507 78.8207C32.4857 74.2612 30.5335 69.4426 29.1298 64.4531C27.3152 58.2141 26.04 51.8307 25.3184 45.3733C25.3073 42.43 24.5098 39.5432 23.0085 37.0115C22.0202 35.6881 20.7799 34.5733 19.3589 33.7314C17.4915 32.609 15.3689 31.981 13.1914 31.9067C10.8592 31.8467 8.54655 32.3457 6.44654 33.3619C4.50185 34.4355 2.90032 36.037 1.82675 37.9817C0.596155 39.8686 -0.0395805 42.0816 0.00190871 44.3339C0.03898 45.1912 0.162815 46.0425 0.371501 46.8748C1.08757 54.1509 4.1828 76.7187 14.5542 93.8119C14.5542 93.8119 23.1009 110.351 41.4646 109.981C45.8788 109.865 50.2175 108.81 54.1921 106.886C58.1934 105.015 61.687 102.211 64.3787 98.7089L71.8397 82.17L77.2911 64.7072L77.8224 61.9815C78.8968 57.378 80.3572 52.8731 82.1881 48.5148C82.7681 46.716 83.8404 45.1156 85.2834 43.8951L85.4681 43.7102C86.112 43.3935 86.8355 43.2749 87.5468 43.3695C88.2582 43.464 88.9255 43.7675 89.4643 44.2415C90.1458 44.7135 90.7075 45.3385 91.1043 46.0664C91.6587 46.7824 92.0051 47.5216 92.5595 48.2377C93.4417 49.7189 94.2137 51.263 94.8694 52.8575C95.4294 54.1534 96.1018 55.3978 96.879 56.5764C96.928 56.5764 96.9751 56.5958 97.0097 56.6305C97.0444 56.6652 97.0638 56.7121 97.0638 56.7611C98.3079 58.1043 99.7876 59.2081 101.43 60.0181C103.045 60.8925 104.86 61.3305 106.696 61.2886C108.376 61.275 110.041 60.9701 111.616 60.3877C113.192 59.7947 114.619 58.8644 115.797 57.662C116.866 56.38 117.781 54.9768 118.523 53.4811C119.076 51.8977 119.38 50.2378 119.424 48.561C119.425 46.7498 119.056 44.9574 118.338 43.2945C118.338 43.2945 113.418 30.5669 104.871 24.1916C99.7638 20.185 93.461 18.0054 86.9695 18.001Z" fill="white"/>
</mask>
<g mask="url(#mask8_240_6737)">
<path d="M39.6946 -38.3541L-43.6948 79.5519L79.4917 166.676L162.881 48.77L39.6946 -38.3541Z" fill="url(#paint8_radial_240_6737)"/>
</g>
<mask id="mask9_240_6737" style="mask-type:luminance" maskUnits="userSpaceOnUse" x="0" y="18" width="120" height="92">
<path d="M86.9695 18.001C82.5159 17.9608 78.1289 19.0834 74.2421 21.258C70.2316 23.2813 66.7447 26.2067 64.0554 29.8047L51.1431 64.4531C50.9171 65.7476 50.6163 67.0279 50.2422 68.2876C50.0574 69.0036 49.8726 69.558 49.6878 70.274C48.6113 73.8598 47.339 77.3839 45.8765 80.8303C44.7678 82.8168 43.1508 85.196 40.2404 84.6416L39.1316 84.0872C37.3114 82.7172 35.8722 80.9042 34.9507 78.8207C32.4857 74.2612 30.5335 69.4426 29.1298 64.4531C27.3152 58.2141 26.04 51.8307 25.3184 45.3733C25.3073 42.43 24.5098 39.5432 23.0085 37.0115C22.0202 35.6881 20.7799 34.5733 19.3589 33.7314C17.4915 32.609 15.3689 31.981 13.1914 31.9067C10.8592 31.8467 8.54655 32.3457 6.44654 33.3619C4.50185 34.4355 2.90032 36.037 1.82675 37.9817C0.596155 39.8686 -0.0395805 42.0816 0.00190871 44.3339C0.03898 45.1912 0.162815 46.0425 0.371501 46.8748C1.08757 54.1509 4.1828 76.7187 14.5542 93.8119C14.5542 93.8119 23.1009 110.351 41.4646 109.981C45.8788 109.865 50.2175 108.81 54.1921 106.886C58.1934 105.015 61.687 102.211 64.3787 98.7089L71.8397 82.17L77.2911 64.7072L77.8224 61.9815C78.8968 57.378 80.3572 52.8731 82.1881 48.5148C82.7681 46.716 83.8404 45.1156 85.2834 43.8951L85.4681 43.7102C86.112 43.3935 86.8355 43.2749 87.5468 43.3695C88.2582 43.464 88.9255 43.7675 89.4643 44.2415C90.1458 44.7135 90.7075 45.3385 91.1043 46.0664C91.6587 46.7824 92.0051 47.5216 92.5595 48.2377C93.4417 49.7189 94.2137 51.263 94.8694 52.8575C95.4294 54.1534 96.1018 55.3978 96.879 56.5764C96.928 56.5764 96.9751 56.5958 97.0097 56.6305C97.0444 56.6652 97.0638 56.7121 97.0638 56.7611C98.3079 58.1043 99.7876 59.2081 101.43 60.0181C103.045 60.8925 104.86 61.3305 106.696 61.2886C108.376 61.275 110.041 60.9701 111.616 60.3877C113.192 59.7947 114.619 58.8644 115.797 57.662C116.866 56.38 117.781 54.9768 118.523 53.4811C119.076 51.8977 119.38 50.2378 119.424 48.561C119.425 46.7498 119.056 44.9574 118.338 43.2945C118.338 43.2945 113.418 30.5669 104.871 24.1916C99.7638 20.185 93.461 18.0054 86.9695 18.001Z" fill="white"/>
</mask>
<g mask="url(#mask9_240_6737)">
<path d="M4.14988 -4.35818L-17.4326 106.985L114.978 132.651L136.56 21.3078L4.14988 -4.35818Z" fill="url(#paint9_radial_240_6737)"/>
</g>
<mask id="mask10_240_6737" style="mask-type:luminance" maskUnits="userSpaceOnUse" x="0" y="18" width="120" height="92">
<path d="M86.9695 18.001C82.5159 17.9608 78.1289 19.0834 74.2421 21.258C70.2316 23.2813 66.7447 26.2067 64.0554 29.8047L51.1431 64.4531C50.9171 65.7476 50.6163 67.0279 50.2422 68.2876C50.0574 69.0036 49.8726 69.558 49.6878 70.274C48.6113 73.8598 47.339 77.3839 45.8765 80.8303C44.7678 82.8168 43.1508 85.196 40.2404 84.6416L39.1316 84.0872C37.3114 82.7172 35.8722 80.9042 34.9507 78.8207C32.4857 74.2612 30.5335 69.4426 29.1298 64.4531C27.3152 58.2141 26.04 51.8307 25.3184 45.3733C25.3073 42.43 24.5098 39.5432 23.0085 37.0115C22.0202 35.6881 20.7799 34.5733 19.3589 33.7314C17.4915 32.609 15.3689 31.981 13.1914 31.9067C10.8592 31.8467 8.54655 32.3457 6.44654 33.3619C4.50185 34.4355 2.90032 36.037 1.82675 37.9817C0.596155 39.8686 -0.0395805 42.0816 0.00190871 44.3339C0.03898 45.1912 0.162815 46.0425 0.371501 46.8748C1.08757 54.1509 4.1828 76.7187 14.5542 93.8119C14.5542 93.8119 23.1009 110.351 41.4646 109.981C45.8788 109.865 50.2175 108.81 54.1921 106.886C58.1934 105.015 61.687 102.211 64.3787 98.7089L71.8397 82.17L77.2911 64.7072L77.8224 61.9815C78.8968 57.378 80.3572 52.8731 82.1881 48.5148C82.7681 46.716 83.8404 45.1156 85.2834 43.8951L85.4681 43.7102C86.112 43.3935 86.8355 43.2749 87.5468 43.3695C88.2582 43.464 88.9255 43.7675 89.4643 44.2415C90.1458 44.7135 90.7075 45.3385 91.1043 46.0664C91.6587 46.7824 92.0051 47.5216 92.5595 48.2377C93.4417 49.7189 94.2137 51.263 94.8694 52.8575C95.4294 54.1534 96.1018 55.3978 96.879 56.5764C96.928 56.5764 96.9751 56.5958 97.0097 56.6305C97.0444 56.6652 97.0638 56.7121 97.0638 56.7611C98.3079 58.1043 99.7876 59.2081 101.43 60.0181C103.045 60.8925 104.86 61.3305 106.696 61.2886C108.376 61.275 110.041 60.9701 111.616 60.3877C113.192 59.7947 114.619 58.8644 115.797 57.662C116.866 56.38 117.781 54.9768 118.523 53.4811C119.076 51.8977 119.38 50.2378 119.424 48.561C119.425 46.7498 119.056 44.9574 118.338 43.2945C118.338 43.2945 113.418 30.5669 104.871 24.1916C99.7638 20.185 93.461 18.0054 86.9695 18.001Z" fill="white"/>
</mask>
<g mask="url(#mask10_240_6737)">
<path d="M47.519 -40.5405L-45.4092 73.4819L71.6213 168.862L164.549 54.8393L47.519 -40.5405Z" fill="url(#paint10_radial_240_6737)"/>
</g>
<mask id="mask11_240_6737" style="mask-type:luminance" maskUnits="userSpaceOnUse" x="0" y="18" width="120" height="92">
<path d="M86.9695 18.001C82.5159 17.9608 78.1289 19.0834 74.2421 21.258C70.2316 23.2813 66.7447 26.2067 64.0554 29.8047L51.1431 64.4531C50.9171 65.7476 50.6163 67.0279 50.2422 68.2876C50.0574 69.0036 49.8726 69.558 49.6878 70.274C48.6113 73.8598 47.339 77.3839 45.8765 80.8303C44.7678 82.8168 43.1508 85.196 40.2404 84.6416L39.1316 84.0872C37.3114 82.7172 35.8722 80.9042 34.9507 78.8207C32.4857 74.2612 30.5335 69.4426 29.1298 64.4531C27.3152 58.2141 26.04 51.8307 25.3184 45.3733C25.3073 42.43 24.5098 39.5432 23.0085 37.0115C22.0202 35.6881 20.7799 34.5733 19.3589 33.7314C17.4915 32.609 15.3689 31.981 13.1914 31.9067C10.8592 31.8467 8.54655 32.3457 6.44654 33.3619C4.50185 34.4355 2.90032 36.037 1.82675 37.9817C0.596155 39.8686 -0.0395805 42.0816 0.00190871 44.3339C0.03898 45.1912 0.162815 46.0425 0.371501 46.8748C1.08757 54.1509 4.1828 76.7187 14.5542 93.8119C14.5542 93.8119 23.1009 110.351 41.4646 109.981C45.8788 109.865 50.2175 108.81 54.1921 106.886C58.1934 105.015 61.687 102.211 64.3787 98.7089L71.8397 82.17L77.2911 64.7072L77.8224 61.9815C78.8968 57.378 80.3572 52.8731 82.1881 48.5148C82.7681 46.716 83.8404 45.1156 85.2834 43.8951L85.4681 43.7102C86.112 43.3935 86.8355 43.2749 87.5468 43.3695C88.2582 43.464 88.9255 43.7675 89.4643 44.2415C90.1458 44.7135 90.7075 45.3385 91.1043 46.0664C91.6587 46.7824 92.0051 47.5216 92.5595 48.2377C93.4417 49.7189 94.2137 51.263 94.8694 52.8575C95.4294 54.1534 96.1018 55.3978 96.879 56.5764C96.928 56.5764 96.9751 56.5958 97.0097 56.6305C97.0444 56.6652 97.0638 56.7121 97.0638 56.7611C98.3079 58.1043 99.7876 59.2081 101.43 60.0181C103.045 60.8925 104.86 61.3305 106.696 61.2886C108.376 61.275 110.041 60.9701 111.616 60.3877C113.192 59.7947 114.619 58.8644 115.797 57.662C116.866 56.38 117.781 54.9768 118.523 53.4811C119.076 51.8977 119.38 50.2378 119.424 48.561C119.425 46.7498 119.056 44.9574 118.338 43.2945C118.338 43.2945 113.418 30.5669 104.871 24.1916C99.7638 20.185 93.461 18.0054 86.9695 18.001Z" fill="white"/>
</mask>
<g mask="url(#mask11_240_6737)">
<path d="M86.3959 -35.3916L-41.4224 43.4274L32.7652 163.735L160.584 84.9161L86.3959 -35.3916Z" fill="url(#paint11_radial_240_6737)"/>
</g>
<mask id="mask12_240_6737" style="mask-type:luminance" maskUnits="userSpaceOnUse" x="0" y="18" width="120" height="92">
<path d="M86.9695 18.001C82.5159 17.9608 78.1289 19.0834 74.2421 21.258C70.2316 23.2813 66.7447 26.2067 64.0554 29.8047L51.1431 64.4531C50.9171 65.7476 50.6163 67.0279 50.2422 68.2876C50.0574 69.0036 49.8726 69.558 49.6878 70.274C48.6113 73.8598 47.339 77.3839 45.8765 80.8303C44.7678 82.8168 43.1508 85.196 40.2404 84.6416L39.1316 84.0872C37.3114 82.7172 35.8722 80.9042 34.9507 78.8207C32.4857 74.2612 30.5335 69.4426 29.1298 64.4531C27.3152 58.2141 26.04 51.8307 25.3184 45.3733C25.3073 42.43 24.5098 39.5432 23.0085 37.0115C22.0202 35.6881 20.7799 34.5733 19.3589 33.7314C17.4915 32.609 15.3689 31.981 13.1914 31.9067C10.8592 31.8467 8.54655 32.3457 6.44654 33.3619C4.50185 34.4355 2.90032 36.037 1.82675 37.9817C0.596155 39.8686 -0.0395805 42.0816 0.00190871 44.3339C0.03898 45.1912 0.162815 46.0425 0.371501 46.8748C1.08757 54.1509 4.1828 76.7187 14.5542 93.8119C14.5542 93.8119 23.1009 110.351 41.4646 109.981C45.8788 109.865 50.2175 108.81 54.1921 106.886C58.1934 105.015 61.687 102.211 64.3787 98.7089L71.8397 82.17L77.2911 64.7072L77.8224 61.9815C78.8968 57.378 80.3572 52.8731 82.1881 48.5148C82.7681 46.716 83.8404 45.1156 85.2834 43.8951L85.4681 43.7102C86.112 43.3935 86.8355 43.2749 87.5468 43.3695C88.2582 43.464 88.9255 43.7675 89.4643 44.2415C90.1458 44.7135 90.7075 45.3385 91.1043 46.0664C91.6587 46.7824 92.0051 47.5216 92.5595 48.2377C93.4417 49.7189 94.2137 51.263 94.8694 52.8575C95.4294 54.1534 96.1018 55.3978 96.879 56.5764C96.928 56.5764 96.9751 56.5958 97.0097 56.6305C97.0444 56.6652 97.0638 56.7121 97.0638 56.7611C98.3079 58.1043 99.7876 59.2081 101.43 60.0181C103.045 60.8925 104.86 61.3305 106.696 61.2886C108.376 61.275 110.041 60.9701 111.616 60.3877C113.192 59.7947 114.619 58.8644 115.797 57.662C116.866 56.38 117.781 54.9768 118.523 53.4811C119.076 51.8977 119.38 50.2378 119.424 48.561C119.425 46.7498 119.056 44.9574 118.338 43.2945C118.338 43.2945 113.418 30.5669 104.871 24.1916C99.7638 20.185 93.461 18.0054 86.9695 18.001Z" fill="white"/>
</mask>
<g mask="url(#mask12_240_6737)">
<path d="M68.8677 -41.0405L-45.7607 56.9999L50.3428 169.364L164.971 71.3234L68.8677 -41.0405Z" fill="url(#paint12_radial_240_6737)"/>
</g>
<mask id="mask13_240_6737" style="mask-type:luminance" maskUnits="userSpaceOnUse" x="0" y="18" width="120" height="92">
<path d="M86.9695 18.001C82.5159 17.9608 78.1289 19.0834 74.2421 21.258C70.2316 23.2813 66.7447 26.2067 64.0554 29.8047L51.1431 64.4531C50.9171 65.7476 50.6163 67.0279 50.2422 68.2876C50.0574 69.0036 49.8726 69.558 49.6878 70.274C48.6113 73.8598 47.339 77.3839 45.8765 80.8303C44.7678 82.8168 43.1508 85.196 40.2404 84.6416L39.1316 84.0872C37.3114 82.7172 35.8722 80.9042 34.9507 78.8207C32.4857 74.2612 30.5335 69.4426 29.1298 64.4531C27.3152 58.2141 26.04 51.8307 25.3184 45.3733C25.3073 42.43 24.5098 39.5432 23.0085 37.0115C22.0202 35.6881 20.7799 34.5733 19.3589 33.7314C17.4915 32.609 15.3689 31.981 13.1914 31.9067C10.8592 31.8467 8.54655 32.3457 6.44654 33.3619C4.50185 34.4355 2.90032 36.037 1.82675 37.9817C0.596155 39.8686 -0.0395805 42.0816 0.00190871 44.3339C0.03898 45.1912 0.162815 46.0425 0.371501 46.8748C1.08757 54.1509 4.1828 76.7187 14.5542 93.8119C14.5542 93.8119 23.1009 110.351 41.4646 109.981C45.8788 109.865 50.2175 108.81 54.1921 106.886C58.1934 105.015 61.687 102.211 64.3787 98.7089L71.8397 82.17L77.2911 64.7072L77.8224 61.9815C78.8968 57.378 80.3572 52.8731 82.1881 48.5148C82.7681 46.716 83.8404 45.1156 85.2834 43.8951L85.4681 43.7102C86.112 43.3935 86.8355 43.2749 87.5468 43.3695C88.2582 43.464 88.9255 43.7675 89.4643 44.2415C90.1458 44.7135 90.7075 45.3385 91.1043 46.0664C91.6587 46.7824 92.0051 47.5216 92.5595 48.2377C93.4417 49.7189 94.2137 51.263 94.8694 52.8575C95.4294 54.1534 96.1018 55.3978 96.879 56.5764C96.928 56.5764 96.9751 56.5958 97.0097 56.6305C97.0444 56.6652 97.0638 56.7121 97.0638 56.7611C98.3079 58.1043 99.7876 59.2081 101.43 60.0181C103.045 60.8925 104.86 61.3305 106.696 61.2886C108.376 61.275 110.041 60.9701 111.616 60.3877C113.192 59.7947 114.619 58.8644 115.797 57.662C116.866 56.38 117.781 54.9768 118.523 53.4811C119.076 51.8977 119.38 50.2378 119.424 48.561C119.425 46.7498 119.056 44.9574 118.338 43.2945C118.338 43.2945 113.418 30.5669 104.871 24.1916C99.7638 20.185 93.461 18.0054 86.9695 18.001Z" fill="white"/>
</mask>
<g mask="url(#mask13_240_6737)">
<path d="M1.58071 3.74442L-11.1411 109.026L117.623 124.585L130.345 19.3038L1.58071 3.74442Z" fill="url(#paint13_radial_240_6737)"/>
</g>
<mask id="mask14_240_6737" style="mask-type:luminance" maskUnits="userSpaceOnUse" x="0" y="18" width="120" height="92">
<path d="M86.9695 18.001C82.5159 17.9608 78.1289 19.0834 74.2421 21.258C70.2316 23.2813 66.7447 26.2067 64.0554 29.8047L51.1431 64.4531C50.9171 65.7476 50.6163 67.0279 50.2422 68.2876C50.0574 69.0036 49.8726 69.558 49.6878 70.274C48.6113 73.8598 47.339 77.3839 45.8765 80.8303C44.7678 82.8168 43.1508 85.196 40.2404 84.6416L39.1316 84.0872C37.3114 82.7172 35.8722 80.9042 34.9507 78.8207C32.4857 74.2612 30.5335 69.4426 29.1298 64.4531C27.3152 58.2141 26.04 51.8307 25.3184 45.3733C25.3073 42.43 24.5098 39.5432 23.0085 37.0115C22.0202 35.6881 20.7799 34.5733 19.3589 33.7314C17.4915 32.609 15.3689 31.981 13.1914 31.9067C10.8592 31.8467 8.54655 32.3457 6.44654 33.3619C4.50185 34.4355 2.90032 36.037 1.82675 37.9817C0.596155 39.8686 -0.0395805 42.0816 0.00190871 44.3339C0.03898 45.1912 0.162815 46.0425 0.371501 46.8748C1.08757 54.1509 4.1828 76.7187 14.5542 93.8119C14.5542 93.8119 23.1009 110.351 41.4646 109.981C45.8788 109.865 50.2175 108.81 54.1921 106.886C58.1934 105.015 61.687 102.211 64.3787 98.7089L71.8397 82.17L77.2911 64.7072L77.8224 61.9815C78.8968 57.378 80.3572 52.8731 82.1881 48.5148C82.7681 46.716 83.8404 45.1156 85.2834 43.8951L85.4681 43.7102C86.112 43.3935 86.8355 43.2749 87.5468 43.3695C88.2582 43.464 88.9255 43.7675 89.4643 44.2415C90.1458 44.7135 90.7075 45.3385 91.1043 46.0664C91.6587 46.7824 92.0051 47.5216 92.5595 48.2377C93.4417 49.7189 94.2137 51.263 94.8694 52.8575C95.4294 54.1534 96.1018 55.3978 96.879 56.5764C96.928 56.5764 96.9751 56.5958 97.0097 56.6305C97.0444 56.6652 97.0638 56.7121 97.0638 56.7611C98.3079 58.1043 99.7876 59.2081 101.43 60.0181C103.045 60.8925 104.86 61.3305 106.696 61.2886C108.376 61.275 110.041 60.9701 111.616 60.3877C113.192 59.7947 114.619 58.8644 115.797 57.662C116.866 56.38 117.781 54.9768 118.523 53.4811C119.076 51.8977 119.38 50.2378 119.424 48.561C119.425 46.7498 119.056 44.9574 118.338 43.2945C118.338 43.2945 113.418 30.5669 104.871 24.1916C99.7638 20.185 93.461 18.0054 86.9695 18.001Z" fill="white"/>
</mask>
<g mask="url(#mask14_240_6737)">
<path d="M90.6721 -32.9983L-39.5933 40.163L28.5005 161.405L158.766 88.2442L90.6721 -32.9983Z" fill="url(#paint14_radial_240_6737)"/>
</g>
<mask id="mask15_240_6737" style="mask-type:luminance" maskUnits="userSpaceOnUse" x="0" y="18" width="120" height="92">
<path d="M86.9695 18.001C82.5159 17.9608 78.1289 19.0834 74.2421 21.258C70.2316 23.2813 66.7447 26.2067 64.0554 29.8047L51.1431 64.4531C50.9171 65.7476 50.6163 67.0279 50.2422 68.2876C50.0574 69.0036 49.8726 69.558 49.6878 70.274C48.6113 73.8598 47.339 77.3839 45.8765 80.8303C44.7678 82.8168 43.1508 85.196 40.2404 84.6416L39.1316 84.0872C37.3114 82.7172 35.8722 80.9042 34.9507 78.8207C32.4857 74.2612 30.5335 69.4426 29.1298 64.4531C27.3152 58.2141 26.04 51.8307 25.3184 45.3733C25.3073 42.43 24.5098 39.5432 23.0085 37.0115C22.0202 35.6881 20.7799 34.5733 19.3589 33.7314C17.4915 32.609 15.3689 31.981 13.1914 31.9067C10.8592 31.8467 8.54655 32.3457 6.44654 33.3619C4.50185 34.4355 2.90032 36.037 1.82675 37.9817C0.596155 39.8686 -0.0395805 42.0816 0.00190871 44.3339C0.03898 45.1912 0.162815 46.0425 0.371501 46.8748C1.08757 54.1509 4.1828 76.7187 14.5542 93.8119C14.5542 93.8119 23.1009 110.351 41.4646 109.981C45.8788 109.865 50.2175 108.81 54.1921 106.886C58.1934 105.015 61.687 102.211 64.3787 98.7089L71.8397 82.17L77.2911 64.7072L77.8224 61.9815C78.8968 57.378 80.3572 52.8731 82.1881 48.5148C82.7681 46.716 83.8404 45.1156 85.2834 43.8951L85.4681 43.7102C86.112 43.3935 86.8355 43.2749 87.5468 43.3695C88.2582 43.464 88.9255 43.7675 89.4643 44.2415C90.1458 44.7135 90.7075 45.3385 91.1043 46.0664C91.6587 46.7824 92.0051 47.5216 92.5595 48.2377C93.4417 49.7189 94.2137 51.263 94.8694 52.8575C95.4294 54.1534 96.1018 55.3978 96.879 56.5764C96.928 56.5764 96.9751 56.5958 97.0097 56.6305C97.0444 56.6652 97.0638 56.7121 97.0638 56.7611C98.3079 58.1043 99.7876 59.2081 101.43 60.0181C103.045 60.8925 104.86 61.3305 106.696 61.2886C108.376 61.275 110.041 60.9701 111.616 60.3877C113.192 59.7947 114.619 58.8644 115.797 57.662C116.866 56.38 117.781 54.9768 118.523 53.4811C119.076 51.8977 119.38 50.2378 119.424 48.561C119.425 46.7498 119.056 44.9574 118.338 43.2945C118.338 43.2945 113.418 30.5669 104.871 24.1916C99.7638 20.185 93.461 18.0054 86.9695 18.001Z" fill="white"/>
</mask>
<g mask="url(#mask15_240_6737)">
<path d="M37.2379 -37.3618L-42.9702 81.5068L81.9491 165.798L162.157 46.9291L37.2379 -37.3618Z" fill="url(#paint15_radial_240_6737)"/>
</g>
<mask id="mask16_240_6737" style="mask-type:luminance" maskUnits="userSpaceOnUse" x="0" y="18" width="120" height="92">
<path d="M86.9695 18.001C82.5159 17.9608 78.1289 19.0834 74.2421 21.258C70.2316 23.2813 66.7447 26.2067 64.0554 29.8047L51.1431 64.4531C50.9171 65.7476 50.6163 67.0279 50.2422 68.2876C50.0574 69.0036 49.8726 69.558 49.6878 70.274C48.6113 73.8598 47.339 77.3839 45.8765 80.8303C44.7678 82.8168 43.1508 85.196 40.2404 84.6416L39.1316 84.0872C37.3114 82.7172 35.8722 80.9042 34.9507 78.8207C32.4857 74.2612 30.5335 69.4426 29.1298 64.4531C27.3152 58.2141 26.04 51.8307 25.3184 45.3733C25.3073 42.43 24.5098 39.5432 23.0085 37.0115C22.0202 35.6881 20.7799 34.5733 19.3589 33.7314C17.4915 32.609 15.3689 31.981 13.1914 31.9067C10.8592 31.8467 8.54655 32.3457 6.44654 33.3619C4.50185 34.4355 2.90032 36.037 1.82675 37.9817C0.596155 39.8686 -0.0395805 42.0816 0.00190871 44.3339C0.03898 45.1912 0.162815 46.0425 0.371501 46.8748C1.08757 54.1509 4.1828 76.7187 14.5542 93.8119C14.5542 93.8119 23.1009 110.351 41.4646 109.981C45.8788 109.865 50.2175 108.81 54.1921 106.886C58.1934 105.015 61.687 102.211 64.3787 98.7089L71.8397 82.17L77.2911 64.7072L77.8224 61.9815C78.8968 57.378 80.3572 52.8731 82.1881 48.5148C82.7681 46.716 83.8404 45.1156 85.2834 43.8951L85.4681 43.7102C86.112 43.3935 86.8355 43.2749 87.5468 43.3695C88.2582 43.464 88.9255 43.7675 89.4643 44.2415C90.1458 44.7135 90.7075 45.3385 91.1043 46.0664C91.6587 46.7824 92.0051 47.5216 92.5595 48.2377C93.4417 49.7189 94.2137 51.263 94.8694 52.8575C95.4294 54.1534 96.1018 55.3978 96.879 56.5764C96.928 56.5764 96.9751 56.5958 97.0097 56.6305C97.0444 56.6652 97.0638 56.7121 97.0638 56.7611C98.3079 58.1043 99.7876 59.2081 101.43 60.0181C103.045 60.8925 104.86 61.3305 106.696 61.2886C108.376 61.275 110.041 60.9701 111.616 60.3877C113.192 59.7947 114.619 58.8644 115.797 57.662C116.866 56.38 117.781 54.9768 118.523 53.4811C119.076 51.8977 119.38 50.2378 119.424 48.561C119.425 46.7498 119.056 44.9574 118.338 43.2945C118.338 43.2945 113.418 30.5669 104.871 24.1916C99.7638 20.185 93.461 18.0054 86.9695 18.001Z" fill="white"/>
</mask>
<g mask="url(#mask16_240_6737)">
<path d="M54.9616 -41.5891L-46.1978 67.7296L64.2059 169.893L165.365 60.5743L54.9616 -41.5891Z" fill="url(#paint16_linear_240_6737)"/>
</g>
<mask id="mask17_240_6737" style="mask-type:luminance" maskUnits="userSpaceOnUse" x="0" y="18" width="120" height="92">
<path d="M86.9695 18.001C82.5159 17.9608 78.1289 19.0834 74.2421 21.258C70.2316 23.2813 66.7447 26.2067 64.0554 29.8047L51.1431 64.4531C50.9171 65.7476 50.6163 67.0279 50.2422 68.2876C50.0574 69.0036 49.8726 69.558 49.6878 70.274C48.6113 73.8598 47.339 77.3839 45.8765 80.8303C44.7678 82.8168 43.1508 85.196 40.2404 84.6416L39.1316 84.0872C37.3114 82.7172 35.8722 80.9042 34.9507 78.8207C32.4857 74.2612 30.5335 69.4426 29.1298 64.4531C27.3152 58.2141 26.04 51.8307 25.3184 45.3733C25.3073 42.43 24.5098 39.5432 23.0085 37.0115C22.0202 35.6881 20.7799 34.5733 19.3589 33.7314C17.4915 32.609 15.3689 31.981 13.1914 31.9067C10.8592 31.8467 8.54655 32.3457 6.44654 33.3619C4.50185 34.4355 2.90032 36.037 1.82675 37.9817C0.596155 39.8686 -0.0395805 42.0816 0.00190871 44.3339C0.03898 45.1912 0.162815 46.0425 0.371501 46.8748C1.08757 54.1509 4.1828 76.7187 14.5542 93.8119C14.5542 93.8119 23.1009 110.351 41.4646 109.981C45.8788 109.865 50.2175 108.81 54.1921 106.886C58.1934 105.015 61.687 102.211 64.3787 98.7089L71.8397 82.17L77.2911 64.7072L77.8224 61.9815C78.8968 57.378 80.3572 52.8731 82.1881 48.5148C82.7681 46.716 83.8404 45.1156 85.2834 43.8951L85.4681 43.7102C86.112 43.3935 86.8355 43.2749 87.5468 43.3695C88.2582 43.464 88.9255 43.7675 89.4643 44.2415C90.1458 44.7135 90.7075 45.3385 91.1043 46.0664C91.6587 46.7824 92.0051 47.5216 92.5595 48.2377C93.4417 49.7189 94.2137 51.263 94.8694 52.8575C95.4294 54.1534 96.1018 55.3978 96.879 56.5764C96.928 56.5764 96.9751 56.5958 97.0097 56.6305C97.0444 56.6652 97.0638 56.7121 97.0638 56.7611C98.3079 58.1043 99.7876 59.2081 101.43 60.0181C103.045 60.8925 104.86 61.3305 106.696 61.2886C108.376 61.275 110.041 60.9701 111.616 60.3877C113.192 59.7947 114.619 58.8644 115.797 57.662C116.866 56.38 117.781 54.9768 118.523 53.4811C119.076 51.8977 119.38 50.2378 119.424 48.561C119.425 46.7498 119.056 44.9574 118.338 43.2945C118.338 43.2945 113.418 30.5669 104.871 24.1916C99.7638 20.185 93.461 18.0054 86.9695 18.001Z" fill="white"/>
</mask>
<g mask="url(#mask17_240_6737)">
<path d="M110.463 -13.3915L-24.3633 24.8369L8.76754 141.685L143.594 103.457L110.463 -13.3915Z" fill="url(#paint17_linear_240_6737)"/>
</g>
<mask id="mask18_240_6737" style="mask-type:luminance" maskUnits="userSpaceOnUse" x="0" y="18" width="120" height="92">
<path d="M86.9695 18.001C82.5159 17.9608 78.1289 19.0834 74.2421 21.258C70.2316 23.2813 66.7447 26.2067 64.0554 29.8047L51.1431 64.4531C50.9171 65.7476 50.6163 67.0279 50.2422 68.2876C50.0574 69.0036 49.8726 69.558 49.6878 70.274C48.6113 73.8598 47.339 77.3839 45.8765 80.8303C44.7678 82.8168 43.1508 85.196 40.2404 84.6416L39.1316 84.0872C37.3114 82.7172 35.8722 80.9042 34.9507 78.8207C32.4857 74.2612 30.5335 69.4426 29.1298 64.4531C27.3152 58.2141 26.04 51.8307 25.3184 45.3733C25.3073 42.43 24.5098 39.5432 23.0085 37.0115C22.0202 35.6881 20.7799 34.5733 19.3589 33.7314C17.4915 32.609 15.3689 31.981 13.1914 31.9067C10.8592 31.8467 8.54655 32.3457 6.44654 33.3619C4.50185 34.4355 2.90032 36.037 1.82675 37.9817C0.596155 39.8686 -0.0395805 42.0816 0.00190871 44.3339C0.03898 45.1912 0.162815 46.0425 0.371501 46.8748C1.08757 54.1509 4.1828 76.7187 14.5542 93.8119C14.5542 93.8119 23.1009 110.351 41.4646 109.981C45.8788 109.865 50.2175 108.81 54.1921 106.886C58.1934 105.015 61.687 102.211 64.3787 98.7089L71.8397 82.17L77.2911 64.7072L77.8224 61.9815C78.8968 57.378 80.3572 52.8731 82.1881 48.5148C82.7681 46.716 83.8404 45.1156 85.2834 43.8951L85.4681 43.7102C86.112 43.3935 86.8355 43.2749 87.5468 43.3695C88.2582 43.464 88.9255 43.7675 89.4643 44.2415C90.1458 44.7135 90.7075 45.3385 91.1043 46.0664C91.6587 46.7824 92.0051 47.5216 92.5595 48.2377C93.4417 49.7189 94.2137 51.263 94.8694 52.8575C95.4294 54.1534 96.1018 55.3978 96.879 56.5764C96.928 56.5764 96.9751 56.5958 97.0097 56.6305C97.0444 56.6652 97.0638 56.7121 97.0638 56.7611C98.3079 58.1043 99.7876 59.2081 101.43 60.0181C103.045 60.8925 104.86 61.3305 106.696 61.2886C108.376 61.275 110.041 60.9701 111.616 60.3877C113.192 59.7947 114.619 58.8644 115.797 57.662C116.866 56.38 117.781 54.9768 118.523 53.4811C119.076 51.8977 119.38 50.2378 119.424 48.561C119.425 46.7498 119.056 44.9574 118.338 43.2945C118.338 43.2945 113.418 30.5669 104.871 24.1916C99.7638 20.185 93.461 18.0054 86.9695 18.001Z" fill="white"/>
</mask>
<g mask="url(#mask18_240_6737)">
<path d="M105.888 -19.8192L-29.3369 28.3855L13.3531 148.141L148.578 99.9361L105.888 -19.8192Z" fill="url(#paint18_linear_240_6737)"/>
</g>
<mask id="mask19_240_6737" style="mask-type:luminance" maskUnits="userSpaceOnUse" x="0" y="18" width="120" height="92">
<path d="M86.9695 18.001C82.5159 17.9608 78.1289 19.0834 74.2421 21.258C70.2316 23.2813 66.7447 26.2067 64.0554 29.8047L51.1431 64.4531C50.9171 65.7476 50.6163 67.0279 50.2422 68.2876C50.0574 69.0036 49.8726 69.558 49.6878 70.274C48.6113 73.8598 47.339 77.3839 45.8765 80.8303C44.7678 82.8168 43.1508 85.196 40.2404 84.6416L39.1316 84.0872C37.3114 82.7172 35.8722 80.9042 34.9507 78.8207C32.4857 74.2612 30.5335 69.4426 29.1298 64.4531C27.3152 58.2141 26.04 51.8307 25.3184 45.3733C25.3073 42.43 24.5098 39.5432 23.0085 37.0115C22.0202 35.6881 20.7799 34.5733 19.3589 33.7314C17.4915 32.609 15.3689 31.981 13.1914 31.9067C10.8592 31.8467 8.54655 32.3457 6.44654 33.3619C4.50185 34.4355 2.90032 36.037 1.82675 37.9817C0.596155 39.8686 -0.0395805 42.0816 0.00190871 44.3339C0.03898 45.1912 0.162815 46.0425 0.371501 46.8748C1.08757 54.1509 4.1828 76.7187 14.5542 93.8119C14.5542 93.8119 23.1009 110.351 41.4646 109.981C45.8788 109.865 50.2175 108.81 54.1921 106.886C58.1934 105.015 61.687 102.211 64.3787 98.7089L71.8397 82.17L77.2911 64.7072L77.8224 61.9815C78.8968 57.378 80.3572 52.8731 82.1881 48.5148C82.7681 46.716 83.8404 45.1156 85.2834 43.8951L85.4681 43.7102C86.112 43.3935 86.8355 43.2749 87.5468 43.3695C88.2582 43.464 88.9255 43.7675 89.4643 44.2415C90.1458 44.7135 90.7075 45.3385 91.1043 46.0664C91.6587 46.7824 92.0051 47.5216 92.5595 48.2377C93.4417 49.7189 94.2137 51.263 94.8694 52.8575C95.4294 54.1534 96.1018 55.3978 96.879 56.5764C96.928 56.5764 96.9751 56.5958 97.0097 56.6305C97.0444 56.6652 97.0638 56.7121 97.0638 56.7611C98.3079 58.1043 99.7876 59.2081 101.43 60.0181C103.045 60.8925 104.86 61.3305 106.696 61.2886C108.376 61.275 110.041 60.9701 111.616 60.3877C113.192 59.7947 114.619 58.8644 115.797 57.662C116.866 56.38 117.781 54.9768 118.523 53.4811C119.076 51.8977 119.38 50.2378 119.424 48.561C119.425 46.7498 119.056 44.9574 118.338 43.2945C118.338 43.2945 113.418 30.5669 104.871 24.1916C99.7638 20.185 93.461 18.0054 86.9695 18.001Z" fill="white"/>
</mask>
<g mask="url(#mask19_240_6737)">
<path d="M86.6632 -35.1965L-41.3413 43.2755L32.4586 163.659L160.463 85.1868L86.6632 -35.1965Z" fill="url(#paint19_linear_240_6737)"/>
</g>
<mask id="mask20_240_6737" style="mask-type:luminance" maskUnits="userSpaceOnUse" x="55" y="18" width="65" height="65">
<path d="M86.9688 18.0011C82.5056 18.0325 78.1016 19.0252 74.0565 20.9116C70.0361 22.9197 66.5461 25.8479 63.8699 29.4582L55.6929 51.4484L71.7004 82.1932L77.1518 64.7304L77.6831 62.0047C78.7575 57.4011 80.2178 52.8963 82.0487 48.5379C82.6287 46.7391 83.7011 45.1387 85.1441 43.9182L85.3288 43.7334C85.9727 43.4166 86.6962 43.2981 87.4075 43.3926C88.1189 43.4872 88.7862 43.7907 89.325 44.2647C90.0065 44.7367 90.5682 45.3616 90.965 46.0895C91.5194 46.8055 91.8659 47.5447 92.4202 48.2608C93.3024 49.742 94.0744 51.2861 94.7301 52.8806C95.3356 54.1736 96.0545 55.4104 96.8783 56.5764C96.9273 56.5764 96.9744 56.5959 97.009 56.6306C97.0437 56.6652 97.0631 56.7122 97.0631 56.7612C98.3072 58.1043 99.7869 59.2082 101.429 60.0181C103.044 60.8926 104.859 61.3305 106.695 61.2886C108.375 61.275 110.04 60.9702 111.615 60.3877C113.191 59.7948 114.618 58.8645 115.796 57.6621C116.866 56.3801 117.78 54.9768 118.522 53.4812C119.076 51.8978 119.38 50.2379 119.423 48.5611C119.425 46.7498 119.055 44.9574 118.337 43.2945C118.337 43.2945 113.417 30.567 104.871 24.1917C99.7631 20.185 93.4603 18.0054 86.9688 18.0011Z" fill="white"/>
</mask>
<g mask="url(#mask20_240_6737)">
<path d="M116.464 6.28438L42.7354 21.3311L57.8652 95.4672L131.594 80.4205L116.464 6.28438Z" fill="url(#paint20_linear_240_6737)"/>
</g>
<mask id="mask21_240_6737" style="mask-type:luminance" maskUnits="userSpaceOnUse" x="15" y="18" width="113" height="92">
<path d="M39.1323 18.0011C38.0399 18.0558 36.9521 18.1793 35.8753 18.3707C31.7743 19.2005 27.8854 20.8574 24.4461 23.2403C21.0069 25.6232 18.0893 28.682 15.8716 32.2301C17.0913 32.5219 18.2543 33.0137 19.3134 33.6853C20.7344 34.5272 21.9747 35.642 22.963 36.9654C24.4643 39.4971 25.2618 42.3839 25.2729 45.3272C26.0365 51.6438 27.2562 57.8969 28.9225 64.0374C30.6612 57.2936 33.5527 50.9011 37.4691 45.1424C37.9264 44.4565 38.5451 43.8933 39.2709 43.5024C39.6564 43.274 40.0934 43.1469 40.5413 43.1328C41.3091 43.1181 42.0669 43.3096 42.7357 43.6872C42.9205 43.6872 42.9205 43.872 43.1053 43.872C43.6895 44.4304 44.2301 45.0327 44.7223 45.6737C45.6874 47.4447 46.5436 49.2729 47.2862 51.1481C48.7414 55.1443 50.0119 60.226 50.0119 60.226L53.6384 74.7784C54.9085 79.8067 56.5531 84.7328 58.5585 89.5156C64.1947 102.428 72.7413 106.054 72.7413 106.054C76.9619 108.251 81.6154 109.489 86.3697 109.681C90.8956 109.894 95.4017 108.957 99.4668 106.955C103.926 104.726 107.863 101.577 111.016 97.7157C112.916 95.1236 114.615 92.3899 116.098 89.5386C119.507 82.8238 122.134 75.74 123.929 68.4262C125.175 63.8688 126.147 59.2407 126.839 54.5668C127.209 52.2569 127.555 49.947 127.74 47.6371C128.14 45.4695 128.077 43.2416 127.555 41.1001C127.393 40.7305 127.393 40.361 127.209 39.9914C126.1 37.2991 124.114 35.0605 121.573 33.6392C119.744 32.4134 117.583 31.7766 115.382 31.8143C114.341 31.835 113.304 31.9588 112.287 32.1839C114.637 35.6152 116.648 39.2666 118.292 43.0866C119.01 44.7496 119.38 46.5419 119.378 48.3532C119.335 50.03 119.031 51.6899 118.477 53.2733C117.736 54.7689 116.821 56.1722 115.752 57.4542C114.628 58.722 113.184 59.6635 111.571 60.1799C109.996 60.7702 108.332 61.0828 106.651 61.1038C104.398 61.1453 102.185 60.5096 100.298 59.279L99.0048 64.176C98.0326 67.9396 96.6941 71.599 95.0087 75.1018C94.1081 77.2501 93.0182 79.3141 91.7517 81.2692C90.9235 82.6169 89.7191 83.6928 88.2869 84.3645C87.7543 84.5167 87.2 84.5791 86.6469 84.5492C86.0566 84.5351 85.4846 84.3418 85.0068 83.9949C84.0477 83.1912 83.2618 82.201 82.6969 81.0844C81.9621 79.8849 81.2988 78.6432 80.7104 77.3655C79.6248 74.6398 77.7999 67.918 77.7999 67.918L76.0906 60.7342L74.2658 53.6429L72.9954 48.9075C71.4662 42.4059 68.7488 36.2428 64.98 30.7287C61.3133 25.507 56.1031 21.565 50.0812 19.4563C47.7127 18.6015 45.2282 18.1108 42.7126 18.0011H39.1323Z" fill="white"/>
</mask>
<g mask="url(#mask21_240_6737)">
<path d="M26.9462 -15.4488L-11.542 100.793L116.979 143.347L155.468 27.1053L26.9462 -15.4488Z" fill="url(#paint21_linear_240_6737)"/>
</g>
<mask id="mask22_240_6737" style="mask-type:luminance" maskUnits="userSpaceOnUse" x="15" y="18" width="113" height="92">
<path d="M39.1323 18.0011C38.0399 18.0558 36.9521 18.1793 35.8753 18.3707C31.7743 19.2005 27.8854 20.8574 24.4461 23.2403C21.0069 25.6232 18.0893 28.682 15.8716 32.2301C17.0913 32.5219 18.2543 33.0137 19.3134 33.6853C20.7344 34.5272 21.9747 35.642 22.963 36.9654C24.4643 39.4971 25.2618 42.3839 25.2729 45.3272C26.0365 51.6438 27.2562 57.8969 28.9225 64.0374C30.6612 57.2936 33.5527 50.9011 37.4691 45.1424C37.9264 44.4565 38.5451 43.8933 39.2709 43.5024C39.6564 43.274 40.0934 43.1469 40.5413 43.1328C41.3091 43.1181 42.0669 43.3096 42.7357 43.6872C42.9205 43.6872 42.9205 43.872 43.1053 43.872C43.6895 44.4304 44.2301 45.0327 44.7223 45.6737C45.6874 47.4447 46.5436 49.2729 47.2862 51.1481C48.7414 55.1443 50.0119 60.226 50.0119 60.226L53.6384 74.7784C54.9085 79.8067 56.5531 84.7328 58.5585 89.5156C64.1947 102.428 72.7413 106.054 72.7413 106.054C76.9619 108.251 81.6154 109.489 86.3697 109.681C90.8956 109.894 95.4017 108.957 99.4668 106.955C103.926 104.726 107.863 101.577 111.016 97.7157C112.916 95.1236 114.615 92.3899 116.098 89.5386C119.507 82.8238 122.134 75.74 123.929 68.4262C125.175 63.8688 126.147 59.2407 126.839 54.5668C127.209 52.2569 127.555 49.947 127.74 47.6371C128.14 45.4695 128.077 43.2416 127.555 41.1001C127.393 40.7305 127.393 40.361 127.209 39.9914C126.1 37.2991 124.114 35.0605 121.573 33.6392C119.744 32.4134 117.583 31.7766 115.382 31.8143C114.341 31.835 113.304 31.9588 112.287 32.1839C114.637 35.6152 116.648 39.2666 118.292 43.0866C119.01 44.7496 119.38 46.5419 119.378 48.3532C119.335 50.03 119.031 51.6899 118.477 53.2733C117.736 54.7689 116.821 56.1722 115.752 57.4542C114.628 58.722 113.184 59.6635 111.571 60.1799C109.996 60.7702 108.332 61.0828 106.651 61.1038C104.398 61.1453 102.185 60.5096 100.298 59.279L99.0048 64.176C98.0326 67.9396 96.6941 71.599 95.0087 75.1018C94.1081 77.2501 93.0182 79.3141 91.7517 81.2692C90.9235 82.6169 89.7191 83.6928 88.2869 84.3645C87.7543 84.5167 87.2 84.5791 86.6469 84.5492C86.0566 84.5351 85.4846 84.3418 85.0068 83.9949C84.0477 83.1912 83.2618 82.201 82.6969 81.0844C81.9621 79.8849 81.2988 78.6432 80.7104 77.3655C79.6248 74.6398 77.7999 67.918 77.7999 67.918L76.0906 60.7342L74.2658 53.6429L72.9954 48.9075C71.4662 42.4059 68.7488 36.2428 64.98 30.7287C61.3133 25.507 56.1031 21.565 50.0812 19.4563C47.7127 18.6015 45.2282 18.1108 42.7126 18.0011H39.1323Z" fill="white"/>
</mask>
<g mask="url(#mask22_240_6737)">
<path d="M18.394 1.23302L2.1167 107.73L125.465 126.583L141.742 20.0859L18.394 1.23302Z" fill="url(#paint22_radial_240_6737)"/>
</g>
<mask id="mask23_240_6737" style="mask-type:luminance" maskUnits="userSpaceOnUse" x="15" y="18" width="113" height="92">
<path d="M39.1323 18.0011C38.0399 18.0558 36.9521 18.1793 35.8753 18.3707C31.7743 19.2005 27.8854 20.8574 24.4461 23.2403C21.0069 25.6232 18.0893 28.682 15.8716 32.2301C17.0913 32.5219 18.2543 33.0137 19.3134 33.6853C20.7344 34.5272 21.9747 35.642 22.963 36.9654C24.4643 39.4971 25.2618 42.3839 25.2729 45.3272C26.0365 51.6438 27.2562 57.8969 28.9225 64.0374C30.6612 57.2936 33.5527 50.9011 37.4691 45.1424C37.9264 44.4565 38.5451 43.8933 39.2709 43.5024C39.6564 43.274 40.0934 43.1469 40.5413 43.1328C41.3091 43.1181 42.0669 43.3096 42.7357 43.6872C42.9205 43.6872 42.9205 43.872 43.1053 43.872C43.6895 44.4304 44.2301 45.0327 44.7223 45.6737C45.6874 47.4447 46.5436 49.2729 47.2862 51.1481C48.7414 55.1443 50.0119 60.226 50.0119 60.226L53.6384 74.7784C54.9085 79.8067 56.5531 84.7328 58.5585 89.5156C64.1947 102.428 72.7413 106.054 72.7413 106.054C76.9619 108.251 81.6154 109.489 86.3697 109.681C90.8956 109.894 95.4017 108.957 99.4668 106.955C103.926 104.726 107.863 101.577 111.016 97.7157C112.916 95.1236 114.615 92.3899 116.098 89.5386C119.507 82.8238 122.134 75.74 123.929 68.4262C125.175 63.8688 126.147 59.2407 126.839 54.5668C127.209 52.2569 127.555 49.947 127.74 47.6371C128.14 45.4695 128.077 43.2416 127.555 41.1001C127.393 40.7305 127.393 40.361 127.209 39.9914C126.1 37.2991 124.114 35.0605 121.573 33.6392C119.744 32.4134 117.583 31.7766 115.382 31.8143C114.341 31.835 113.304 31.9588 112.287 32.1839C114.637 35.6152 116.648 39.2666 118.292 43.0866C119.01 44.7496 119.38 46.5419 119.378 48.3532C119.335 50.03 119.031 51.6899 118.477 53.2733C117.736 54.7689 116.821 56.1722 115.752 57.4542C114.628 58.722 113.184 59.6635 111.571 60.1799C109.996 60.7702 108.332 61.0828 106.651 61.1038C104.398 61.1453 102.185 60.5096 100.298 59.279L99.0048 64.176C98.0326 67.9396 96.6941 71.599 95.0087 75.1018C94.1081 77.2501 93.0182 79.3141 91.7517 81.2692C90.9235 82.6169 89.7191 83.6928 88.2869 84.3645C87.7543 84.5167 87.2 84.5791 86.6469 84.5492C86.0566 84.5351 85.4846 84.3418 85.0068 83.9949C84.0477 83.1912 83.2618 82.201 82.6969 81.0844C81.9621 79.8849 81.2988 78.6432 80.7104 77.3655C79.6248 74.6398 77.7999 67.918 77.7999 67.918L76.0906 60.7342L74.2658 53.6429L72.9954 48.9075C71.4662 42.4059 68.7488 36.2428 64.98 30.7287C61.3133 25.507 56.1031 21.565 50.0812 19.4563C47.7127 18.6015 45.2282 18.1108 42.7126 18.0011H39.1323Z" fill="white"/>
</mask>
<g mask="url(#mask23_240_6737)">
<path d="M18.4174 1.23681L2.14014 107.734L125.488 126.587L141.766 20.0897L18.4174 1.23681Z" fill="url(#paint23_radial_240_6737)"/>
</g>
<mask id="mask24_240_6737" style="mask-type:luminance" maskUnits="userSpaceOnUse" x="15" y="18" width="113" height="92">
<path d="M39.1323 18.0011C38.0399 18.0558 36.9521 18.1793 35.8753 18.3707C31.7743 19.2005 27.8854 20.8574 24.4461 23.2403C21.0069 25.6232 18.0893 28.682 15.8716 32.2301C17.0913 32.5219 18.2543 33.0137 19.3134 33.6853C20.7344 34.5272 21.9747 35.642 22.963 36.9654C24.4643 39.4971 25.2618 42.3839 25.2729 45.3272C26.0365 51.6438 27.2562 57.8969 28.9225 64.0374C30.6612 57.2936 33.5527 50.9011 37.4691 45.1424C37.9264 44.4565 38.5451 43.8933 39.2709 43.5024C39.6564 43.274 40.0934 43.1469 40.5413 43.1328C41.3091 43.1181 42.0669 43.3096 42.7357 43.6872C42.9205 43.6872 42.9205 43.872 43.1053 43.872C43.6895 44.4304 44.2301 45.0327 44.7223 45.6737C45.6874 47.4447 46.5436 49.2729 47.2862 51.1481C48.7414 55.1443 50.0119 60.226 50.0119 60.226L53.6384 74.7784C54.9085 79.8067 56.5531 84.7328 58.5585 89.5156C64.1947 102.428 72.7413 106.054 72.7413 106.054C76.9619 108.251 81.6154 109.489 86.3697 109.681C90.8956 109.894 95.4017 108.957 99.4668 106.955C103.926 104.726 107.863 101.577 111.016 97.7157C112.916 95.1236 114.615 92.3899 116.098 89.5386C119.507 82.8238 122.134 75.74 123.929 68.4262C125.175 63.8688 126.147 59.2407 126.839 54.5668C127.209 52.2569 127.555 49.947 127.74 47.6371C128.14 45.4695 128.077 43.2416 127.555 41.1001C127.393 40.7305 127.393 40.361 127.209 39.9914C126.1 37.2991 124.114 35.0605 121.573 33.6392C119.744 32.4134 117.583 31.7766 115.382 31.8143C114.341 31.835 113.304 31.9588 112.287 32.1839C114.637 35.6152 116.648 39.2666 118.292 43.0866C119.01 44.7496 119.38 46.5419 119.378 48.3532C119.335 50.03 119.031 51.6899 118.477 53.2733C117.736 54.7689 116.821 56.1722 115.752 57.4542C114.628 58.722 113.184 59.6635 111.571 60.1799C109.996 60.7702 108.332 61.0828 106.651 61.1038C104.398 61.1453 102.185 60.5096 100.298 59.279L99.0048 64.176C98.0326 67.9396 96.6941 71.599 95.0087 75.1018C94.1081 77.2501 93.0182 79.3141 91.7517 81.2692C90.9235 82.6169 89.7191 83.6928 88.2869 84.3645C87.7543 84.5167 87.2 84.5791 86.6469 84.5492C86.0566 84.5351 85.4846 84.3418 85.0068 83.9949C84.0477 83.1912 83.2618 82.201 82.6969 81.0844C81.9621 79.8849 81.2988 78.6432 80.7104 77.3655C79.6248 74.6398 77.7999 67.918 77.7999 67.918L76.0906 60.7342L74.2658 53.6429L72.9954 48.9075C71.4662 42.4059 68.7488 36.2428 64.98 30.7287C61.3133 25.507 56.1031 21.565 50.0812 19.4563C47.7127 18.6015 45.2282 18.1108 42.7126 18.0011H39.1323Z" fill="white"/>
</mask>
<g mask="url(#mask24_240_6737)">
<path d="M18.3139 1.31972L2.20605 107.702L125.489 126.369L141.597 19.9865L18.3139 1.31972Z" fill="url(#paint24_radial_240_6737)"/>
</g>
<mask id="mask25_240_6737" style="mask-type:luminance" maskUnits="userSpaceOnUse" x="15" y="18" width="113" height="92">
<path d="M39.1323 18.0011C38.0399 18.0558 36.9521 18.1793 35.8753 18.3707C31.7743 19.2005 27.8854 20.8574 24.4461 23.2403C21.0069 25.6232 18.0893 28.682 15.8716 32.2301C17.0913 32.5219 18.2543 33.0137 19.3134 33.6853C20.7344 34.5272 21.9747 35.642 22.963 36.9654C24.4643 39.4971 25.2618 42.3839 25.2729 45.3272C26.0365 51.6438 27.2562 57.8969 28.9225 64.0374C30.6612 57.2936 33.5527 50.9011 37.4691 45.1424C37.9264 44.4565 38.5451 43.8933 39.2709 43.5024C39.6564 43.274 40.0934 43.1469 40.5413 43.1328C41.3091 43.1181 42.0669 43.3096 42.7357 43.6872C42.9205 43.6872 42.9205 43.872 43.1053 43.872C43.6895 44.4304 44.2301 45.0327 44.7223 45.6737C45.6874 47.4447 46.5436 49.2729 47.2862 51.1481C48.7414 55.1443 50.0119 60.226 50.0119 60.226L53.6384 74.7784C54.9085 79.8067 56.5531 84.7328 58.5585 89.5156C64.1947 102.428 72.7413 106.054 72.7413 106.054C76.9619 108.251 81.6154 109.489 86.3697 109.681C90.8956 109.894 95.4017 108.957 99.4668 106.955C103.926 104.726 107.863 101.577 111.016 97.7157C112.916 95.1236 114.615 92.3899 116.098 89.5386C119.507 82.8238 122.134 75.74 123.929 68.4262C125.175 63.8688 126.147 59.2407 126.839 54.5668C127.209 52.2569 127.555 49.947 127.74 47.6371C128.14 45.4695 128.077 43.2416 127.555 41.1001C127.393 40.7305 127.393 40.361 127.209 39.9914C126.1 37.2991 124.114 35.0605 121.573 33.6392C119.744 32.4134 117.583 31.7766 115.382 31.8143C114.341 31.835 113.304 31.9588 112.287 32.1839C114.637 35.6152 116.648 39.2666 118.292 43.0866C119.01 44.7496 119.38 46.5419 119.378 48.3532C119.335 50.03 119.031 51.6899 118.477 53.2733C117.736 54.7689 116.821 56.1722 115.752 57.4542C114.628 58.722 113.184 59.6635 111.571 60.1799C109.996 60.7702 108.332 61.0828 106.651 61.1038C104.398 61.1453 102.185 60.5096 100.298 59.279L99.0048 64.176C98.0326 67.9396 96.6941 71.599 95.0087 75.1018C94.1081 77.2501 93.0182 79.3141 91.7517 81.2692C90.9235 82.6169 89.7191 83.6928 88.2869 84.3645C87.7543 84.5167 87.2 84.5791 86.6469 84.5492C86.0566 84.5351 85.4846 84.3418 85.0068 83.9949C84.0477 83.1912 83.2618 82.201 82.6969 81.0844C81.9621 79.8849 81.2988 78.6432 80.7104 77.3655C79.6248 74.6398 77.7999 67.918 77.7999 67.918L76.0906 60.7342L74.2658 53.6429L72.9954 48.9075C71.4662 42.4059 68.7488 36.2428 64.98 30.7287C61.3133 25.507 56.1031 21.565 50.0812 19.4563C47.7127 18.6015 45.2282 18.1108 42.7126 18.0011H39.1323Z" fill="white"/>
</mask>
<g mask="url(#mask25_240_6737)">
<path d="M126.398 4.59506L4.86279 19.324L17.4546 123.225L138.99 108.496L126.398 4.59506Z" fill="url(#paint25_radial_240_6737)"/>
</g>
<mask id="mask26_240_6737" style="mask-type:luminance" maskUnits="userSpaceOnUse" x="15" y="18" width="113" height="92">
<path d="M39.1323 18.0011C38.0399 18.0558 36.9521 18.1793 35.8753 18.3707C31.7743 19.2005 27.8854 20.8574 24.4461 23.2403C21.0069 25.6232 18.0893 28.682 15.8716 32.2301C17.0913 32.5219 18.2543 33.0137 19.3134 33.6853C20.7344 34.5272 21.9747 35.642 22.963 36.9654C24.4643 39.4971 25.2618 42.3839 25.2729 45.3272C26.0365 51.6438 27.2562 57.8969 28.9225 64.0374C30.6612 57.2936 33.5527 50.9011 37.4691 45.1424C37.9264 44.4565 38.5451 43.8933 39.2709 43.5024C39.6564 43.274 40.0934 43.1469 40.5413 43.1328C41.3091 43.1181 42.0669 43.3096 42.7357 43.6872C42.9205 43.6872 42.9205 43.872 43.1053 43.872C43.6895 44.4304 44.2301 45.0327 44.7223 45.6737C45.6874 47.4447 46.5436 49.2729 47.2862 51.1481C48.7414 55.1443 50.0119 60.226 50.0119 60.226L53.6384 74.7784C54.9085 79.8067 56.5531 84.7328 58.5585 89.5156C64.1947 102.428 72.7413 106.054 72.7413 106.054C76.9619 108.251 81.6154 109.489 86.3697 109.681C90.8956 109.894 95.4017 108.957 99.4668 106.955C103.926 104.726 107.863 101.577 111.016 97.7157C112.916 95.1236 114.615 92.3899 116.098 89.5386C119.507 82.8238 122.134 75.74 123.929 68.4262C125.175 63.8688 126.147 59.2407 126.839 54.5668C127.209 52.2569 127.555 49.947 127.74 47.6371C128.14 45.4695 128.077 43.2416 127.555 41.1001C127.393 40.7305 127.393 40.361 127.209 39.9914C126.1 37.2991 124.114 35.0605 121.573 33.6392C119.744 32.4134 117.583 31.7766 115.382 31.8143C114.341 31.835 113.304 31.9588 112.287 32.1839C114.637 35.6152 116.648 39.2666 118.292 43.0866C119.01 44.7496 119.38 46.5419 119.378 48.3532C119.335 50.03 119.031 51.6899 118.477 53.2733C117.736 54.7689 116.821 56.1722 115.752 57.4542C114.628 58.722 113.184 59.6635 111.571 60.1799C109.996 60.7702 108.332 61.0828 106.651 61.1038C104.398 61.1453 102.185 60.5096 100.298 59.279L99.0048 64.176C98.0326 67.9396 96.6941 71.599 95.0087 75.1018C94.1081 77.2501 93.0182 79.3141 91.7517 81.2692C90.9235 82.6169 89.7191 83.6928 88.2869 84.3645C87.7543 84.5167 87.2 84.5791 86.6469 84.5492C86.0566 84.5351 85.4846 84.3418 85.0068 83.9949C84.0477 83.1912 83.2618 82.201 82.6969 81.0844C81.9621 79.8849 81.2988 78.6432 80.7104 77.3655C79.6248 74.6398 77.7999 67.918 77.7999 67.918L76.0906 60.7342L74.2658 53.6429L72.9954 48.9075C71.4662 42.4059 68.7488 36.2428 64.98 30.7287C61.3133 25.507 56.1031 21.565 50.0812 19.4563C47.7127 18.6015 45.2282 18.1108 42.7126 18.0011H39.1323Z" fill="white"/>
</mask>
<g mask="url(#mask26_240_6737)">
<path d="M120.174 -10.6753L-7.61084 24.4266L23.716 138.469L151.501 103.367L120.174 -10.6753Z" fill="url(#paint26_radial_240_6737)"/>
</g>
<mask id="mask27_240_6737" style="mask-type:luminance" maskUnits="userSpaceOnUse" x="15" y="18" width="113" height="92">
<path d="M39.1323 18.0011C38.0399 18.0558 36.9521 18.1793 35.8753 18.3707C31.7743 19.2005 27.8854 20.8574 24.4461 23.2403C21.0069 25.6232 18.0893 28.682 15.8716 32.2301C17.0913 32.5219 18.2543 33.0137 19.3134 33.6853C20.7344 34.5272 21.9747 35.642 22.963 36.9654C24.4643 39.4971 25.2618 42.3839 25.2729 45.3272C26.0365 51.6438 27.2562 57.8969 28.9225 64.0374C30.6612 57.2936 33.5527 50.9011 37.4691 45.1424C37.9264 44.4565 38.5451 43.8933 39.2709 43.5024C39.6564 43.274 40.0934 43.1469 40.5413 43.1328C41.3091 43.1181 42.0669 43.3096 42.7357 43.6872C42.9205 43.6872 42.9205 43.872 43.1053 43.872C43.6895 44.4304 44.2301 45.0327 44.7223 45.6737C45.6874 47.4447 46.5436 49.2729 47.2862 51.1481C48.7414 55.1443 50.0119 60.226 50.0119 60.226L53.6384 74.7784C54.9085 79.8067 56.5531 84.7328 58.5585 89.5156C64.1947 102.428 72.7413 106.054 72.7413 106.054C76.9619 108.251 81.6154 109.489 86.3697 109.681C90.8956 109.894 95.4017 108.957 99.4668 106.955C103.926 104.726 107.863 101.577 111.016 97.7157C112.916 95.1236 114.615 92.3899 116.098 89.5386C119.507 82.8238 122.134 75.74 123.929 68.4262C125.175 63.8688 126.147 59.2407 126.839 54.5668C127.209 52.2569 127.555 49.947 127.74 47.6371C128.14 45.4695 128.077 43.2416 127.555 41.1001C127.393 40.7305 127.393 40.361 127.209 39.9914C126.1 37.2991 124.114 35.0605 121.573 33.6392C119.744 32.4134 117.583 31.7766 115.382 31.8143C114.341 31.835 113.304 31.9588 112.287 32.1839C114.637 35.6152 116.648 39.2666 118.292 43.0866C119.01 44.7496 119.38 46.5419 119.378 48.3532C119.335 50.03 119.031 51.6899 118.477 53.2733C117.736 54.7689 116.821 56.1722 115.752 57.4542C114.628 58.722 113.184 59.6635 111.571 60.1799C109.996 60.7702 108.332 61.0828 106.651 61.1038C104.398 61.1453 102.185 60.5096 100.298 59.279L99.0048 64.176C98.0326 67.9396 96.6941 71.599 95.0087 75.1018C94.1081 77.2501 93.0182 79.3141 91.7517 81.2692C90.9235 82.6169 89.7191 83.6928 88.2869 84.3645C87.7543 84.5167 87.2 84.5791 86.6469 84.5492C86.0566 84.5351 85.4846 84.3418 85.0068 83.9949C84.0477 83.1912 83.2618 82.201 82.6969 81.0844C81.9621 79.8849 81.2988 78.6432 80.7104 77.3655C79.6248 74.6398 77.7999 67.918 77.7999 67.918L76.0906 60.7342L74.2658 53.6429L72.9954 48.9075C71.4662 42.4059 68.7488 36.2428 64.98 30.7287C61.3133 25.507 56.1031 21.565 50.0812 19.4563C47.7127 18.6015 45.2282 18.1108 42.7126 18.0011H39.1323Z" fill="white"/>
</mask>
<g mask="url(#mask27_240_6737)">
<path d="M120.174 -10.6753L-7.61084 24.4266L23.716 138.469L151.501 103.367L120.174 -10.6753Z" fill="url(#paint27_radial_240_6737)"/>
</g>
<mask id="mask28_240_6737" style="mask-type:luminance" maskUnits="userSpaceOnUse" x="15" y="18" width="113" height="92">
<path d="M39.1323 18.0011C38.0399 18.0558 36.9521 18.1793 35.8753 18.3707C31.7743 19.2005 27.8854 20.8574 24.4461 23.2403C21.0069 25.6232 18.0893 28.682 15.8716 32.2301C17.0913 32.5219 18.2543 33.0137 19.3134 33.6853C20.7344 34.5272 21.9747 35.642 22.963 36.9654C24.4643 39.4971 25.2618 42.3839 25.2729 45.3272C26.0365 51.6438 27.2562 57.8969 28.9225 64.0374C30.6612 57.2936 33.5527 50.9011 37.4691 45.1424C37.9264 44.4565 38.5451 43.8933 39.2709 43.5024C39.6564 43.274 40.0934 43.1469 40.5413 43.1328C41.3091 43.1181 42.0669 43.3096 42.7357 43.6872C42.9205 43.6872 42.9205 43.872 43.1053 43.872C43.6895 44.4304 44.2301 45.0327 44.7223 45.6737C45.6874 47.4447 46.5436 49.2729 47.2862 51.1481C48.7414 55.1443 50.0119 60.226 50.0119 60.226L53.6384 74.7784C54.9085 79.8067 56.5531 84.7328 58.5585 89.5156C64.1947 102.428 72.7413 106.054 72.7413 106.054C76.9619 108.251 81.6154 109.489 86.3697 109.681C90.8956 109.894 95.4017 108.957 99.4668 106.955C103.926 104.726 107.863 101.577 111.016 97.7157C112.916 95.1236 114.615 92.3899 116.098 89.5386C119.507 82.8238 122.134 75.74 123.929 68.4262C125.175 63.8688 126.147 59.2407 126.839 54.5668C127.209 52.2569 127.555 49.947 127.74 47.6371C128.14 45.4695 128.077 43.2416 127.555 41.1001C127.393 40.7305 127.393 40.361 127.209 39.9914C126.1 37.2991 124.114 35.0605 121.573 33.6392C119.744 32.4134 117.583 31.7766 115.382 31.8143C114.341 31.835 113.304 31.9588 112.287 32.1839C114.637 35.6152 116.648 39.2666 118.292 43.0866C119.01 44.7496 119.38 46.5419 119.378 48.3532C119.335 50.03 119.031 51.6899 118.477 53.2733C117.736 54.7689 116.821 56.1722 115.752 57.4542C114.628 58.722 113.184 59.6635 111.571 60.1799C109.996 60.7702 108.332 61.0828 106.651 61.1038C104.398 61.1453 102.185 60.5096 100.298 59.279L99.0048 64.176C98.0326 67.9396 96.6941 71.599 95.0087 75.1018C94.1081 77.2501 93.0182 79.3141 91.7517 81.2692C90.9235 82.6169 89.7191 83.6928 88.2869 84.3645C87.7543 84.5167 87.2 84.5791 86.6469 84.5492C86.0566 84.5351 85.4846 84.3418 85.0068 83.9949C84.0477 83.1912 83.2618 82.201 82.6969 81.0844C81.9621 79.8849 81.2988 78.6432 80.7104 77.3655C79.6248 74.6398 77.7999 67.918 77.7999 67.918L76.0906 60.7342L74.2658 53.6429L72.9954 48.9075C71.4662 42.4059 68.7488 36.2428 64.98 30.7287C61.3133 25.507 56.1031 21.565 50.0812 19.4563C47.7127 18.6015 45.2282 18.1108 42.7126 18.0011H39.1323Z" fill="white"/>
</mask>
<g mask="url(#mask28_240_6737)">
<path d="M120.174 -10.6753L-7.61084 24.4266L23.716 138.469L151.501 103.367L120.174 -10.6753Z" fill="url(#paint28_radial_240_6737)"/>
</g>
<mask id="mask29_240_6737" style="mask-type:luminance" maskUnits="userSpaceOnUse" x="15" y="18" width="113" height="92">
<path d="M39.1323 18.0011C38.0399 18.0558 36.9521 18.1793 35.8753 18.3707C31.7743 19.2005 27.8854 20.8574 24.4461 23.2403C21.0069 25.6232 18.0893 28.682 15.8716 32.2301C17.0913 32.5219 18.2543 33.0137 19.3134 33.6853C20.7344 34.5272 21.9747 35.642 22.963 36.9654C24.4643 39.4971 25.2618 42.3839 25.2729 45.3272C26.0365 51.6438 27.2562 57.8969 28.9225 64.0374C30.6612 57.2936 33.5527 50.9011 37.4691 45.1424C37.9264 44.4565 38.5451 43.8933 39.2709 43.5024C39.6564 43.274 40.0934 43.1469 40.5413 43.1328C41.3091 43.1181 42.0669 43.3096 42.7357 43.6872C42.9205 43.6872 42.9205 43.872 43.1053 43.872C43.6895 44.4304 44.2301 45.0327 44.7223 45.6737C45.6874 47.4447 46.5436 49.2729 47.2862 51.1481C48.7414 55.1443 50.0119 60.226 50.0119 60.226L53.6384 74.7784C54.9085 79.8067 56.5531 84.7328 58.5585 89.5156C64.1947 102.428 72.7413 106.054 72.7413 106.054C76.9619 108.251 81.6154 109.489 86.3697 109.681C90.8956 109.894 95.4017 108.957 99.4668 106.955C103.926 104.726 107.863 101.577 111.016 97.7157C112.916 95.1236 114.615 92.3899 116.098 89.5386C119.507 82.8238 122.134 75.74 123.929 68.4262C125.175 63.8688 126.147 59.2407 126.839 54.5668C127.209 52.2569 127.555 49.947 127.74 47.6371C128.14 45.4695 128.077 43.2416 127.555 41.1001C127.393 40.7305 127.393 40.361 127.209 39.9914C126.1 37.2991 124.114 35.0605 121.573 33.6392C119.744 32.4134 117.583 31.7766 115.382 31.8143C114.341 31.835 113.304 31.9588 112.287 32.1839C114.637 35.6152 116.648 39.2666 118.292 43.0866C119.01 44.7496 119.38 46.5419 119.378 48.3532C119.335 50.03 119.031 51.6899 118.477 53.2733C117.736 54.7689 116.821 56.1722 115.752 57.4542C114.628 58.722 113.184 59.6635 111.571 60.1799C109.996 60.7702 108.332 61.0828 106.651 61.1038C104.398 61.1453 102.185 60.5096 100.298 59.279L99.0048 64.176C98.0326 67.9396 96.6941 71.599 95.0087 75.1018C94.1081 77.2501 93.0182 79.3141 91.7517 81.2692C90.9235 82.6169 89.7191 83.6928 88.2869 84.3645C87.7543 84.5167 87.2 84.5791 86.6469 84.5492C86.0566 84.5351 85.4846 84.3418 85.0068 83.9949C84.0477 83.1912 83.2618 82.201 82.6969 81.0844C81.9621 79.8849 81.2988 78.6432 80.7104 77.3655C79.6248 74.6398 77.7999 67.918 77.7999 67.918L76.0906 60.7342L74.2658 53.6429L72.9954 48.9075C71.4662 42.4059 68.7488 36.2428 64.98 30.7287C61.3133 25.507 56.1031 21.565 50.0812 19.4563C47.7127 18.6015 45.2282 18.1108 42.7126 18.0011H39.1323Z" fill="white"/>
</mask>
<g mask="url(#mask29_240_6737)">
<path d="M110.951 -22.2901L-17.1641 32.0123L32.9197 150.174L161.035 95.8718L110.951 -22.2901Z" fill="url(#paint29_radial_240_6737)"/>
</g>
<mask id="mask30_240_6737" style="mask-type:luminance" maskUnits="userSpaceOnUse" x="15" y="18" width="113" height="92">
<path d="M39.1323 18.0011C38.0399 18.0558 36.9521 18.1793 35.8753 18.3707C31.7743 19.2005 27.8854 20.8574 24.4461 23.2403C21.0069 25.6232 18.0893 28.682 15.8716 32.2301C17.0913 32.5219 18.2543 33.0137 19.3134 33.6853C20.7344 34.5272 21.9747 35.642 22.963 36.9654C24.4643 39.4971 25.2618 42.3839 25.2729 45.3272C26.0365 51.6438 27.2562 57.8969 28.9225 64.0374C30.6612 57.2936 33.5527 50.9011 37.4691 45.1424C37.9264 44.4565 38.5451 43.8933 39.2709 43.5024C39.6564 43.274 40.0934 43.1469 40.5413 43.1328C41.3091 43.1181 42.0669 43.3096 42.7357 43.6872C42.9205 43.6872 42.9205 43.872 43.1053 43.872C43.6895 44.4304 44.2301 45.0327 44.7223 45.6737C45.6874 47.4447 46.5436 49.2729 47.2862 51.1481C48.7414 55.1443 50.0119 60.226 50.0119 60.226L53.6384 74.7784C54.9085 79.8067 56.5531 84.7328 58.5585 89.5156C64.1947 102.428 72.7413 106.054 72.7413 106.054C76.9619 108.251 81.6154 109.489 86.3697 109.681C90.8956 109.894 95.4017 108.957 99.4668 106.955C103.926 104.726 107.863 101.577 111.016 97.7157C112.916 95.1236 114.615 92.3899 116.098 89.5386C119.507 82.8238 122.134 75.74 123.929 68.4262C125.175 63.8688 126.147 59.2407 126.839 54.5668C127.209 52.2569 127.555 49.947 127.74 47.6371C128.14 45.4695 128.077 43.2416 127.555 41.1001C127.393 40.7305 127.393 40.361 127.209 39.9914C126.1 37.2991 124.114 35.0605 121.573 33.6392C119.744 32.4134 117.583 31.7766 115.382 31.8143C114.341 31.835 113.304 31.9588 112.287 32.1839C114.637 35.6152 116.648 39.2666 118.292 43.0866C119.01 44.7496 119.38 46.5419 119.378 48.3532C119.335 50.03 119.031 51.6899 118.477 53.2733C117.736 54.7689 116.821 56.1722 115.752 57.4542C114.628 58.722 113.184 59.6635 111.571 60.1799C109.996 60.7702 108.332 61.0828 106.651 61.1038C104.398 61.1453 102.185 60.5096 100.298 59.279L99.0048 64.176C98.0326 67.9396 96.6941 71.599 95.0087 75.1018C94.1081 77.2501 93.0182 79.3141 91.7517 81.2692C90.9235 82.6169 89.7191 83.6928 88.2869 84.3645C87.7543 84.5167 87.2 84.5791 86.6469 84.5492C86.0566 84.5351 85.4846 84.3418 85.0068 83.9949C84.0477 83.1912 83.2618 82.201 82.6969 81.0844C81.9621 79.8849 81.2988 78.6432 80.7104 77.3655C79.6248 74.6398 77.7999 67.918 77.7999 67.918L76.0906 60.7342L74.2658 53.6429L72.9954 48.9075C71.4662 42.4059 68.7488 36.2428 64.98 30.7287C61.3133 25.507 56.1031 21.565 50.0812 19.4563C47.7127 18.6015 45.2282 18.1108 42.7126 18.0011H39.1323Z" fill="white"/>
</mask>
<g mask="url(#mask30_240_6737)">
<path d="M121.601 -8.19831L-5.53467 23.2646L22.3547 135.96L149.491 104.497L121.601 -8.19831Z" fill="url(#paint30_radial_240_6737)"/>
</g>
<mask id="mask31_240_6737" style="mask-type:luminance" maskUnits="userSpaceOnUse" x="15" y="18" width="113" height="92">
<path d="M39.1323 18.0011C38.0399 18.0558 36.9521 18.1793 35.8753 18.3707C31.7743 19.2005 27.8854 20.8574 24.4461 23.2403C21.0069 25.6232 18.0893 28.682 15.8716 32.2301C17.0913 32.5219 18.2543 33.0137 19.3134 33.6853C20.7344 34.5272 21.9747 35.642 22.963 36.9654C24.4643 39.4971 25.2618 42.3839 25.2729 45.3272C26.0365 51.6438 27.2562 57.8969 28.9225 64.0374C30.6612 57.2936 33.5527 50.9011 37.4691 45.1424C37.9264 44.4565 38.5451 43.8933 39.2709 43.5024C39.6564 43.274 40.0934 43.1469 40.5413 43.1328C41.3091 43.1181 42.0669 43.3096 42.7357 43.6872C42.9205 43.6872 42.9205 43.872 43.1053 43.872C43.6895 44.4304 44.2301 45.0327 44.7223 45.6737C45.6874 47.4447 46.5436 49.2729 47.2862 51.1481C48.7414 55.1443 50.0119 60.226 50.0119 60.226L53.6384 74.7784C54.9085 79.8067 56.5531 84.7328 58.5585 89.5156C64.1947 102.428 72.7413 106.054 72.7413 106.054C76.9619 108.251 81.6154 109.489 86.3697 109.681C90.8956 109.894 95.4017 108.957 99.4668 106.955C103.926 104.726 107.863 101.577 111.016 97.7157C112.916 95.1236 114.615 92.3899 116.098 89.5386C119.507 82.8238 122.134 75.74 123.929 68.4262C125.175 63.8688 126.147 59.2407 126.839 54.5668C127.209 52.2569 127.555 49.947 127.74 47.6371C128.14 45.4695 128.077 43.2416 127.555 41.1001C127.393 40.7305 127.393 40.361 127.209 39.9914C126.1 37.2991 124.114 35.0605 121.573 33.6392C119.744 32.4134 117.583 31.7766 115.382 31.8143C114.341 31.835 113.304 31.9588 112.287 32.1839C114.637 35.6152 116.648 39.2666 118.292 43.0866C119.01 44.7496 119.38 46.5419 119.378 48.3532C119.335 50.03 119.031 51.6899 118.477 53.2733C117.736 54.7689 116.821 56.1722 115.752 57.4542C114.628 58.722 113.184 59.6635 111.571 60.1799C109.996 60.7702 108.332 61.0828 106.651 61.1038C104.398 61.1453 102.185 60.5096 100.298 59.279L99.0048 64.176C98.0326 67.9396 96.6941 71.599 95.0087 75.1018C94.1081 77.2501 93.0182 79.3141 91.7517 81.2692C90.9235 82.6169 89.7191 83.6928 88.2869 84.3645C87.7543 84.5167 87.2 84.5791 86.6469 84.5492C86.0566 84.5351 85.4846 84.3418 85.0068 83.9949C84.0477 83.1912 83.2618 82.201 82.6969 81.0844C81.9621 79.8849 81.2988 78.6432 80.7104 77.3655C79.6248 74.6398 77.7999 67.918 77.7999 67.918L76.0906 60.7342L74.2658 53.6429L72.9954 48.9075C71.4662 42.4059 68.7488 36.2428 64.98 30.7287C61.3133 25.507 56.1031 21.565 50.0812 19.4563C47.7127 18.6015 45.2282 18.1108 42.7126 18.0011H39.1323Z" fill="white"/>
</mask>
<g mask="url(#mask31_240_6737)">
<path d="M121.601 -8.19831L-5.53467 23.2646L22.3547 135.96L149.491 104.497L121.601 -8.19831Z" fill="url(#paint31_radial_240_6737)"/>
</g>
<mask id="mask32_240_6737" style="mask-type:luminance" maskUnits="userSpaceOnUse" x="15" y="18" width="113" height="92">
<path d="M39.1323 18.0011C38.0399 18.0558 36.9521 18.1793 35.8753 18.3707C31.7743 19.2005 27.8854 20.8574 24.4461 23.2403C21.0069 25.6232 18.0893 28.682 15.8716 32.2301C17.0913 32.5219 18.2543 33.0137 19.3134 33.6853C20.7344 34.5272 21.9747 35.642 22.963 36.9654C24.4643 39.4971 25.2618 42.3839 25.2729 45.3272C26.0365 51.6438 27.2562 57.8969 28.9225 64.0374C30.6612 57.2936 33.5527 50.9011 37.4691 45.1424C37.9264 44.4565 38.5451 43.8933 39.2709 43.5024C39.6564 43.274 40.0934 43.1469 40.5413 43.1328C41.3091 43.1181 42.0669 43.3096 42.7357 43.6872C42.9205 43.6872 42.9205 43.872 43.1053 43.872C43.6895 44.4304 44.2301 45.0327 44.7223 45.6737C45.6874 47.4447 46.5436 49.2729 47.2862 51.1481C48.7414 55.1443 50.0119 60.226 50.0119 60.226L53.6384 74.7784C54.9085 79.8067 56.5531 84.7328 58.5585 89.5156C64.1947 102.428 72.7413 106.054 72.7413 106.054C76.9619 108.251 81.6154 109.489 86.3697 109.681C90.8956 109.894 95.4017 108.957 99.4668 106.955C103.926 104.726 107.863 101.577 111.016 97.7157C112.916 95.1236 114.615 92.3899 116.098 89.5386C119.507 82.8238 122.134 75.74 123.929 68.4262C125.175 63.8688 126.147 59.2407 126.839 54.5668C127.209 52.2569 127.555 49.947 127.74 47.6371C128.14 45.4695 128.077 43.2416 127.555 41.1001C127.393 40.7305 127.393 40.361 127.209 39.9914C126.1 37.2991 124.114 35.0605 121.573 33.6392C119.744 32.4134 117.583 31.7766 115.382 31.8143C114.341 31.835 113.304 31.9588 112.287 32.1839C114.637 35.6152 116.648 39.2666 118.292 43.0866C119.01 44.7496 119.38 46.5419 119.378 48.3532C119.335 50.03 119.031 51.6899 118.477 53.2733C117.736 54.7689 116.821 56.1722 115.752 57.4542C114.628 58.722 113.184 59.6635 111.571 60.1799C109.996 60.7702 108.332 61.0828 106.651 61.1038C104.398 61.1453 102.185 60.5096 100.298 59.279L99.0048 64.176C98.0326 67.9396 96.6941 71.599 95.0087 75.1018C94.1081 77.2501 93.0182 79.3141 91.7517 81.2692C90.9235 82.6169 89.7191 83.6928 88.2869 84.3645C87.7543 84.5167 87.2 84.5791 86.6469 84.5492C86.0566 84.5351 85.4846 84.3418 85.0068 83.9949C84.0477 83.1912 83.2618 82.201 82.6969 81.0844C81.9621 79.8849 81.2988 78.6432 80.7104 77.3655C79.6248 74.6398 77.7999 67.918 77.7999 67.918L76.0906 60.7342L74.2658 53.6429L72.9954 48.9075C71.4662 42.4059 68.7488 36.2428 64.98 30.7287C61.3133 25.507 56.1031 21.565 50.0812 19.4563C47.7127 18.6015 45.2282 18.1108 42.7126 18.0011H39.1323Z" fill="white"/>
</mask>
<g mask="url(#mask32_240_6737)">
<path d="M121.601 -8.22126L-5.53467 23.2417L22.3547 135.937L149.491 104.475L121.601 -8.22126Z" fill="url(#paint32_radial_240_6737)"/>
</g>
<mask id="mask33_240_6737" style="mask-type:luminance" maskUnits="userSpaceOnUse" x="15" y="18" width="113" height="92">
<path d="M39.1323 18.0011C38.0399 18.0558 36.9521 18.1793 35.8753 18.3707C31.7743 19.2005 27.8854 20.8574 24.4461 23.2403C21.0069 25.6232 18.0893 28.682 15.8716 32.2301C17.0913 32.5219 18.2543 33.0137 19.3134 33.6853C20.7344 34.5272 21.9747 35.642 22.963 36.9654C24.4643 39.4971 25.2618 42.3839 25.2729 45.3272C26.0365 51.6438 27.2562 57.8969 28.9225 64.0374C30.6612 57.2936 33.5527 50.9011 37.4691 45.1424C37.9264 44.4565 38.5451 43.8933 39.2709 43.5024C39.6564 43.274 40.0934 43.1469 40.5413 43.1328C41.3091 43.1181 42.0669 43.3096 42.7357 43.6872C42.9205 43.6872 42.9205 43.872 43.1053 43.872C43.6895 44.4304 44.2301 45.0327 44.7223 45.6737C45.6874 47.4447 46.5436 49.2729 47.2862 51.1481C48.7414 55.1443 50.0119 60.226 50.0119 60.226L53.6384 74.7784C54.9085 79.8067 56.5531 84.7328 58.5585 89.5156C64.1947 102.428 72.7413 106.054 72.7413 106.054C76.9619 108.251 81.6154 109.489 86.3697 109.681C90.8956 109.894 95.4017 108.957 99.4668 106.955C103.926 104.726 107.863 101.577 111.016 97.7157C112.916 95.1236 114.615 92.3899 116.098 89.5386C119.507 82.8238 122.134 75.74 123.929 68.4262C125.175 63.8688 126.147 59.2407 126.839 54.5668C127.209 52.2569 127.555 49.947 127.74 47.6371C128.14 45.4695 128.077 43.2416 127.555 41.1001C127.393 40.7305 127.393 40.361 127.209 39.9914C126.1 37.2991 124.114 35.0605 121.573 33.6392C119.744 32.4134 117.583 31.7766 115.382 31.8143C114.341 31.835 113.304 31.9588 112.287 32.1839C114.637 35.6152 116.648 39.2666 118.292 43.0866C119.01 44.7496 119.38 46.5419 119.378 48.3532C119.335 50.03 119.031 51.6899 118.477 53.2733C117.736 54.7689 116.821 56.1722 115.752 57.4542C114.628 58.722 113.184 59.6635 111.571 60.1799C109.996 60.7702 108.332 61.0828 106.651 61.1038C104.398 61.1453 102.185 60.5096 100.298 59.279L99.0048 64.176C98.0326 67.9396 96.6941 71.599 95.0087 75.1018C94.1081 77.2501 93.0182 79.3141 91.7517 81.2692C90.9235 82.6169 89.7191 83.6928 88.2869 84.3645C87.7543 84.5167 87.2 84.5791 86.6469 84.5492C86.0566 84.5351 85.4846 84.3418 85.0068 83.9949C84.0477 83.1912 83.2618 82.201 82.6969 81.0844C81.9621 79.8849 81.2988 78.6432 80.7104 77.3655C79.6248 74.6398 77.7999 67.918 77.7999 67.918L76.0906 60.7342L74.2658 53.6429L72.9954 48.9075C71.4662 42.4059 68.7488 36.2428 64.98 30.7287C61.3133 25.507 56.1031 21.565 50.0812 19.4563C47.7127 18.6015 45.2282 18.1108 42.7126 18.0011H39.1323Z" fill="white"/>
</mask>
<g mask="url(#mask33_240_6737)">
<path d="M127.758 12.4169L11.2539 18.2372L16.1096 115.432L132.614 109.612L127.758 12.4169Z" fill="url(#paint33_radial_240_6737)"/>
</g>
<defs>
<linearGradient id="paint0_linear_240_6737" x1="7.36616" y1="84.2641" x2="107.404" y2="43.826" gradientUnits="userSpaceOnUse">
<stop stop-color="#1CBBF3"/>
<stop offset="0.13" stop-color="#1CBBF3"/>
<stop offset="0.34" stop-color="#1F99A5"/>
<stop offset="0.45" stop-color="#209CA6"/>
<stop offset="0.51" stop-color="#24A4AA"/>
<stop offset="0.57" stop-color="#2BB3B0"/>
<stop offset="0.6" stop-color="#30BDB4"/>
<stop offset="0.79" stop-color="#38BA90"/>
<stop offset="1" stop-color="#60F05A"/>
</linearGradient>
<radialGradient id="paint1_radial_240_6737" cx="0" cy="0" r="1" gradientUnits="userSpaceOnUse" gradientTransform="translate(69.7185 56.7287) rotate(74.32) scale(47.8103 36.3322)">
<stop stop-color="#227B60"/>
<stop offset="0.14" stop-color="#227B60"/>
<stop offset="0.58" stop-color="#227B60"/>
<stop offset="0.78" stop-color="#227B60"/>
<stop offset="1" stop-color="#227B60"/>
</radialGradient>
<radialGradient id="paint2_radial_240_6737" cx="0" cy="0" r="1" gradientUnits="userSpaceOnUse" gradientTransform="translate(75.9659 54.3322) rotate(91.15) scale(32.3358 24.5621)">
<stop stop-color="#227B60"/>
<stop offset="0.25" stop-color="#227B60"/>
<stop offset="0.71" stop-color="#227B60"/>
<stop offset="0.92" stop-color="#227B60"/>
<stop offset="1" stop-color="#227B60"/>
</radialGradient>
<radialGradient id="paint3_radial_240_6737" cx="0" cy="0" r="1" gradientUnits="userSpaceOnUse" gradientTransform="translate(81.6081 56.7083) rotate(88.6) scale(30.146 21.4051)">
<stop stop-color="#227B60"/>
<stop offset="0.07" stop-color="#227B60"/>
<stop offset="0.34" stop-color="#227B60"/>
<stop offset="0.59" stop-color="#227B60"/>
<stop offset="0.79" stop-color="#227B60"/>
<stop offset="0.92" stop-color="#227B60"/>
<stop offset="1" stop-color="#227B60"/>
</radialGradient>
<radialGradient id="paint4_radial_240_6737" cx="0" cy="0" r="1" gradientUnits="userSpaceOnUse" gradientTransform="translate(80.2351 55.4959) rotate(88.6) scale(24.3431 17.281)">
<stop stop-color="#227B60"/>
<stop offset="0.36" stop-color="#227B60"/>
<stop offset="0.92" stop-color="#227B60"/>
<stop offset="1" stop-color="#227B60"/>
</radialGradient>
<radialGradient id="paint5_radial_240_6737" cx="0" cy="0" r="1" gradientUnits="userSpaceOnUse" gradientTransform="translate(82.2924 56.43) rotate(88.6) scale(19.4161 12.427)">
<stop stop-color="#20735A"/>
<stop offset="0.15" stop-color="#20745A"/>
<stop offset="0.38" stop-color="#21755C"/>
<stop offset="0.67" stop-color="#21785D"/>
<stop offset="1" stop-color="#227B60"/>
</radialGradient>
<radialGradient id="paint6_radial_240_6737" cx="0" cy="0" r="1" gradientUnits="userSpaceOnUse" gradientTransform="translate(80.9274 52.4954) rotate(23.8) scale(31.2227 23.4307)">
<stop stop-color="#227A61"/>
<stop offset="0.36" stop-color="#227A61"/>
<stop offset="0.72" stop-color="#227A61"/>
<stop offset="0.9" stop-color="#227A61"/>
<stop offset="1" stop-color="#227A61"/>
</radialGradient>
<radialGradient id="paint7_radial_240_6737" cx="0" cy="0" r="1" gradientUnits="userSpaceOnUse" gradientTransform="translate(69.1989 5.18061) rotate(35.27) scale(41.6424 38.084)">
<stop stop-color="#3CD9C3"/>
<stop offset="0.07" stop-color="#3BD7C1"/>
<stop offset="0.41" stop-color="#38CEB9"/>
<stop offset="0.65" stop-color="#36C8B4"/>
<stop offset="0.76" stop-color="#35C6B2"/>
<stop offset="1" stop-color="#35C6B2"/>
</radialGradient>
<radialGradient id="paint8_radial_240_6737" cx="0" cy="0" r="1" gradientTransform="matrix(6041.24 4272.89 2998.49 -4239.44 -68058.4 -92502.1)" gradientUnits="userSpaceOnUse">
<stop stop-color="#3CD9C3"/>
<stop offset="0.07" stop-color="#3BD7C1"/>
<stop offset="0.41" stop-color="#38CEB9"/>
<stop offset="0.65" stop-color="#36C8B4"/>
<stop offset="0.76" stop-color="#35C6B2"/>
<stop offset="1" stop-color="#35C6B2"/>
</radialGradient>
<radialGradient id="paint9_radial_240_6737" cx="0" cy="0" r="1" gradientUnits="userSpaceOnUse" gradientTransform="translate(91.9729 65.9777) rotate(100.97) scale(36.7336 45.4015)">
<stop stop-color="#237F66"/>
<stop offset="0.06" stop-color="#2C8C70"/>
<stop offset="0.21" stop-color="#3DA785"/>
<stop offset="0.35" stop-color="#4ABA93"/>
<stop offset="0.47" stop-color="#51C59C"/>
<stop offset="0.56" stop-color="#54C99F"/>
<stop offset="1" stop-color="#54C99F"/>
</radialGradient>
<radialGradient id="paint10_radial_240_6737" cx="0" cy="0" r="1" gradientUnits="userSpaceOnUse" gradientTransform="translate(64.7919 68.0647) rotate(-50.82) scale(47.9928 51.8431)">
<stop stop-color="#167C8A"/>
<stop offset="0.04" stop-color="#167C8A"/>
<stop offset="0.33" stop-color="#177F8D"/>
<stop offset="0.54" stop-color="#17818F"/>
<stop offset="0.65" stop-color="#178290"/>
<stop offset="1" stop-color="#178290"/>
</radialGradient>
<radialGradient id="paint11_radial_240_6737" cx="0" cy="0" r="1" gradientUnits="userSpaceOnUse" gradientTransform="translate(65.2387 73.9177) rotate(-31.66) scale(46.8248 36.9891)">
<stop stop-color="#177D87"/>
<stop offset="0.05" stop-color="#177D87"/>
<stop offset="0.11" stop-color="#177E89"/>
<stop offset="0.21" stop-color="#177F8B"/>
<stop offset="0.32" stop-color="#17818D"/>
<stop offset="0.42" stop-color="#17818F"/>
<stop offset="0.51" stop-color="#178290"/>
<stop offset="0.6" stop-color="#178290"/>
<stop offset="1" stop-color="#178290"/>
</radialGradient>
<radialGradient id="paint12_radial_240_6737" cx="0" cy="0" r="1" gradientUnits="userSpaceOnUse" gradientTransform="translate(53.2114 71.4172) rotate(-130.54) scale(27.9015 21.9708)">
<stop stop-color="#177F8A"/>
<stop offset="0.26" stop-color="#177F8A"/>
<stop offset="0.27" stop-color="#177F8A"/>
<stop offset="0.38" stop-color="#17808C"/>
<stop offset="0.5" stop-color="#17818D"/>
<stop offset="0.62" stop-color="#17818F"/>
<stop offset="0.74" stop-color="#17828F"/>
<stop offset="0.86" stop-color="#178290"/>
<stop offset="1" stop-color="#178290"/>
</radialGradient>
<radialGradient id="paint13_radial_240_6737" cx="0" cy="0" r="1" gradientUnits="userSpaceOnUse" gradientTransform="translate(48.7801 78.354) rotate(-173.11) scale(26.1679 26.1679)">
<stop stop-color="#13656E"/>
<stop offset="0.11" stop-color="#13646E"/>
<stop offset="0.27" stop-color="#12646E"/>
<stop offset="0.42" stop-color="#12636E"/>
<stop offset="0.55" stop-color="#12636E"/>
<stop offset="0.66" stop-color="#12636E"/>
<stop offset="1" stop-color="#12636E"/>
</radialGradient>
<radialGradient id="paint14_radial_240_6737" cx="0" cy="0" r="1" gradientUnits="userSpaceOnUse" gradientTransform="translate(50.9189 80.7105) rotate(-119.32) scale(18.3029 15.365)">
<stop stop-color="#146A73"/>
<stop offset="0.13" stop-color="#146A73"/>
<stop offset="0.24" stop-color="#156F79"/>
<stop offset="0.45" stop-color="#167783"/>
<stop offset="0.65" stop-color="#167D8A"/>
<stop offset="0.82" stop-color="#17818E"/>
<stop offset="0.95" stop-color="#178290"/>
<stop offset="1" stop-color="#178290"/>
</radialGradient>
<radialGradient id="paint15_radial_240_6737" cx="0" cy="0" r="1" gradientUnits="userSpaceOnUse" gradientTransform="translate(45.1808 79.5028) rotate(-55.99) scale(17.208 13.6314)">
<stop stop-color="#198E9C"/>
<stop offset="0.1" stop-color="#198E9C"/>
<stop offset="0.41" stop-color="#198E9C"/>
<stop offset="0.67" stop-color="#198E9C"/>
<stop offset="0.88" stop-color="#198E9C"/>
<stop offset="1" stop-color="#198E9C"/>
</radialGradient>
<linearGradient id="paint16_linear_240_6737" x1="13.0993" y1="17.2169" x2="57.2445" y2="58.0672" gradientUnits="userSpaceOnUse">
<stop stop-color="#2BF9FF"/>
<stop offset="0.13" stop-color="#2BF9FF"/>
<stop offset="0.27" stop-color="#29F9FF"/>
<stop offset="0.4" stop-color="#27FAFF"/>
<stop offset="0.49" stop-color="#26FAFF"/>
<stop offset="0.54" stop-color="#26FAFF"/>
<stop offset="1" stop-color="#26FAFF"/>
</linearGradient>
<linearGradient id="paint17_linear_240_6737" x1="-11.3219" y1="81.0783" x2="40.2405" y2="66.4584" gradientUnits="userSpaceOnUse">
<stop stop-color="#26FAFF"/>
<stop offset="0.06" stop-color="#26FAFF"/>
<stop offset="0.24" stop-color="#26FAFF"/>
<stop offset="0.39" stop-color="#26FAFF"/>
<stop offset="0.5" stop-color="#26FAFF"/>
<stop offset="0.55" stop-color="#26FAFF"/>
<stop offset="1" stop-color="#26FAFF"/>
</linearGradient>
<linearGradient id="paint18_linear_240_6737" x1="2.01703" y1="87.324" x2="59.3794" y2="66.8756" gradientUnits="userSpaceOnUse">
<stop stop-color="#21DEFF"/>
<stop offset="0.04" stop-color="#21DEFF"/>
<stop offset="0.17" stop-color="#21DEFF"/>
<stop offset="0.27" stop-color="#21DEFF"/>
<stop offset="0.34" stop-color="#21DEFF"/>
<stop offset="0.38" stop-color="#21DEFF"/>
<stop offset="1" stop-color="#21DEFF"/>
</linearGradient>
<linearGradient id="paint19_linear_240_6737" x1="48.6107" y1="52.7236" x2="81.1045" y2="105.728" gradientUnits="userSpaceOnUse">
<stop stop-color="#21DEFF"/>
<stop offset="0.62" stop-color="#21DEFF"/>
<stop offset="0.66" stop-color="#21DEFF"/>
<stop offset="0.73" stop-color="#21DEFF"/>
<stop offset="0.83" stop-color="#21DEFF"/>
<stop offset="0.96" stop-color="#21DEFF"/>
<stop offset="1" stop-color="#21DEFF"/>
</linearGradient>
<linearGradient id="paint20_linear_240_6737" x1="89.1704" y1="70.3867" x2="84.1436" y2="45.7554" gradientUnits="userSpaceOnUse">
<stop stop-color="#44B044"/>
<stop offset="0.11" stop-color="#44B044"/>
<stop offset="0.27" stop-color="#44B044"/>
<stop offset="0.43" stop-color="#44B044"/>
<stop offset="0.58" stop-color="#44B044"/>
<stop offset="0.7" stop-color="#44B044"/>
<stop offset="0.8" stop-color="#44B044"/>
<stop offset="1" stop-color="#44B044"/>
</linearGradient>
<linearGradient id="paint21_linear_240_6737" x1="24.4408" y1="43.7602" x2="130.674" y2="78.9346" gradientUnits="userSpaceOnUse">
<stop stop-color="#3066FB"/>
<stop offset="0.38" stop-color="#2F64F7"/>
<stop offset="0.74" stop-color="#2857D9"/>
<stop offset="1" stop-color="#3C7EFF"/>
</linearGradient>
<radialGradient id="paint22_radial_240_6737" cx="0" cy="0" r="1" gradientUnits="userSpaceOnUse" gradientTransform="translate(96.9133 61.3816) rotate(98.69) scale(57.5365 37.9745)">
<stop stop-color="#1A3D9C"/>
<stop offset="0.4" stop-color="#1A3D9C"/>
<stop offset="0.7" stop-color="#1A3D9C"/>
<stop offset="1" stop-color="#1A3D9C"/>
</radialGradient>
<radialGradient id="paint23_radial_240_6737" cx="0" cy="0" r="1" gradientUnits="userSpaceOnUse" gradientTransform="translate(34917.7 -90056.2) rotate(98.6903) scale(7078.09 3816.44)">
<stop stop-color="#1A3D9C"/>
<stop offset="0.4" stop-color="#1A3D9C"/>
<stop offset="0.7" stop-color="#1A3D9C"/>
<stop offset="1" stop-color="#1A3D9C"/>
</radialGradient>
<radialGradient id="paint24_radial_240_6737" cx="0" cy="0" r="1" gradientUnits="userSpaceOnUse" gradientTransform="translate(30629.9 -91381.4) rotate(98.6109) scale(8429.62 3482.47)">
<stop stop-color="#1A3D9C"/>
<stop offset="0.4" stop-color="#1A3D9C"/>
<stop offset="0.7" stop-color="#1A3D9C"/>
<stop offset="1" stop-color="#1A3D9C"/>
</radialGradient>
<radialGradient id="paint25_radial_240_6737" cx="0" cy="0" r="1" gradientUnits="userSpaceOnUse" gradientTransform="translate(89.9125 58.7991) rotate(83.09) scale(50.292 35.0913)">
<stop stop-color="#1A3D9C"/>
<stop offset="0.16" stop-color="#1A3D9C"/>
<stop offset="0.33" stop-color="#1A3D9C"/>
<stop offset="0.49" stop-color="#1A3D9C"/>
<stop offset="0.61" stop-color="#1A3D9C"/>
<stop offset="0.7" stop-color="#1A3D9C"/>
<stop offset="1" stop-color="#1A3D9C"/>
</radialGradient>
<radialGradient id="paint26_radial_240_6737" cx="0" cy="0" r="1" gradientUnits="userSpaceOnUse" gradientTransform="translate(98.654 68.5678) rotate(74.64) scale(48.3394 32.865)">
<stop stop-color="#18388F"/>
<stop offset="0.37" stop-color="#193B96"/>
<stop offset="0.7" stop-color="#1A3D9C"/>
<stop offset="1" stop-color="#1A3D9C"/>
</radialGradient>
<radialGradient id="paint27_radial_240_6737" cx="0" cy="0" r="1" gradientUnits="userSpaceOnUse" gradientTransform="translate(93.9056 76.5107) rotate(74.64) scale(22.4635 21.3504)">
<stop stop-color="#18388F"/>
<stop offset="0.09" stop-color="#183992"/>
<stop offset="0.22" stop-color="#193B96"/>
<stop offset="0.35" stop-color="#193C98"/>
<stop offset="0.47" stop-color="#1A3C9A"/>
<stop offset="0.59" stop-color="#1A3D9C"/>
<stop offset="0.7" stop-color="#1A3D9C"/>
<stop offset="1" stop-color="#1A3D9C"/>
</radialGradient>
<radialGradient id="paint28_radial_240_6737" cx="0" cy="0" r="1" gradientUnits="userSpaceOnUse" gradientTransform="translate(94.5545 80.2073) rotate(74.64) scale(22.4635 21.3504)">
<stop stop-color="#1A3D9C"/>
<stop offset="0.01" stop-color="#1A3D9C"/>
<stop offset="0.24" stop-color="#1A3D9C"/>
<stop offset="0.44" stop-color="#1A3D9C"/>
<stop offset="0.6" stop-color="#1A3D9C"/>
<stop offset="0.7" stop-color="#1A3D9C"/>
<stop offset="1" stop-color="#1A3D9C"/>
</radialGradient>
<radialGradient id="paint29_radial_240_6737" cx="0" cy="0" r="1" gradientUnits="userSpaceOnUse" gradientTransform="translate(37.0466 71.2142) rotate(67.03) scale(53.6314 35.584)">
<stop stop-color="#1A3D9C"/>
<stop offset="0.4" stop-color="#1A3D9C"/>
<stop offset="0.48" stop-color="#1A3D9C"/>
<stop offset="0.69" stop-color="#1A3D9C"/>
<stop offset="0.79" stop-color="#1A3D9C"/>
<stop offset="1" stop-color="#1A3D9C"/>
</radialGradient>
<radialGradient id="paint30_radial_240_6737" cx="0" cy="0" r="1" gradientUnits="userSpaceOnUse" gradientTransform="translate(34.229 58.1174) rotate(76.1) scale(39.7811 26.2592)">
<stop stop-color="#1A3D9C"/>
<stop offset="0.06" stop-color="#1A3D9C"/>
<stop offset="0.21" stop-color="#1A3D9C"/>
<stop offset="0.36" stop-color="#1A3D9C"/>
<stop offset="0.51" stop-color="#1A3D9C"/>
<stop offset="0.67" stop-color="#1A3D9C"/>
<stop offset="0.83" stop-color="#1A3D9C"/>
<stop offset="1" stop-color="#1A3D9C"/>
</radialGradient>
<radialGradient id="paint31_radial_240_6737" cx="0" cy="0" r="1" gradientUnits="userSpaceOnUse" gradientTransform="translate(34.229 58.1174) rotate(76.1) scale(39.7811 26.2592)">
<stop stop-color="#1B3E9E"/>
<stop offset="0.06" stop-color="#1B3E9E"/>
<stop offset="0.21" stop-color="#1B3E9D"/>
<stop offset="0.36" stop-color="#1A3D9D"/>
<stop offset="0.52" stop-color="#1A3D9C"/>
<stop offset="0.67" stop-color="#1A3D9C"/>
<stop offset="0.83" stop-color="#1A3D9C"/>
<stop offset="1" stop-color="#1A3D9C"/>
</radialGradient>
<radialGradient id="paint32_radial_240_6737" cx="0" cy="0" r="1" gradientUnits="userSpaceOnUse" gradientTransform="translate(37.4108 55.1302) rotate(76.1) scale(30.438 20.0913)">
<stop stop-color="#183991"/>
<stop offset="0.03" stop-color="#183992"/>
<stop offset="0.18" stop-color="#193A95"/>
<stop offset="0.34" stop-color="#193B97"/>
<stop offset="0.5" stop-color="#1A3C99"/>
<stop offset="0.66" stop-color="#1A3D9B"/>
<stop offset="0.82" stop-color="#1A3D9C"/>
<stop offset="1" stop-color="#1A3D9C"/>
</radialGradient>
<radialGradient id="paint33_radial_240_6737" cx="0" cy="0" r="1" gradientUnits="userSpaceOnUse" gradientTransform="translate(41.6546 57.5251) rotate(87.14) scale(24.0511 21.1679)">
<stop stop-color="#2453D6"/>
<stop offset="0.04" stop-color="#2453D6"/>
<stop offset="0.2" stop-color="#2453D6"/>
<stop offset="0.52" stop-color="#2453D6"/>
<stop offset="0.73" stop-color="#2453D6"/>
<stop offset="1" stop-color="#2453D6"/>
</radialGradient>
</defs>
</svg>
