<svg width="128" height="128" viewBox="0 0 128 128" fill="none" xmlns="http://www.w3.org/2000/svg">
<path fill-rule="evenodd" clip-rule="evenodd" d="M87.0912 125.74L86.8059 16.0619C86.0672 15.3232 84.6263 15.5463 84.0631 15.7109L80.3108 16.8738C79.8477 15.3497 79.2466 13.871 78.5152 12.456C75.8528 7.37257 71.9616 4.68457 67.2512 4.67725H67.2366C66.922 4.67725 66.6112 4.70651 66.2967 4.73211L66.2601 4.73577C66.1239 4.56799 65.9824 4.40455 65.8359 4.24571C63.7879 2.05143 61.1547 0.979883 58.0023 1.07131C51.9241 1.24685 45.8715 5.64274 40.96 13.4507C37.504 18.9474 34.8818 25.8485 34.1321 31.1915L22.1623 34.9035C18.6404 36.0117 18.5307 36.1214 18.0663 39.4457C17.7188 41.9618 8.49918 113.346 8.49918 113.346L85.7673 126.723L87.0912 125.74ZM61.7764 6.08525C60.7488 5.40868 59.5456 5.09417 58.1193 5.12343C48.7351 5.39405 40.5504 20.0702 38.4621 29.8494L47.4514 27.0626L49.0569 26.5653C50.2345 20.3554 53.1895 13.9115 57.0551 9.76434C58.4067 8.27828 60.0022 7.03403 61.7728 6.08525H61.7764ZM53.5003 25.1865L66.4027 21.1856C66.4429 17.821 66.0772 12.8473 64.395 9.33645C62.603 10.0752 61.0962 11.3698 60.0137 12.5291C57.1136 15.6487 54.7474 20.4066 53.504 25.1865H53.5003ZM70.4439 19.9349L76.4416 18.0734C75.4834 14.9575 73.2087 9.73508 68.597 8.85737C70.0306 12.5621 70.4 16.8519 70.4439 19.9349Z" fill="#95BF47"/>
<path d="M104.404 24.2214C103.943 24.1848 95.0126 24.0459 95.0126 24.0459C95.0126 24.0459 87.541 16.7828 86.8023 16.0404C86.5163 15.7764 86.1539 15.6099 85.7673 15.5649V126.706L119.248 118.371C119.248 118.371 105.585 25.8781 105.498 25.2454C105.455 24.9767 105.324 24.7299 105.125 24.5443C104.927 24.3587 104.675 24.2451 104.404 24.2214Z" fill="#5E8E3E"/>
<path d="M67.211 41.4794L63.3198 56.0494C63.3198 56.0494 58.9824 54.0709 53.8368 54.3964C46.2957 54.8718 46.2153 59.6371 46.2921 60.833C46.7017 67.3427 63.8208 68.769 64.7826 84.0302C65.5396 96.0366 58.4228 104.254 48.1682 104.898C35.8619 105.677 29.0852 98.4065 29.0852 98.4065L31.6928 87.2961C31.6928 87.2961 38.5133 92.449 43.9698 92.1016C47.5392 91.8785 48.8119 88.9747 48.6839 86.9194C48.1463 78.4238 34.2052 78.9212 33.3239 64.9582C32.5851 53.2005 40.2907 41.2965 57.3001 40.2213C63.8537 39.8044 67.211 41.483 67.211 41.483" fill="white"/>
</svg>
