<svg width="128" height="128" viewBox="0 0 128 128" fill="none" xmlns="http://www.w3.org/2000/svg">
<path d="M36.5454 85.1947C36.3033 85.7564 35.3468 86.5245 33.9783 86.4728C32.5707 86.364 31.004 85.3412 30.7924 82.7941C30.6876 81.5359 31.1625 80.0043 31.4548 79.2032C32.0203 77.6544 31.5104 76.0313 30.1856 75.1641C29.4073 74.6545 28.4776 74.4815 27.5682 74.6759C26.6753 74.8675 25.9147 75.3929 25.4263 76.1559C25.0212 76.7882 24.7741 77.5777 24.6413 78.0013C24.6057 78.1147 24.5773 78.2045 24.5559 78.2621C24.2579 79.0637 23.7822 79.2981 23.4604 79.2544C23.308 79.2339 23.0986 79.1321 22.9645 78.7648C22.5988 77.7618 22.8944 74.9233 24.7853 72.837C25.9839 71.5146 27.8629 70.8376 29.6883 71.0687C31.5899 71.3105 33.171 72.4604 34.1407 74.3063C35.4289 76.7598 34.2814 79.3339 33.5958 80.872C33.5215 81.0389 33.4532 81.1914 33.3955 81.329C32.9654 82.3501 32.943 83.2414 33.3322 83.8393C33.6314 84.2987 34.1637 84.5675 34.7925 84.5796C35.0858 84.5847 35.3536 84.5224 35.5898 84.467C35.928 84.3885 36.2775 84.3071 36.49 84.5735C36.5677 84.6605 36.6879 84.8627 36.5454 85.1947ZM30.0981 66.421C29.0868 66.3689 28.1488 66.4591 27.3727 66.6153C20.8809 67.9247 17.2145 73.4475 17.9358 80.6232C18.5885 87.1154 25.1567 92.5894 31.2376 92.7527C31.8665 92.7676 32.4908 92.7261 33.1023 92.6219C39.6821 91.5 41.4046 84.355 40.3201 77.3373C39.0954 69.4135 33.7354 66.6204 30.0981 66.421Z" fill="white"/>
<path d="M117.45 97.9436C110.369 114.914 93.4687 124.36 73.3359 123.762C54.5673 123.205 38.5602 113.301 31.5545 97.1564C27.3179 97.16 22.9526 95.2978 19.6321 92.356C16.1345 89.2575 13.9766 85.2473 13.556 81.0636C13.2285 77.8065 13.6294 74.7778 14.6501 72.134L10.7155 68.8012C-7.28732 53.6002 49.0213 -8.98862 67.0311 6.71962C67.1217 6.79913 73.1574 12.7209 73.1723 12.7357C73.196 12.7236 76.5023 11.3218 76.5191 11.3148C92.3152 4.77375 105.133 7.93224 105.149 18.3692C105.157 23.7962 101.699 30.1225 96.1585 35.8657C98.1662 37.7288 99.7745 40.6408 100.697 43.969C101.472 46.4282 101.609 48.9241 101.679 50.5231C101.776 52.7349 101.882 57.8881 101.893 57.9797C102.034 58.0224 103.633 58.4614 104.118 58.5976C108.358 59.7879 111.374 61.3739 112.85 62.9222C114.325 64.471 115.056 65.9691 115.322 67.7271C115.571 69.1448 115.537 71.649 113.667 74.449C113.667 74.449 114.15 75.5012 114.616 76.9961C115.082 78.4909 115.421 79.7315 115.473 79.9156C117.188 79.9156 119.879 81.8884 119.879 86.6492C119.879 91.3862 117.914 96.7523 117.45 97.9436ZM121.583 78.8369C120.819 77.899 119.897 77.1421 118.901 76.6074C118.818 76.3326 118.729 76.042 118.636 75.7421C118.528 75.3966 118.419 75.0716 118.314 74.7717C119.869 71.4858 119.747 68.6277 119.478 67.0506C119.066 64.384 117.928 62.1485 115.898 60.0181C113.423 57.4199 109.304 55.753 106.023 54.7668C105.984 53.2073 105.934 51.4395 105.886 50.3385C105.822 48.8739 105.688 45.8391 104.736 42.775C104.03 40.2568 102.991 37.9441 101.704 35.9889C106.673 30.023 109.368 23.8604 109.36 18.3622C109.346 9.45358 102.41 3.69644 91.6912 3.69644C86.6013 3.69644 80.7976 4.98578 74.8982 7.42868C74.8884 7.43287 74.5644 7.56956 74.1143 7.75973C72.3209 6.00032 69.9566 3.68389 69.7985 3.54673C67.1008 1.19356 63.7522 7.62939e-06 59.8451 7.62939e-06C55.1941 7.62939e-06 49.8503 1.72408 43.9619 5.12341C38.8836 8.05544 33.4258 12.248 28.1779 17.2486C17.4786 27.4443 8.85263 39.6509 5.10351 49.9028C3.49396 54.3037 2.80251 58.2977 3.04843 61.7728C3.34666 65.9923 5.05864 69.5353 7.99408 72.014L9.82017 73.5605C9.24148 76.0671 9.08855 78.7211 9.36646 81.4848C9.89335 86.7244 12.5473 91.7048 16.84 95.5079C20.2912 98.5656 24.5229 100.553 28.7813 101.165C32.6032 108.794 38.4406 115.224 45.7852 119.864C53.7085 124.87 63.1924 127.674 73.2109 127.971C73.8497 127.99 74.496 128 75.1321 128C75.133 128 75.133 128 75.1344 128C85.4775 128 95.1626 125.457 103.141 120.646C111.356 115.693 117.648 108.403 121.336 99.5653C121.35 99.5332 121.362 99.5015 121.375 99.4696C122.012 97.8315 124.09 92.066 124.09 86.6492C124.09 82.7342 122.726 80.2397 121.583 78.8369Z" fill="white"/>
<path d="M67.4937 63.2244C67.2143 63.1854 67.0953 63.0659 67.0604 62.9073C66.9521 62.4168 67.7072 61.6087 68.5032 61.0256C70.914 59.2927 74.0394 58.9179 76.6604 60.0459C77.9423 60.5918 79.1503 61.564 79.7371 62.5223C80.0212 62.9868 80.0765 63.3462 79.8924 63.535C79.606 63.8377 78.875 63.4913 77.6852 62.9696C76.4954 62.4475 74.9503 61.8644 73.0854 61.9783C70.4434 62.1401 68.1503 63.2997 67.4937 63.2244ZM79.3977 66.1611C79.227 66.4285 78.8588 66.3796 78.08 66.2927C76.6697 66.1318 75.2474 66.0384 73.0909 66.8102C73.0909 66.8102 72.3065 67.125 71.9569 67.125C71.856 67.125 71.7723 67.0901 71.7021 67.0278C71.65 66.9841 71.5845 66.8971 71.5835 66.7456C71.5807 66.4271 71.8704 65.9751 72.3386 65.5655C72.8873 65.0903 73.7423 64.5798 75.2916 64.3347C77.4258 64.0818 78.9904 65.0768 79.3535 65.6659C79.5097 65.9189 79.4483 66.0849 79.3977 66.1611ZM85.9178 67.0227C86.2949 66.2555 87.4536 66.0528 88.5058 66.5693C89.558 67.0864 90.1052 68.1279 89.7286 68.8951C89.3515 69.6623 88.1924 69.8655 87.1406 69.3484C86.0884 68.8314 85.5407 67.7899 85.9178 67.0227ZM91.4973 51.725C93.1605 51.4567 93.9653 53.1789 94.5596 56.025C94.9599 57.9392 94.8832 59.6972 94.4387 60.7174C93.6701 60.609 92.8341 60.6132 91.9614 60.7174C91.2979 59.8697 90.7022 58.5014 90.3675 56.9005C89.7733 54.0545 89.8346 51.9928 91.4973 51.725ZM95.4169 65.586C95.3969 66.7581 94.6879 67.6969 93.8333 67.6825C92.9782 67.668 92.3013 66.7056 92.3212 65.5339C92.3412 64.3617 93.0503 63.423 93.9049 63.4374C94.76 63.4518 95.4369 64.4138 95.4169 65.586ZM114.623 83.7943C113.716 83.2359 112.63 83.4302 112.63 83.4302C112.63 83.4302 112.135 80.0402 110.733 76.9598C106.576 80.241 101.222 82.5473 97.1471 83.7166C92.444 85.0669 86.0805 86.1038 78.9801 85.6806C75.0405 85.3631 72.4344 84.2123 71.4543 87.3982C80.4527 90.6923 89.9783 89.2822 89.9783 89.2822C90.1629 89.2637 90.3275 89.3975 90.3461 89.5821C90.3614 89.7317 90.2698 89.883 90.1383 89.9388C90.1383 89.9388 82.8212 93.3362 71.2004 89.7421C71.5236 92.4677 74.1799 93.6895 75.4492 94.1834C77.0464 94.8051 78.796 95.0924 78.796 95.0924C93.1949 97.5692 106.657 89.3361 109.688 87.2624C109.915 87.1071 110.066 87.2582 109.883 87.5335C109.708 87.798 109.697 87.8134 109.586 87.9565C105.877 92.7414 95.9042 98.2825 82.93 98.2806C77.2714 98.2798 71.6156 96.2859 69.5391 93.2227C66.3174 88.47 69.3796 81.5318 74.7481 82.2553C74.7541 82.2557 76.5842 82.4631 77.0989 82.5207C83.8101 83.2679 93.5232 82.3269 101.53 78.6109C108.854 75.2111 111.621 71.4696 111.206 68.4408C111.093 67.6248 110.728 66.7693 109.943 65.964C108.627 64.6756 106.54 63.6726 103.019 62.6841C101.855 62.3577 101.066 62.149 100.216 61.8691C98.7038 61.3711 97.9566 60.9703 97.7873 58.1275C97.7134 56.8837 97.4967 52.5526 97.4181 50.7625C97.2805 47.6264 96.903 43.3394 94.2429 41.5693C93.5501 41.1081 92.7788 40.8854 91.9688 40.8426C91.1756 40.8049 90.778 40.9472 90.619 40.9747C89.1005 41.2318 88.2031 42.0403 87.0835 42.9731C83.766 45.7377 80.9641 46.1906 77.8489 46.0562C75.9876 45.9781 74.0148 45.688 71.7537 45.5545C71.3138 45.5285 70.8721 45.501 70.4314 45.4783C65.2136 45.2114 59.6173 49.7182 58.6874 56.117C57.3929 65.0243 63.8433 69.6269 65.7055 72.3283C65.9436 72.6515 66.2183 73.1072 66.2183 73.5391C66.2183 74.0557 65.8836 74.4662 65.5553 74.8145C65.5549 74.8154 65.5558 74.8168 65.5553 74.8173C60.2324 80.2908 58.5298 88.9869 60.5356 96.2352C60.7862 97.1406 61.1038 98.0062 61.4795 98.833C66.1863 109.832 80.787 114.954 95.0515 110.295C96.9625 109.671 98.7721 108.899 100.471 108.006C103.67 106.439 106.467 104.283 108.77 101.804C112.554 97.8491 114.805 93.55 115.679 88.2533C116.109 85.4184 115.48 84.322 114.623 83.7943Z" fill="white"/>
<path d="M85.6183 30.9366C85.8466 30.9891 85.9921 30.5939 85.7876 30.4796C82.7732 28.7885 78.1483 27.6405 74.867 27.6173C74.7052 27.6159 74.6146 27.4289 74.7113 27.2992C75.2785 26.5362 76.0559 25.7821 76.7664 25.2371C76.9259 25.1144 76.8292 24.8572 76.6283 24.8693C71.9559 25.1571 66.6289 27.3936 63.5666 29.4808C63.4155 29.584 63.2202 29.4492 63.2574 29.2702C63.4959 28.1199 64.2487 26.605 64.6393 25.8969C64.7318 25.7295 64.5509 25.5449 64.3808 25.6319C59.4587 28.1496 53.9638 32.6342 49.5002 37.7925C49.3425 37.9747 49.5769 38.2318 49.7717 38.09C53.6267 35.2863 58.9114 32.6784 65.8352 30.9896C73.5907 29.0982 81.0575 29.8909 85.6183 30.9366Z" fill="white"/>
<path d="M68.9537 14.9489C68.9537 14.9489 64.0526 9.26572 62.5731 8.84679C53.4696 6.38669 33.8053 19.9482 21.2499 37.8655C16.1696 45.1151 8.89718 57.9527 12.3746 64.5561C12.803 65.3748 15.2281 67.4769 16.5302 68.5626C18.7082 65.3986 22.2701 63.1082 26.3114 62.3224C31.4568 48.5149 40.0459 35.7903 51.4159 27.0351C59.8545 19.9975 68.9537 14.9489 68.9537 14.9489Z" fill="white"/>
</svg>
