<svg width="128" height="128" viewBox="0 0 128 128" fill="none" xmlns="http://www.w3.org/2000/svg">
  <rect width="128" height="128" rx="20" fill="#FF5C35"/>
  <path d="M86 51.5V39.2C91.7 37.2 95.8 31.8 95.8 25.4C95.8 17.3 89.3 10.8 81.2 10.8C73.1 10.8 66.6 17.3 66.6 25.4C66.6 31.8 70.7 37.2 76.4 39.2V51.5C70.8 52.4 65.9 55.2 62.1 59.2L39.3 41.4C40.2 39.5 40.7 37.4 40.7 35.2C40.7 27.1 34.2 20.6 26.1 20.6C18 20.6 11.5 27.1 11.5 35.2C11.5 43.3 18 49.8 26.1 49.8C28.9 49.8 31.5 49 33.7 47.7L56.2 65.3C54.7 68.4 53.8 71.9 53.8 75.6C53.8 77.9 54.1 80.1 54.8 82.2L38.2 92.6C35.5 90.2 32 88.7 28.1 88.7C20 88.7 13.5 95.2 13.5 103.3C13.5 111.4 20 117.9 28.1 117.9C36.2 117.9 42.7 111.4 42.7 103.3C42.7 102 42.5 100.8 42.2 99.6L58.9 89.1C63.4 95.4 70.7 99.5 79 99.5C92.7 99.5 103.8 88.4 103.8 74.7C103.8 62.2 94.7 52 86 51.5ZM79 89.2C71 89.2 64.5 82.7 64.5 74.7C64.5 66.7 71 60.2 79 60.2C87 60.2 93.5 66.7 93.5 74.7C93.5 82.7 87 89.2 79 89.2Z" fill="white"/>
</svg>
