<svg width="128" height="128" viewBox="0 0 128 128" fill="none" xmlns="http://www.w3.org/2000/svg">
<g clip-path="url(#clip0_0_993)">
<path d="M37.1571 53.3247H53.4279C49.3537 50.772 47.8324 47.2135 45.7953 40.6124L39.6841 17.9726C36.8993 7.78728 34.6044 2.93958 23.4134 2.93958H0.0257857V9.05078H3.35214C10.2111 9.05078 10.9847 11.6036 13.0218 19.2361L18.3594 39.0911C21.1442 48.7349 25.4762 53.3247 37.1571 53.3247ZM74.8042 53.3247H91.0749C102.782 53.3247 106.83 48.7349 109.641 39.0911L114.978 19.2361C117.015 11.6036 118.021 9.05078 124.648 9.05078H127.974V2.93958H104.819C93.3699 2.93958 91.075 7.52942 88.5222 17.9468L82.411 40.5866C80.4255 47.4456 78.8783 50.772 74.8042 53.3247ZM53.4279 74.6753H74.8042V53.299H53.4279V74.6753ZM0.0257857 125.06H23.4134C34.6044 125.06 36.8993 120.213 39.6841 110.053L45.7953 87.4134C47.8324 80.8123 49.3537 77.2281 53.4279 74.7011H37.1571C25.4504 74.7011 21.1185 79.2909 18.3336 88.9347L12.996 108.79C10.9331 116.396 10.1853 118.949 3.32635 118.949H0L0.0257857 125.06ZM104.819 125.06H127.974V118.949H124.648C118.047 118.949 117.015 116.396 114.978 108.764L109.641 88.909C106.856 79.2393 102.782 74.6753 91.0749 74.6753H74.83C78.9041 77.2281 80.3739 80.5286 82.411 87.3876L88.5222 110.027C91.0492 120.471 93.3441 125.06 104.819 125.06Z" fill="#1B0B3B"/>
</g>
<defs>
<clipPath id="clip0_0_993">
<rect width="128" height="122.121" fill="white" transform="translate(0 2.93958)"/>
</clipPath>
</defs>
</svg>
